<?xml version="1.0" encoding="UTF-8"?>
<svg version="1.1" xmlns="http://www.w3.org/2000/svg" width="377" height="52">
<path d="M0 0 C124.41 0 248.82 0 377 0 C377 17.16 377 34.32 377 52 C252.59 52 128.18 52 0 52 C0 34.84 0 17.68 0 0 Z " fill="#F7F6F2" transform="translate(0,0)"/>
<path d="M0 0 C36.3 0 72.6 0 110 0 C110 1.98 110 3.96 110 6 C110.66 6 111.32 6 112 6 C112 7.32 112 8.64 112 10 C112.66 9.67 113.32 9.34 114 9 C116.3329866 8.95977609 118.66706666 8.95679753 121 9 C121 9.99 121 10.98 121 12 C119.783125 12.226875 118.56625 12.45375 117.3125 12.6875 C113.032298 13.74237248 110.83173152 15.56759815 108 19 C105.91244232 23.17511535 106.65144537 28.51072113 107.6875 32.9375 C109.46734292 35.73439601 110.81438017 36.15050138 114 37 C116.32597511 37.3813074 118.65912158 37.72460254 121 38 C120.67 40.64 120.34 43.28 120 46 C120.66 46 121.32 46 122 46 C122.66 46 123.32 46 124 46 C124.33 33.79 124.66 21.58 125 9 C126.32 9 127.64 9 129 9 C129 13.62 129 18.24 129 23 C132.96 23 136.92 23 141 23 C141 18.38 141 13.76 141 9 C142.32 9 143.64 9 145 9 C145.16805236 14.17761321 145.32856463 19.35538551 145.48217773 24.53344727 C145.53545692 26.29392746 145.59077464 28.05434722 145.64819336 29.81469727 C145.73049878 32.34898856 145.80540462 34.88340869 145.87890625 37.41796875 C145.91945885 38.59325386 145.91945885 38.59325386 145.96083069 39.7922821 C146.06633815 43.67940333 145.97581708 47.22486928 145 51 C141.29692202 51.85610536 137.88109292 52.12366017 134.08378601 52.12025452 C132.89893112 52.12162918 131.71407623 52.12300385 130.49331665 52.12442017 C129.20218964 52.12082489 127.91106262 52.11722961 126.58081055 52.11352539 C125.20078025 52.11324317 123.82074981 52.11340194 122.4407196 52.1139679 C118.70145232 52.1142545 114.96221719 52.10837978 111.22295737 52.10139394 C107.31252439 52.09513774 103.40209065 52.09455481 99.49165344 52.09336853 C92.08987569 52.0902619 84.68811273 52.08205751 77.28634149 52.07201904 C68.85833473 52.06083716 60.43032726 52.05534222 52.00231493 52.05032361 C34.66819986 52.03987435 17.33410508 52.02153717 0 52 C0 34.84 0 17.68 0 0 Z " fill="#F6F6F6" transform="translate(0,0)"/>
<path d="M0 0 C29.37 0 58.74 0 89 0 C89.495 1.98 89.495 1.98 90 4 C90.66 4 91.32 4 92 4 C92 4.66 92 5.32 92 6 C93.32 6 94.64 6 96 6 C96 6.66 96 7.32 96 8 C92.25 9.125 92.25 9.125 90 8 C90 7.34 90 6.68 90 6 C89.42926758 6.32597168 88.85853516 6.65194336 88.27050781 6.98779297 C85.83392354 8.07403796 84.31718893 8.2331027 81.671875 8.1953125 C80.87265625 8.18886719 80.0734375 8.18242187 79.25 8.17578125 C78.425 8.15902344 77.6 8.14226563 76.75 8.125 C75.90953125 8.11597656 75.0690625 8.10695313 74.203125 8.09765625 C72.13529396 8.07415817 70.06761005 8.03828908 68 8 C68 8.66 68 9.32 68 10 C67.34 10 66.68 10 66 10 C66 8.68 66 7.36 66 6 C64.35 6 62.7 6 61 6 C61 15.24 61 24.48 61 34 C58.39345777 30.74182221 56.21204411 27.89227408 54.08984375 24.390625 C53.57486328 23.55402344 53.05988281 22.71742187 52.52929688 21.85546875 C51.4600829 20.10536883 50.39503419 18.35271794 49.33398438 16.59765625 C48.82029297 15.76621094 48.30660156 14.93476563 47.77734375 14.078125 C47.31577881 13.31918945 46.85421387 12.56025391 46.37866211 11.77832031 C45.03285696 9.70206012 45.03285696 9.70206012 42 9 C42.02094727 9.70084717 42.04189453 10.40169434 42.06347656 11.1237793 C42.14683048 14.31153919 42.19872139 17.49906952 42.25 20.6875 C42.28351562 21.79029297 42.31703125 22.89308594 42.3515625 24.02929688 C42.45001962 32.1766234 42.45001962 32.1766234 40.234375 36.23046875 C37.90449477 38.07563614 36.93267413 38.68227879 34 38.625 C33.01 38.64433594 33.01 38.64433594 32 38.6640625 C28.87101122 37.62514044 27.79711604 35.70422076 26 33 C25.54589844 29.95385742 25.54589844 29.95385742 25.609375 26.60546875 C25.62871094 24.80239258 25.62871094 24.80239258 25.6484375 22.96289062 C25.68195312 21.71701172 25.71546875 20.47113281 25.75 19.1875 C25.76804687 17.92228516 25.78609375 16.65707031 25.8046875 15.35351562 C25.85176084 12.23490665 25.91750906 9.11784027 26 6 C23.525 5.505 23.525 5.505 21 5 C20.67 5.99 20.34 6.98 20 8 C19.11957031 8.02578125 18.23914063 8.0515625 17.33203125 8.078125 C15.58986328 8.16320312 15.58986328 8.16320312 13.8125 8.25 C12.08966797 8.31960938 12.08966797 8.31960938 10.33203125 8.390625 C5.60380452 9.25534173 3.30698256 11.69301744 0 15 C0 10.05 0 5.1 0 0 Z " fill="#F5F6F6" transform="translate(0,0)"/>
<path d="M0 0 C1.65 0 3.3 0 5 0 C5 1.32 5 2.64 5 4 C5.66 4 6.32 4 7 4 C7 3.34 7 2.68 7 2 C8.27617188 1.93941406 9.55234375 1.87882813 10.8671875 1.81640625 C12.53647016 1.73200432 14.20574037 1.64735614 15.875 1.5625 C16.71675781 1.52318359 17.55851562 1.48386719 18.42578125 1.44335938 C19.23144531 1.40146484 20.03710938 1.35957031 20.8671875 1.31640625 C21.61081543 1.27974854 22.35444336 1.24309082 23.12060547 1.20532227 C25.08864312 1.10044135 25.08864312 1.10044135 27 0 C27.20496094 0.62648438 27.40992187 1.25296875 27.62109375 1.8984375 C27.89050781 2.71570313 28.15992187 3.53296875 28.4375 4.375 C28.70433594 5.18710938 28.97117187 5.99921875 29.24609375 6.8359375 C29.95179729 9.01031799 29.95179729 9.01031799 31 11 C31.60544573 16.32792244 30.11213426 18.75618055 27 23 C25.6950245 25.84489931 25.6950245 25.84489931 26.77734375 27.97265625 C27.16019531 28.66230469 27.54304688 29.35195313 27.9375 30.0625 C30 33.81694915 30 33.81694915 30 36 C28.1328125 35.78125 28.1328125 35.78125 26 35 C24.8671875 32.96875 24.8671875 32.96875 23.875 30.5 C22.72943369 28.00445806 22.72943369 28.00445806 21 26 C17.47136524 24.86715105 14.76895289 24.94974729 11 25 C11 28.63 11 32.26 11 36 C9.906875 36.144375 8.81375 36.28875 7.6875 36.4375 C4.06877013 36.88288104 4.06877013 36.88288104 1 38 C1 38.66 1 39.32 1 40 C0.34 40 -0.32 40 -1 40 C-1.0515625 38.86046875 -1.103125 37.7209375 -1.15625 36.546875 C-1.82404099 31.20924987 -4.45527382 27.56783586 -7.5 23.25 C-8.51533561 21.77942576 -9.5259469 20.30557574 -10.53125 18.828125 C-10.98048828 18.1877832 -11.42972656 17.54744141 -11.89257812 16.88769531 C-13.04338844 14.9260407 -13.56380659 13.22162912 -14 11 C-14.66 11 -15.32 11 -16 11 C-15.95359375 12.24136719 -15.9071875 13.48273437 -15.859375 14.76171875 C-15.82184579 16.40362171 -15.78544686 18.04555077 -15.75 19.6875 C-15.69972656 20.91243164 -15.69972656 20.91243164 -15.6484375 22.16210938 C-15.58135113 26.30469263 -15.6311867 28.41838067 -17.90234375 32 C-21.14858095 35.09510884 -22.93899629 35.88425414 -27.4375 36.375 C-31.60997321 35.93579229 -33.07047808 34.92952192 -36 32 C-38.32891212 28.50663182 -38.23551143 27.13992135 -38.1953125 23.01953125 C-38.18886719 21.85615234 -38.18242188 20.69277344 -38.17578125 19.49414062 C-38.15902344 18.27919922 -38.14226563 17.06425781 -38.125 15.8125 C-38.11597656 14.58595703 -38.10695313 13.35941406 -38.09765625 12.09570312 C-38.07406017 9.06360705 -38.04113841 6.03190062 -38 3 C-37.01 3 -36.02 3 -35 3 C-34.98541748 3.70608398 -34.97083496 4.41216797 -34.95581055 5.13964844 C-34.88126833 8.34364674 -34.78462795 11.54661016 -34.6875 14.75 C-34.66494141 15.86117188 -34.64238281 16.97234375 -34.61914062 18.1171875 C-34.58369141 19.18710937 -34.54824219 20.25703125 -34.51171875 21.359375 C-34.48553467 22.34389648 -34.45935059 23.32841797 -34.43237305 24.34277344 C-33.93915812 27.37391476 -33.09452036 28.78480901 -31 31 C-29.06574514 31.62723208 -29.06574514 31.62723208 -27 31.5 C-26.319375 31.5103125 -25.63875 31.520625 -24.9375 31.53125 C-22.14291449 30.76499268 -21.48940929 29.44841465 -20 27 C-19.49967042 24.30035844 -19.49967042 24.30035844 -19.48828125 21.359375 C-19.45283203 20.28945313 -19.41738281 19.21953125 -19.38085938 18.1171875 C-19.35830078 17.00601562 -19.33574219 15.89484375 -19.3125 14.75 C-19.27833984 13.62335937 -19.24417969 12.49671875 -19.20898438 11.3359375 C-19.12656986 8.55739099 -19.05739702 5.77915748 -19 3 C-16.06624542 3.3175424 -15.15854027 3.8055634 -13.26074219 6.13305664 C-12.69516602 7.04949951 -12.12958984 7.96594238 -11.546875 8.91015625 C-10.928125 9.89951172 -10.309375 10.88886719 -9.671875 11.90820312 C-9.03765625 12.94912109 -8.4034375 13.99003906 -7.75 15.0625 C-7.1003125 16.10728516 -6.450625 17.15207031 -5.78125 18.22851562 C-4.1765716 20.81251982 -2.58347242 23.402966 -1 26 C-1.00523682 25.28344238 -1.01047363 24.56688477 -1.01586914 23.82861328 C-1.03660667 20.59408438 -1.04964984 17.35956944 -1.0625 14.125 C-1.07087891 12.99707031 -1.07925781 11.86914062 -1.08789062 10.70703125 C-1.09111328 9.63066406 -1.09433594 8.55429688 -1.09765625 7.4453125 C-1.10289307 6.45031738 -1.10812988 5.45532227 -1.11352539 4.43017578 C-1 2 -1 2 0 0 Z " fill="#F5F6F7" transform="translate(61,6)"/>
<path d="M0 0 C11.55 0 23.1 0 35 0 C34.67 1.65 34.34 3.3 34 5 C35.98 5 37.96 5 40 5 C40.1875 7.8125 40.1875 7.8125 40 11 C39.26753052 11.71023315 39.26753052 11.71023315 38.52026367 12.43481445 C36.58366045 14.42864186 36.58547628 15.48956884 36.48828125 18.23046875 C36.45283203 19.03291016 36.41738281 19.83535156 36.38085938 20.66210938 C36.35830078 21.49548828 36.33574219 22.32886719 36.3125 23.1875 C36.27833984 24.03248047 36.24417969 24.87746094 36.20898438 25.74804688 C36.12658529 27.83156649 36.06161355 29.91576216 36 32 C35.67 32 35.34 32 35 32 C35 24.41 35 16.82 35 9 C33.68 9 32.36 9 31 9 C31 13.62 31 18.24 31 23 C27.04 23 23.08 23 19 23 C19 18.38 19 13.76 19 9 C17.68 9 16.36 9 15 9 C15.00785522 10.46808105 15.00785522 10.46808105 15.01586914 11.96582031 C15.03399561 15.60366905 15.04545997 19.24151381 15.05493164 22.87939453 C15.05995437 24.45264355 15.06677375 26.02588792 15.07543945 27.59912109 C15.08759529 29.86296743 15.09324896 32.12675193 15.09765625 34.390625 C15.10281754 35.09181458 15.10797882 35.79300415 15.11329651 36.51544189 C15.11367502 39.82485751 15.02514727 42.83587763 14 46 C13.34 46 12.68 46 12 46 C11.67 46.66 11.34 47.32 11 48 C10.01 47.67 9.02 47.34 8 47 C8.99 44.03 9.98 41.06 11 38 C9.4221875 38.0928125 9.4221875 38.0928125 7.8125 38.1875 C3.73853741 37.98714118 2.13591505 37.52615379 -1 35 C-4.15085489 31.30589426 -4.52352299 27.91249167 -4.3515625 23.21484375 C-3.62331285 18.62687097 -1.16567008 15.92026585 2.375 13.125 C5.43171781 11.81497808 7.70700999 11.77025651 11 12 C11 11.01 11 10.02 11 9 C6.545 9.495 6.545 9.495 2 10 C2 8.68 2 7.36 2 6 C1.34 6 0.68 6 0 6 C0 4.02 0 2.04 0 0 Z " fill="#F4F6F7" transform="translate(110,0)"/>
<path d="M0 0 C1.32 0 2.64 0 4 0 C4 4.62 4 9.24 4 14 C7.96 14 11.92 14 16 14 C16 9.38 16 4.76 16 0 C17.32 0 18.64 0 20 0 C20.16805236 5.17761321 20.32856463 10.35538551 20.48217773 15.53344727 C20.53545692 17.29392746 20.59077464 19.05434722 20.64819336 20.81469727 C20.73049878 23.34898856 20.80540462 25.88340869 20.87890625 28.41796875 C20.90594131 29.20149216 20.93297638 29.98501556 20.96083069 30.7922821 C21.06633815 34.67940333 20.97581708 38.22486928 20 42 C15.71702469 43.05619003 11.57014354 43.11702092 7.1875 43.0625 C6.49462891 43.05798828 5.80175781 43.05347656 5.08789062 43.04882812 C3.39188932 43.03713156 1.69593297 43.01919924 0 43 C-0.33 41.68 -0.66 40.36 -1 39 C-1.66 39 -2.32 39 -3 39 C-3 38.34 -3 37.68 -3 37 C-2.34 37 -1.68 37 -1 37 C-0.67 24.79 -0.34 12.58 0 0 Z " fill="#EDF4F7" transform="translate(125,9)"/>
<path d="M0 0 C5.94 0 11.88 0 18 0 C18 1.98 18 3.96 18 6 C18.66 6 19.32 6 20 6 C20 7.32 20 8.64 20 10 C20.66 9.67 21.32 9.34 22 9 C24.3329866 8.95977609 26.66706666 8.95679753 29 9 C29 9.99 29 10.98 29 12 C27.783125 12.226875 26.56625 12.45375 25.3125 12.6875 C21.032298 13.74237248 18.83173152 15.56759815 16 19 C13.91244232 23.17511535 14.65144537 28.51072113 15.6875 32.9375 C17.46734292 35.73439601 18.81438017 36.15050138 22 37 C24.32597511 37.3813074 26.65912158 37.72460254 29 38 C29 39.32 29 40.64 29 42 C22.56014475 41.97079431 19.19051315 40.86511537 14.57421875 36.3671875 C12.51580317 34.57948166 10.69302871 34.16321386 8 34 C8.2784375 34.86625 8.2784375 34.86625 8.5625 35.75 C9.04023546 38.20692525 8.75729364 39.64397534 8 42 C6.35 42 4.7 42 3 42 C3 31.11 3 20.22 3 9 C3.99 8.67 4.98 8.34 6 8 C6 6.68 6 5.36 6 4 C4.68 4 3.36 4 2 4 C2 3.34 2 2.68 2 2 C1.34 2 0.68 2 0 2 C0 1.34 0 0.68 0 0 Z " fill="#F6F6F5" transform="translate(92,0)"/>
<path d="M0 0 C0.99 0 1.98 0 3 0 C3.01458252 0.70608398 3.02916504 1.41216797 3.04418945 2.13964844 C3.11873167 5.34364674 3.21537205 8.54661016 3.3125 11.75 C3.33505859 12.86117188 3.35761719 13.97234375 3.38085938 15.1171875 C3.41630859 16.18710937 3.45175781 17.25703125 3.48828125 18.359375 C3.51446533 19.34389648 3.54064941 20.32841797 3.56762695 21.34277344 C4.06084188 24.37391476 4.90547964 25.78480901 7 28 C8.93425486 28.62723208 8.93425486 28.62723208 11 28.5 C11.680625 28.5103125 12.36125 28.520625 13.0625 28.53125 C15.85708551 27.76499268 16.51059071 26.44841465 18 24 C18.50032958 21.30035844 18.50032958 21.30035844 18.51171875 18.359375 C18.54716797 17.28945313 18.58261719 16.21953125 18.61914062 15.1171875 C18.64169922 14.00601562 18.66425781 12.89484375 18.6875 11.75 C18.72166016 10.62335937 18.75582031 9.49671875 18.79101562 8.3359375 C18.87343014 5.55739099 18.94260298 2.77915748 19 0 C21.93375458 0.3175424 22.84145973 0.8055634 24.73925781 3.13305664 C25.30483398 4.04949951 25.87041016 4.96594238 26.453125 5.91015625 C27.071875 6.89951172 27.690625 7.88886719 28.328125 8.90820312 C28.96234375 9.94912109 29.5965625 10.99003906 30.25 12.0625 C30.8996875 13.10728516 31.549375 14.15207031 32.21875 15.22851562 C33.82330976 17.81232876 35.41306763 20.40532314 37 23 C37.33 15.41 37.66 7.82 38 0 C38.99 0 39.98 0 41 0 C41 10.89 41 21.78 41 33 C36.49995407 30.74997704 36.49995407 30.74997704 34.52734375 27.48046875 C34.10259766 26.78759766 33.67785156 26.09472656 33.24023438 25.38085938 C32.81033203 24.65705078 32.38042969 23.93324219 31.9375 23.1875 C31.50373047 22.47529297 31.06996094 21.76308594 30.62304688 21.02929688 C29.78307415 19.6472413 28.94869252 18.26176831 28.12060547 16.87255859 C27.16403131 15.27410025 26.18042707 13.69186955 25.19140625 12.11328125 C24 10 24 10 24 8 C23.34 8 22.68 8 22 8 C22.04640625 9.24136719 22.0928125 10.48273437 22.140625 11.76171875 C22.17815421 13.40362171 22.21455314 15.04555077 22.25 16.6875 C22.30027344 17.91243164 22.30027344 17.91243164 22.3515625 19.16210938 C22.41864887 23.30469263 22.3688133 25.41838067 20.09765625 29 C16.85141905 32.09510884 15.06100371 32.88425414 10.5625 33.375 C6.39002679 32.93579229 4.92952192 31.92952192 2 29 C-0.32891212 25.50663182 -0.23551143 24.13992135 -0.1953125 20.01953125 C-0.18886719 18.85615234 -0.18242187 17.69277344 -0.17578125 16.49414062 C-0.15902344 15.27919922 -0.14226563 14.06425781 -0.125 12.8125 C-0.11597656 11.58595703 -0.10695313 10.35941406 -0.09765625 9.09570312 C-0.07406017 6.06360705 -0.04113841 3.03190062 0 0 Z " fill="#4368B5" transform="translate(23,9)"/>
<path d="M0 0 C1.74216797 0.08121094 1.74216797 0.08121094 3.51953125 0.1640625 C4.39996094 0.23367188 5.28039062 0.30328125 6.1875 0.375 C6.1875 1.365 6.1875 2.355 6.1875 3.375 C5.42824219 3.41238281 4.66898438 3.44976562 3.88671875 3.48828125 C2.89285156 3.55402344 1.89898437 3.61976562 0.875 3.6875 C-0.11113281 3.74550781 -1.09726563 3.80351562 -2.11328125 3.86328125 C-5.07147601 4.42409675 -6.09986963 4.93007251 -7.8125 7.375 C-7.56796876 10.71692692 -7.20706443 11.98043557 -4.8125 14.375 C-3.141875 14.7771875 -3.141875 14.7771875 -1.4375 15.1875 C2.73494269 16.55433467 4.03661451 17.58944153 6.1875 21.375 C6.84172668 25.30036009 6.54093315 26.82656925 4.375 30.1875 C1.75359212 32.80890788 0.16588551 33.33960255 -3.51171875 33.47265625 C-4.49785156 33.46105469 -5.48398438 33.44945312 -6.5 33.4375 C-7.49386719 33.42847656 -8.48773438 33.41945312 -9.51171875 33.41015625 C-10.65060547 33.39275391 -10.65060547 33.39275391 -11.8125 33.375 C-11.95814235 29.00035204 -12.04669143 24.6263304 -12.125 20.25 C-12.16689453 19.0125 -12.20878906 17.775 -12.25195312 16.5 C-12.39022429 6.21262541 -12.39022429 6.21262541 -9.71875 2.53125 C-6.1632136 -0.10672862 -4.3771719 -0.26528315 0 0 Z " fill="#4167B9" transform="translate(11.8125,8.625)"/>
<path d="M0 0 C1.32 0 2.64 0 4 0 C4 4.62 4 9.24 4 14 C7.96 14 11.92 14 16 14 C16 9.38 16 4.76 16 0 C17.32 0 18.64 0 20 0 C20 10.89 20 21.78 20 33 C18.68 33 17.36 33 16 33 C16 28.05 16 23.1 16 18 C12.04 18 8.08 18 4 18 C4 22.95 4 27.9 4 33 C2.68 33 1.36 33 0 33 C0 22.11 0 11.22 0 0 Z " fill="#6584C2" transform="translate(125,9)"/>
<path d="M0 0 C2.39652528 -0.08139142 4.79025436 -0.14067009 7.1875 -0.1875 C7.86103516 -0.21263672 8.53457031 -0.23777344 9.22851562 -0.26367188 C13.7130038 -0.32929853 16.43499345 0.26071188 20 3 C22.12738138 5.71424521 22.92909561 7.5239277 23.4375 10.9375 C22.88749165 14.78755842 21.27865528 16.8927428 19 20 C17.6950245 22.84489931 17.6950245 22.84489931 18.77734375 24.97265625 C19.16019531 25.66230469 19.54304688 26.35195313 19.9375 27.0625 C22 30.81694915 22 30.81694915 22 33 C20.1328125 32.78125 20.1328125 32.78125 18 32 C16.8671875 29.96875 16.8671875 29.96875 15.875 27.5 C14.72943369 25.00445806 14.72943369 25.00445806 13 23 C9.47136524 21.86715105 6.76895289 21.94974729 3 22 C3 25.63 3 29.26 3 33 C2.01 33 1.02 33 0 33 C0 28.38 0 23.76 0 19 C1.04800781 18.96261719 2.09601563 18.92523437 3.17578125 18.88671875 C4.55472305 18.82105485 5.93362771 18.75460765 7.3125 18.6875 C8.00279297 18.66494141 8.69308594 18.64238281 9.40429688 18.61914062 C12.30356756 18.4650731 14.49817922 18.33220535 16.953125 16.70703125 C18.20723399 14.66208487 18.43296965 13.39202685 18.4375 11 C18.45683594 10.319375 18.47617188 9.63875 18.49609375 8.9375 C18.12997948 6.87012171 18.12997948 6.87012171 16.42578125 5.29296875 C13.16270304 3.55371128 10.42894765 3.48282165 6.75 3.3125 C4.85507813 3.21388672 4.85507813 3.21388672 2.921875 3.11328125 C1.95765625 3.07589844 0.9934375 3.03851563 0 3 C0 2.01 0 1.02 0 0 Z " fill="#4468BB" transform="translate(69,9)"/>
<path d="M0 0 C0.99 0 1.98 0 3 0 C3.01458252 0.70608398 3.02916504 1.41216797 3.04418945 2.13964844 C3.11873167 5.34364674 3.21537205 8.54661016 3.3125 11.75 C3.33505859 12.86117188 3.35761719 13.97234375 3.38085938 15.1171875 C3.41630859 16.18710937 3.45175781 17.25703125 3.48828125 18.359375 C3.51446533 19.34389648 3.54064941 20.32841797 3.56762695 21.34277344 C4.06084188 24.37391476 4.90547964 25.78480901 7 28 C8.93425486 28.62723208 8.93425486 28.62723208 11 28.5 C11.680625 28.5103125 12.36125 28.520625 13.0625 28.53125 C15.84486284 27.76834406 16.50622848 26.42663558 18 24 C18.49857326 21.49640263 18.49857326 21.49640263 18.51171875 18.796875 C18.54716797 17.8171875 18.58261719 16.8375 18.61914062 15.828125 C18.64169922 14.81234375 18.66425781 13.7965625 18.6875 12.75 C18.72166016 11.71875 18.75582031 10.6875 18.79101562 9.625 C18.87338093 7.08344188 18.94256834 4.54222374 19 2 C19.33 2 19.66 2 20 2 C20.02505615 2.62044189 20.0501123 3.24088379 20.07592773 3.88012695 C20.19196721 6.69112397 20.31465759 9.50179241 20.4375 12.3125 C20.47681641 13.28896484 20.51613281 14.26542969 20.55664062 15.27148438 C20.59853516 16.20927734 20.64042969 17.14707031 20.68359375 18.11328125 C20.72025146 18.97735596 20.75690918 19.84143066 20.79467773 20.73168945 C20.92747354 23.1647826 20.92747354 23.1647826 22 26 C19.80897794 29.32710757 17.85054713 31.78982804 14 33 C9.82954464 33.45495877 7.75015363 33.48343234 4.1875 31.1875 C1.60414638 28.60414638 0.08149636 26.97892027 -0.22705078 23.27270508 C-0.21657715 22.19915771 -0.20610352 21.12561035 -0.1953125 20.01953125 C-0.18886719 18.85615234 -0.18242187 17.69277344 -0.17578125 16.49414062 C-0.15902344 15.27919922 -0.14226563 14.06425781 -0.125 12.8125 C-0.11597656 11.58595703 -0.10695313 10.35941406 -0.09765625 9.09570312 C-0.07406017 6.06360705 -0.04113841 3.03190062 0 0 Z " fill="#4A70C6" transform="translate(23,9)"/>
<path d="M0 0 C1.32 1.32 2.64 2.64 4 4 C6.26103447 5.02416699 6.26103447 5.02416699 8.625 5.625 C12.80555556 6.80555556 12.80555556 6.80555556 15 9 C15.48760847 12.08818698 15.23592119 13.58432932 13.6875 16.3125 C9.30519073 19.06418256 5.09535849 18.24263612 0 18 C0 12.06 0 6.12 0 0 Z " fill="#F9F5F6" transform="translate(0,21)"/>
<path d="M0 0 C0.66 0 1.32 0 2 0 C2.66 3.3 3.32 6.6 4 10 C4.99 10.33 5.98 10.66 7 11 C6.67 11.66 6.34 12.32 6 13 C6.66 13.33 7.32 13.66 8 14 C6.68 14 5.36 14 4 14 C4 13.34 4 12.68 4 12 C2.741875 12.12375 1.48375 12.2475 0.1875 12.375 C-0.52019531 12.44460937 -1.22789062 12.51421875 -1.95703125 12.5859375 C-4.29988142 12.92665391 -4.29988142 12.92665391 -7 15 C-7 14.34 -7 13.68 -7 13 C-10.3 13.33 -13.6 13.66 -17 14 C-17.33 12.68 -17.66 11.36 -18 10 C-16.47005208 8.76302083 -14.94010417 7.52604167 -13.41015625 6.2890625 C-11.86733563 5.0333609 -11.86733563 5.0333609 -11 3 C-13.97 3.66 -16.94 4.32 -20 5 C-20 8.63 -20 12.26 -20 16 C-20.66 15.67 -21.32 15.34 -22 15 C-22.59765625 13.00390625 -22.59765625 13.00390625 -23.0625 10.5625 C-23.7144301 7.17525953 -23.7144301 7.17525953 -25 4 C-21.75900504 1.83933669 -20.23720241 1.62113095 -16.4375 1.3125 C-15.46683594 1.22613281 -14.49617188 1.13976562 -13.49609375 1.05078125 C-11 1 -11 1 -9 2 C-10.31224548 5.93673644 -11.91910327 8.22719294 -15 11 C-12.03 11 -9.06 11 -6 11 C-4.02 7.37 -2.04 3.74 0 0 Z " fill="#FECA23" transform="translate(325,22)"/>
<path d="M0 0 C0 0.99 0 1.98 0 3 C-1.216875 3.226875 -2.43375 3.45375 -3.6875 3.6875 C-7.967702 4.74237248 -10.16826848 6.56759815 -13 10 C-15.08755768 14.17511535 -14.34855463 19.51072113 -13.3125 23.9375 C-11.53265708 26.73439601 -10.18561983 27.15050138 -7 28 C-4.67402489 28.3813074 -2.34087842 28.72460254 0 29 C0 30.32 0 31.64 0 33 C-6.24629085 32.97167215 -9.96365813 31.92230966 -14.58984375 27.66796875 C-18.482279 23.06389714 -18.42970356 18.77007823 -18.30859375 12.9140625 C-17.88407515 8.9053172 -16.8098375 6.88188461 -14 4 C-9.45204666 0.42017534 -5.87055806 -0.47922923 0 0 Z " fill="#466CBD" transform="translate(121,9)"/>
<path d="M0 0 C3.63 0 7.26 0 11 0 C11.28571429 10.57142857 11.28571429 10.57142857 9 16 C5.96936513 15.41070989 2.9982175 14.74955438 0 14 C0 9.38 0 4.76 0 0 Z " fill="#F6F7F6" transform="translate(129,28)"/>
<path d="M0 0 C0.33 0 0.66 0 1 0 C1.02730408 1.56240032 1.04653226 3.1249427 1.0625 4.6875 C1.07410156 5.55761719 1.08570313 6.42773438 1.09765625 7.32421875 C1.0001099 9.99698868 0.52741381 12.3832161 0 15 C-0.11277855 16.87264846 -0.17457991 18.74900311 -0.1875 20.625 C-0.20876953 22.03652344 -0.20876953 22.03652344 -0.23046875 23.4765625 C-0.17960707 26.24704023 -0.17960707 26.24704023 2 29 C0.68 28.67 -0.64 28.34 -2 28 C-2.33 23.71 -2.66 19.42 -3 15 C-3.99 16.32 -4.98 17.64 -6 19 C-8.99324263 17.9024777 -9.84610901 17.32317108 -11.25 14.375 C-11.4975 13.59125 -11.745 12.8075 -12 12 C-13.7479503 17.24385089 -14.19392201 21.47322267 -14 27 C-14.99 27 -15.98 27 -17 27 C-17.48350422 19.10276444 -15.67664721 11.66467297 -14 4 C-13.01 4.33 -12.02 4.66 -11 5 C-10.05078125 7.28515625 -10.05078125 7.28515625 -9.3125 10.0625 C-8.93544922 11.44115234 -8.93544922 11.44115234 -8.55078125 12.84765625 C-8.36902344 13.55792969 -8.18726563 14.26820312 -8 15 C-7.01 14.67 -6.02 14.34 -5 14 C-3.78365778 11.54811881 -3.78365778 11.54811881 -2.875 8.625 C-2.54242188 7.64789062 -2.20984375 6.67078125 -1.8671875 5.6640625 C-1.58101563 4.78492188 -1.29484375 3.90578125 -1 3 C-0.67 2.01 -0.34 1.02 0 0 Z " fill="#FECC2B" transform="translate(265,14)"/>
<path d="M0 0 C1.32 0 2.64 0 4 0 C4 10.89 4 21.78 4 33 C2.68 33 1.36 33 0 33 C0 22.11 0 11.22 0 0 Z " fill="#5E7FC4" transform="translate(95,9)"/>
<path d="M0 0 C0.66 0 1.32 0 2 0 C2 1.98 2 3.96 2 6 C3.32 5.67 4.64 5.34 6 5 C6.33 3.35 6.66 1.7 7 0 C9.91918138 5.64375068 9.91207519 8.81815706 9 15 C6.8480563 11.77208445 6.79913557 10.71599191 7 7 C5.02 7.33 3.04 7.66 1 8 C1 9.65 1 11.3 1 13 C1.66 13.33 2.32 13.66 3 14 C2.01 14 1.02 14 0 14 C0 12.35 0 10.7 0 9 C-1.32 9.33 -2.64 9.66 -4 10 C-3.34 9.01 -2.68 8.02 -2 7 C-1.34 7 -0.68 7 0 7 C0 6.01 0 5.02 0 4 C-3.3 4.33 -6.6 4.66 -10 5 C-10 6.98 -10 8.96 -10 11 C-9.34 11 -8.68 11 -8 11 C-8 11.99 -8 12.98 -8 14 C-8.99 14 -9.98 14 -11 14 C-12.35439668 11.29120665 -12.06501451 8.99066732 -12 6 C-13.32 6 -14.64 6 -16 6 C-16 5.34 -16 4.68 -16 4 C-10.72 3.34 -5.44 2.68 0 2 C0 1.34 0 0.68 0 0 Z " fill="#FECC2A" transform="translate(229,23)"/>
<path d="M0 0 C1.65 0 3.3 0 5 0 C5 1.32 5 2.64 5 4 C5.66 4 6.32 4 7 4 C7 3.34 7 2.68 7 2 C8.27617188 1.93941406 9.55234375 1.87882813 10.8671875 1.81640625 C12.53647016 1.73200432 14.20574037 1.64735614 15.875 1.5625 C16.71675781 1.52318359 17.55851562 1.48386719 18.42578125 1.44335938 C19.23144531 1.40146484 20.03710938 1.35957031 20.8671875 1.31640625 C21.61081543 1.27974854 22.35444336 1.24309082 23.12060547 1.20532227 C25.08864312 1.10044135 25.08864312 1.10044135 27 0 C27.33 1.98 27.66 3.96 28 6 C27.00419922 5.52433594 27.00419922 5.52433594 25.98828125 5.0390625 C22.39075657 3.78815849 18.9560199 3.54809948 15.1875 3.375 C14.49462891 3.33632812 13.80175781 3.29765625 13.08789062 3.2578125 C11.39232985 3.16426432 9.69620288 3.08107636 8 3 C8 4.65 8 6.3 8 8 C7.01 8.33 6.02 8.66 5 9 C4.67 17.91 4.34 26.82 4 36 C3.67 36 3.34 36 3 36 C3 25.11 3 14.22 3 3 C2.01 3 1.02 3 0 3 C0 4.65 0 6.3 0 8 C-0.33 8 -0.66 8 -1 8 C-1.125 2.25 -1.125 2.25 0 0 Z " fill="#D8E0EE" transform="translate(61,6)"/>
<path d="M0 0 C1.32 0.33 2.64 0.66 4 1 C4 2.98 4 4.96 4 7 C3.34 7 2.68 7 2 7 C2 6.34 2 5.68 2 5 C1.34 5 0.68 5 0 5 C0 6.32 0 7.64 0 9 C-2.76250036 10.38125018 -4.94731099 10.19079306 -8 10 C-8.66 9.34 -9.32 8.68 -10 8 C-9.625 4.875 -9.625 4.875 -9 2 C-7.35 1.67 -5.7 1.34 -4 1 C-4 1.66 -4 2.32 -4 3 C-2.68 3 -1.36 3 0 3 C0 2.01 0 1.02 0 0 Z " fill="#F6F5FB" transform="translate(14,13)"/>
<path d="M0 0 C0.66 0 1.32 0 2 0 C3.5859375 2.37890625 3.5859375 2.37890625 5.375 5.5625 C5.99246094 6.65175781 6.60992187 7.74101562 7.24609375 8.86328125 C7.82488281 9.89839844 8.40367188 10.93351562 9 12 C9.81101679 13.4175163 10.62315964 14.83439042 11.4375 16.25 C11.953125 17.1575 12.46875 18.065 13 19 C12.34 19 11.68 19 11 19 C11 18.34 11 17.68 11 17 C9.68 17 8.36 17 7 17 C7 15.68 7 14.36 7 13 C3.06924356 13.57452746 3.06924356 13.57452746 0 16 C0 10.72 0 5.44 0 0 Z " fill="#E2EAF8" transform="translate(45,17)"/>
<path d="M0 0 C5.66666667 0 11.33333333 0 17 0 C17.33 1.65 17.66 3.3 18 5 C5.93188582 6.41849443 5.93188582 6.41849443 0 5 C-0.33 4.34 -0.66 3.68 -1 3 C-0.67 2.01 -0.34 1.02 0 0 Z " fill="#8599C8" transform="translate(127,46)"/>
<path d="M0 0 C0.99 0.66 1.98 1.32 3 2 C3.57119411 5.10076802 3.24398966 6.57011346 1.6875 9.3125 C-2.59474834 12.00135361 -7.07519437 11.30567759 -12 11 C-12 9.35 -12 7.7 -12 6 C-9.36 6 -6.72 6 -4 6 C-4 5.34 -4 4.68 -4 4 C-4.99 3.67 -5.98 3.34 -7 3 C-5.68 2.67 -4.36 2.34 -3 2 C-2.4375 3.9375 -2.4375 3.9375 -2 6 C-2.33 6.33 -2.66 6.66 -3 7 C-2.01 7.33 -1.02 7.66 0 8 C0 5.36 0 2.72 0 0 Z " fill="#E0EBF8" transform="translate(12,28)"/>
<path d="M0 0 C0.33 0 0.66 0 1 0 C1 10.89 1 21.78 1 33 C-0.32 33 -1.64 33 -3 33 C-3 28.05 -3 23.1 -3 18 C-2.01 18.33 -1.02 18.66 0 19 C0 12.73 0 6.46 0 0 Z " fill="#6883C3" transform="translate(144,9)"/>
<path d="M0 0 C0.66 0 1.32 0 2 0 C2 10.56 2 21.12 2 32 C0.68 31.34 -0.64 30.68 -2 30 C-2 28.35 -2 26.7 -2 25 C-1.34 25 -0.68 25 0 25 C0 16.75 0 8.5 0 0 Z " fill="#3563C2" transform="translate(62,10)"/>
<path d="M0 0 C0.99 0.33 1.98 0.66 3 1 C3.05410687 2.77049689 3.09284119 4.54146849 3.125 6.3125 C3.14820313 7.29863281 3.17140625 8.28476562 3.1953125 9.30078125 C3 12 3 12 1 15 C-2.24271506 14.4409112 -3.93057424 13.5867822 -6 11 C-6 10.34 -6 9.68 -6 9 C-6.66 9 -7.32 9 -8 9 C-8 11.64 -8 14.28 -8 17 C-8.66 17 -9.32 17 -10 17 C-9.67 11.72 -9.34 6.44 -9 1 C-8.34 1 -7.68 1 -7 1 C-6.72285156 1.62648438 -6.44570313 2.25296875 -6.16015625 2.8984375 C-5.79792969 3.71570313 -5.43570312 4.53296875 -5.0625 5.375 C-4.70285156 6.18710937 -4.34320313 6.99921875 -3.97265625 7.8359375 C-3.3430097 9.23683785 -2.68687358 10.62625284 -2 12 C-1.01 12.33 -0.02 12.66 1 13 C0.67 8.71 0.34 4.42 0 0 Z " fill="#FDCB28" transform="translate(284,23)"/>
<path d="M0 0 C0.66 0 1.32 0 2 0 C2.66 3.3 3.32 6.6 4 10 C4.99 10.33 5.98 10.66 7 11 C6.67 11.66 6.34 12.32 6 13 C6.66 13.33 7.32 13.66 8 14 C6.68 14 5.36 14 4 14 C4 13.34 4 12.68 4 12 C1.69 11.67 -0.62 11.34 -3 11 C-4 8 -4 8 -3.22265625 5.95703125 C-2.83980469 5.24933594 -2.45695312 4.54164062 -2.0625 3.8125 C-1.68222656 3.09707031 -1.30195313 2.38164062 -0.91015625 1.64453125 C-0.60980469 1.10183594 -0.30945313 0.55914063 0 0 Z " fill="#FEC719" transform="translate(325,22)"/>
<path d="M0 0 C0.99 0 1.98 0 3 0 C3 7.59 3 15.18 3 23 C2.01 23.33 1.02 23.66 0 24 C0 16.08 0 8.16 0 0 Z " fill="#3861B7" transform="translate(23,9)"/>
<path d="M0 0 C0.33 0 0.66 0 1 0 C1.28279817 17.37637615 1.28279817 17.37637615 -4 23 C-5.32 22.67 -6.64 22.34 -8 22 C-8.33 20.35 -8.66 18.7 -9 17 C-9.66 17 -10.32 17 -11 17 C-10.67 14.36 -10.34 11.72 -10 9 C-9.34 9 -8.68 9 -8 9 C-7.96261719 9.61488281 -7.92523438 10.22976562 -7.88671875 10.86328125 C-7.82097656 11.67152344 -7.75523437 12.47976562 -7.6875 13.3125 C-7.62949219 14.11300781 -7.57148438 14.91351563 -7.51171875 15.73828125 C-6.91793306 18.36272334 -6.04219706 19.30820672 -4 21 C-2.1150587 13.99370876 -0.60299164 7.23589973 0 0 Z " fill="#FEC91E" transform="translate(205,19)"/>
<path d="M0 0 C0.66 0 1.32 0 2 0 C2 6.27 2 12.54 2 19 C1.34 19 0.68 19 0 19 C0 18.34 0 17.68 0 17 C-3.96 17 -7.92 17 -12 17 C-12 16.34 -12 15.68 -12 15 C-8.04 15 -4.08 15 0 15 C0 10.05 0 5.1 0 0 Z " fill="#3461C1" transform="translate(142,9)"/>
<path d="M0 0 C0.33 0.66 0.66 1.32 1 2 C2.32 2 3.64 2 5 2 C5 2.99 5 3.98 5 5 C4.01 5 3.02 5 2 5 C2 12.59 2 20.18 2 28 C1.67 28 1.34 28 1 28 C1 20.74 1 13.48 1 6 C-3.95 5.67 -8.9 5.34 -14 5 C-14 4.67 -14 4.34 -14 4 C-9.71 4 -5.42 4 -1 4 C-0.67 2.68 -0.34 1.36 0 0 Z " fill="#D6E6FB" transform="translate(21,4)"/>
<path d="M0 0 C0.33 0 0.66 0 1 0 C1 2.31 1 4.62 1 7 C1.66 7 2.32 7 3 7 C3 7.66 3 8.32 3 9 C2.34 9 1.68 9 1 9 C1 13.62 1 18.24 1 23 C1.66 23 2.32 23 3 23 C3 19.7 3 16.4 3 13 C3.33 13 3.66 13 4 13 C4.06058594 13.61488281 4.12117188 14.22976562 4.18359375 14.86328125 C4.26738281 15.67152344 4.35117188 16.47976562 4.4375 17.3125 C4.51871094 18.11300781 4.59992188 18.91351562 4.68359375 19.73828125 C4.95265693 22.16087179 4.95265693 22.16087179 6 25 C4.35 25 2.7 25 1 25 C1.20625 25.5775 1.4125 26.155 1.625 26.75 C2 29 2 29 0 33 C0 22.11 0 11.22 0 0 Z " fill="#EDF8FE" transform="translate(99,9)"/>
<path d="M0 0 C3 1 3 1 4.25 3 C6.79615378 5.90989004 9.26873252 5.71839491 13 6 C13 7.33333333 13 8.66666667 13 10 C9.00329808 10.31346682 6.67325099 10.40395059 3.1875 8.3125 C0.93694956 5.93334668 -0.05020109 4.10843279 -1 1 C-0.67 0.67 -0.34 0.34 0 0 Z " fill="#577CCC" transform="translate(24,32)"/>
<path d="M0 0 C1.8871875 0.061875 1.8871875 0.061875 3.8125 0.125 C3.8125 0.455 3.8125 0.785 3.8125 1.125 C3.24660156 1.24617188 2.68070312 1.36734375 2.09765625 1.4921875 C0.99744141 1.74355469 0.99744141 1.74355469 -0.125 2 C-0.85589844 2.16242187 -1.58679688 2.32484375 -2.33984375 2.4921875 C-4.39450294 2.95461523 -4.39450294 2.95461523 -5.1875 5.125 C-3.2075 5.125 -1.2275 5.125 0.8125 5.125 C-2.1875 7.125 -2.1875 7.125 -5.1875 8.125 C-5.1875 9.445 -5.1875 10.765 -5.1875 12.125 C-3.01875748 11.61896008 -1.18782373 11.12516187 0.8125 10.125 C0.125 12.0625 0.125 12.0625 -1.1875 14.125 C-3.75 14.9375 -3.75 14.9375 -6.1875 15.125 C-7.99869819 13.31380181 -7.40268878 10.62718608 -7.4375 8.1875 C-7.46328125 7.10597656 -7.4890625 6.02445313 -7.515625 4.91015625 C-7.35320312 3.53150391 -7.35320312 3.53150391 -7.1875 2.125 C-4.09861478 0.06574319 -3.47814073 -0.1140374 0 0 Z " fill="#FDCA20" transform="translate(296.1875,23.875)"/>
<path d="M0 0 C3.3 0 6.6 0 10 0 C10 0.33 10 0.66 10 1 C7.03 1 4.06 1 1 1 C1 1.66 1 2.32 1 3 C1.99 3 2.98 3 4 3 C4 6.3 4 9.6 4 13 C3.34 13 2.68 13 2 13 C2 12.34 2 11.68 2 11 C1.34 11 0.68 11 0 11 C0 7.37 0 3.74 0 0 Z " fill="#D2E0F0" transform="translate(72,31)"/>
<path d="M0 0 C0.33 0 0.66 0 1 0 C1.31620422 6.79839071 0.12676382 13.30983984 -1 20 C2.33537489 18.88820837 3.63707344 17.52588702 6 15 C4.92598892 17.91517292 4.22189824 19.77810176 2 22 C-0.625 21.625 -0.625 21.625 -3 21 C-2.48462048 13.86606248 -1.55994099 6.98187183 0 0 Z " fill="#FEC924" transform="translate(188,21)"/>
<path d="M0 0 C4.95 0 9.9 0 15 0 C15.33 0.99 15.66 1.98 16 3 C10.72 3 5.44 3 0 3 C0 2.01 0 1.02 0 0 Z " fill="#3E64B3" transform="translate(69,9)"/>
<path d="M0 0 C2.22808159 -0.10853983 4.45769932 -0.18583307 6.6875 -0.25 C7.92886719 -0.29640625 9.17023438 -0.3428125 10.44921875 -0.390625 C14.5554638 0.06110713 16.15539619 1.06293296 19 4 C19 4.66 19 5.32 19 6 C16.36 6 13.72 6 11 6 C11 5.34 11 4.68 11 4 C11.66 4 12.32 4 13 4 C13 3.01 13 2.02 13 1 C6.565 1.495 6.565 1.495 0 2 C0 1.34 0 0.68 0 0 Z " fill="#EAEFF1" transform="translate(69,12)"/>
<path d="M0 0 C2.91918138 5.64375068 2.91207519 8.81815706 2 15 C-0.1519437 11.77208445 -0.20086443 10.71599191 0 7 C-1.98 7.33 -3.96 7.66 -6 8 C-6 9.65 -6 11.3 -6 13 C-5.34 13.33 -4.68 13.66 -4 14 C-4.99 14 -5.98 14 -7 14 C-7 11.69 -7 9.38 -7 7 C-5.02 6.34 -3.04 5.68 -1 5 C-0.67 3.35 -0.34 1.7 0 0 Z " fill="#FEC81C" transform="translate(236,23)"/>
<path d="M0 0 C3.83968859 1.4564336 5.31006462 3.28214217 7 7 C7.1875 10.3125 7.1875 10.3125 7 13 C6.67 11.68 6.34 10.36 6 9 C5.34 9 4.68 9 4 9 C3.67 9.99 3.34 10.98 3 12 C2.731875 10.906875 2.46375 9.81375 2.1875 8.6875 C1.12336261 5.38307337 0.65345336 4.05039578 -2 2 C-1.34 2 -0.68 2 0 2 C0 1.34 0 0.68 0 0 Z " fill="#5179C6" transform="translate(85,10)"/>
<path d="M0 0 C0 0.66 0 1.32 0 2 C-1.32 1.67 -2.64 1.34 -4 1 C-4 1.99 -4 2.98 -4 4 C-5.32 4 -6.64 4 -8 4 C-8 3.34 -8 2.68 -8 2 C-9.95894361 2.11306697 -9.95894361 2.11306697 -12 3 C-13.29660434 5.49034386 -13.29660434 5.49034386 -14 8 C-14.75 6.25 -14.75 6.25 -15 4 C-11.82172365 -1.72089744 -5.6975314 -0.35363988 0 0 Z " fill="#E2ECF5" transform="translate(18,12)"/>
<path d="M0 0 C2.97 0.33 5.94 0.66 9 1 C9 2.32 9 3.64 9 5 C6.03 4.67 3.06 4.34 0 4 C0 2.68 0 1.36 0 0 Z " fill="#587DC3" transform="translate(112,37)"/>
<path d="M0 0 C0.33 0 0.66 0 1 0 C1 5.94 1 11.88 1 18 C-3 13 -3 13 -4 11 C-3.34 11 -2.68 11 -2 11 C-1.34 7.37 -0.68 3.74 0 0 Z " fill="#E6F3FA" transform="translate(60,16)"/>
<path d="M0 0 C0.66 0 1.32 0 2 0 C2 1.98 2 3.96 2 6 C2.66 6 3.32 6 4 6 C4 7.98 4 9.96 4 12 C3.29875 11.195625 2.5975 10.39125 1.875 9.5625 C-1.26291593 6.76566189 -2.88758763 6.28691249 -7 6 C-7 5.67 -7 5.34 -7 5 C-3.535 4.505 -3.535 4.505 0 4 C0 2.68 0 1.36 0 0 Z " fill="#E2E9F1" transform="translate(14,18)"/>
<path d="M0 0 C0.495 0.61875 0.99 1.2375 1.5 1.875 C4.88221437 4.74988222 7.67257085 5.13451417 12 6 C12 6.33 12 6.66 12 7 C9.36 7.66 6.72 8.32 4 9 C4 8.34 4 7.68 4 7 C2.68 7 1.36 7 0 7 C0 4.69 0 2.38 0 0 Z " fill="#E3EFF3" transform="translate(0,21)"/>
<path d="M0 0 C0.66 0.66 1.32 1.32 2 2 C1.625 4.125 1.625 4.125 1 6 C0.24976563 5.52433594 0.24976563 5.52433594 -0.515625 5.0390625 C-3.87241148 3.6351235 -7.16286294 3.53774346 -10.75 3.375 C-11.44738281 3.33632812 -12.14476563 3.29765625 -12.86328125 3.2578125 C-14.57510818 3.16401376 -16.28751682 3.08093826 -18 3 C-18 2.67 -18 2.34 -18 2 C-16.17662109 1.90912109 -16.17662109 1.90912109 -14.31640625 1.81640625 C-12.73175772 1.73201668 -11.14712298 1.6473679 -9.5625 1.5625 C-8.76005859 1.52318359 -7.95761719 1.48386719 -7.13085938 1.44335938 C-3.24760439 1.5945704 -3.24760439 1.5945704 0 0 Z " fill="#D6E6F9" transform="translate(87,6)"/>
<path d="M0 0 C1.65 0.33 3.3 0.66 5 1 C4.67 2.65 4.34 4.3 4 6 C2.35 5.67 0.7 5.34 -1 5 C-0.67 3.35 -0.34 1.7 0 0 Z " fill="#AAB9DC" transform="translate(145,0)"/>
<path d="M0 0 C1.32 0 2.64 0 4 0 C4 1.98 4 3.96 4 6 C4.928125 6.2165625 4.928125 6.2165625 5.875 6.4375 C8 7 8 7 10 8 C10 8.66 10 9.32 10 10 C6.07260319 8.69086773 3.64361016 7.21009805 1 4 C0.25 1.75 0.25 1.75 0 0 Z " fill="#E7F0F5" transform="translate(106,28)"/>
<path d="M0 0 C1.32 0 2.64 0 4 0 C4.33 1.65 4.66 3.3 5 5 C0.545 5.495 0.545 5.495 -4 6 C-4 5.01 -4 4.02 -4 3 C-3.01 3.33 -2.02 3.66 -1 4 C-0.67 2.68 -0.34 1.36 0 0 Z " fill="#A0B2DA" transform="translate(140,46)"/>
<path d="M0 0 C1.32 0 2.64 0 4 0 C4 0.66 4 1.32 4 2 C4.66 2 5.32 2 6 2 C6 3.98 6 5.96 6 8 C5.34 8 4.68 8 4 8 C4 6.68 4 5.36 4 4 C2.68 4 1.36 4 0 4 C0 2.68 0 1.36 0 0 Z " fill="#F9F7EE" transform="translate(6,14)"/>
<path d="M0 0 C0.33 0 0.66 0 1 0 C1.33 3.3 1.66 6.6 2 10 C5.74691447 9.21693046 5.74691447 9.21693046 8 8 C7.3125 9.9375 7.3125 9.9375 6 12 C3.4375 12.8125 3.4375 12.8125 1 13 C0 12 0 12 -0.09765625 9.27734375 C-0.08605469 8.17519531 -0.07445312 7.07304688 -0.0625 5.9375 C-0.05347656 4.83277344 -0.04445313 3.72804688 -0.03515625 2.58984375 C-0.02355469 1.73519531 -0.01195312 0.88054688 0 0 Z " fill="#FEC513" transform="translate(289,26)"/>
<path d="M0 0 C3.73639216 1.24546405 4.18756513 2.63404953 6 6 C5.01 6.66 4.02 7.32 3 8 C0.9375 5.6875 0.9375 5.6875 -1 3 C-0.67 2.01 -0.34 1.02 0 0 Z " fill="#4B6DC0" transform="translate(24,32)"/>
<path d="M0 0 C0.33 0 0.66 0 1 0 C1 1.65 1 3.3 1 5 C1.61875 5.103125 2.2375 5.20625 2.875 5.3125 C5 6 5 6 7 9 C6.67 9.66 6.34 10.32 6 11 C2.83884224 9.63016497 2.0072908 9.0109362 0 6 C-0.125 2.8125 -0.125 2.8125 0 0 Z " fill="#4E6FC1" transform="translate(0,15)"/>
<path d="M0 0 C2.97 0 5.94 0 9 0 C8.67 1.65 8.34 3.3 8 5 C6.35 4.67 4.7 4.34 3 4 C3 3.01 3 2.02 3 1 C2.34 1 1.68 1 1 1 C0.67 1.66 0.34 2.32 0 3 C0 2.01 0 1.02 0 0 Z " fill="#6D86B7" transform="translate(131,46)"/>
<path d="M0 0 C2.97 1.65 5.94 3.3 9 5 C9 5.33 9 5.66 9 6 C7.35 6 5.7 6 4 6 C4 5.34 4 4.68 4 4 C3.34 4 2.68 4 2 4 C1.34 5.32 0.68 6.64 0 8 C-1.08174162 4.63458162 -0.92538169 3.70152678 0 0 Z " fill="#E6EFFA" transform="translate(106,36)"/>
<path d="M0 0 C0.66 0.33 1.32 0.66 2 1 C2 2.98 2 4.96 2 7 C0.35 7 -1.3 7 -3 7 C-1.125 1.125 -1.125 1.125 0 0 Z " fill="#F8F2DC" transform="translate(325,26)"/>
<path d="M0 0 C0.66 0 1.32 0 2 0 C2.99 2.31 3.98 4.62 5 7 C4.01 7.495 4.01 7.495 3 8 C3 7.01 3 6.02 3 5 C2.34 5 1.68 5 1 5 C1 5.66 1 6.32 1 7 C0.34 7 -0.32 7 -1 7 C-0.67 4.69 -0.34 2.38 0 0 Z " fill="#E4EFF8" transform="translate(83,35)"/>
<path d="M0 0 C0.99 0.33 1.98 0.66 3 1 C3.05391993 2.79133978 3.09275571 4.58313899 3.125 6.375 C3.14820313 7.37273438 3.17140625 8.37046875 3.1953125 9.3984375 C3 12 3 12 1 14 C0.67 9.38 0.34 4.76 0 0 Z " fill="#FDCC2F" transform="translate(284,23)"/>
<path d="M0 0 C0.33 0.66 0.66 1.32 1 2 C2.65 2 4.3 2 6 2 C6 2.33 6 2.66 6 3 C4.88625 3.309375 3.7725 3.61875 2.625 3.9375 C-0.7945155 4.82326483 -0.7945155 4.82326483 -3 6 C-3 5.34 -3 4.68 -3 4 C-4.32 3.67 -5.64 3.34 -7 3 C-5.5459375 2.5359375 -5.5459375 2.5359375 -4.0625 2.0625 C-1.15934208 1.30476658 -1.15934208 1.30476658 0 0 Z " fill="#FEC612" transform="translate(321,31)"/>
<path d="M0 0 C0.66 0 1.32 0 2 0 C2 1.32 2 2.64 2 4 C2.99 4.33 3.98 4.66 5 5 C3.02 5.99 1.04 6.98 -1 8 C-1 7.34 -1 6.68 -1 6 C-0.34 6 0.32 6 1 6 C1 5.34 1 4.68 1 4 C0.34 4 -0.32 4 -1 4 C-0.67 2.68 -0.34 1.36 0 0 Z " fill="#E3F1F7" transform="translate(107,6)"/>
<path d="M0 0 C0.66 0 1.32 0 2 0 C2 0.99 2 1.98 2 3 C4.31 3.33 6.62 3.66 9 4 C9 4.33 9 4.66 9 5 C6.03 5 3.06 5 0 5 C-0.33 3.68 -0.66 2.36 -1 1 C-0.67 0.67 -0.34 0.34 0 0 Z " fill="#E8F1FC" transform="translate(125,47)"/>
<path d="M0 0 C3.875 3.75 3.875 3.75 5 6 C5.99 6.33 6.98 6.66 8 7 C8 7.66 8 8.32 8 9 C4.74488211 8.43877278 3.00159929 7.66879905 1 5 C0.3125 2.3125 0.3125 2.3125 0 0 Z " fill="#FEC616" transform="translate(277,29)"/>
<path d="M0 0 C0.33 0.99 0.66 1.98 1 3 C1.99 3.33 2.98 3.66 4 4 C3.67 4.66 3.34 5.32 3 6 C3.66 6.33 4.32 6.66 5 7 C3.68 7 2.36 7 1 7 C1 6.34 1 5.68 1 5 C0.34 5 -0.32 5 -1 5 C-0.67 3.35 -0.34 1.7 0 0 Z " fill="#FDCE37" transform="translate(328,29)"/>
<path d="M0 0 C0.33 0 0.66 0 1 0 C1.06058594 0.61488281 1.12117188 1.22976562 1.18359375 1.86328125 C1.26738281 2.67152344 1.35117188 3.47976562 1.4375 4.3125 C1.51871094 5.11300781 1.59992188 5.91351563 1.68359375 6.73828125 C1.95265693 9.16087179 1.95265693 9.16087179 3 12 C1.35 12 -0.3 12 -2 12 C-2 11.34 -2 10.68 -2 10 C-1.34 10 -0.68 10 0 10 C0 6.7 0 3.4 0 0 Z " fill="#D7DDFB" transform="translate(102,22)"/>
<path d="M0 0 C0.66 0 1.32 0 2 0 C2 0.66 2 1.32 2 2 C4.97 2 7.94 2 11 2 C4.75 5.125 4.75 5.125 1 4 C0.67 2.68 0.34 1.36 0 0 Z " fill="#EBF1FD" transform="translate(88,6)"/>
<path d="M0 0 C0 0.66 0 1.32 0 2 C-2.95664519 3.4783226 -5.74229737 3.06032783 -9 3 C-9 2.34 -9 1.68 -9 1 C-5.94152152 0.45627049 -3.11227195 0 0 0 Z " fill="#E9F2FC" transform="translate(14,41)"/>
<path d="M0 0 C0.33 0 0.66 0 1 0 C1.04898437 0.75925781 1.09796875 1.51851562 1.1484375 2.30078125 C1.22320312 3.29464844 1.29796875 4.28851563 1.375 5.3125 C1.44460938 6.29863281 1.51421875 7.28476562 1.5859375 8.30078125 C1.83865472 11.21528433 1.83865472 11.21528433 4 14 C2.68 13.67 1.36 13.34 0 13 C0 8.71 0 4.42 0 0 Z " fill="#FEC616" transform="translate(263,29)"/>
<path d="M0 0 C0.99 0 1.98 0 3 0 C2.67 1.65 2.34 3.3 2 5 C0.68 5 -0.64 5 -2 5 C-1.34 3.35 -0.68 1.7 0 0 Z " fill="#4C71C0" transform="translate(105,16)"/>
<path d="M0 0 C1.98 0.495 1.98 0.495 4 1 C3.67 1.99 3.34 2.98 3 4 C3.33 4.99 3.66 5.98 4 7 C2.35 6.67 0.7 6.34 -1 6 C-1 5.34 -1 4.68 -1 4 C-0.34 4 0.32 4 1 4 C0.67 2.68 0.34 1.36 0 0 Z " fill="#5371C7" transform="translate(84,28)"/>
<path d="M0 0 C1.32 0 2.64 0 4 0 C2.95125002 2.62187494 2.35068687 3.79371361 -0.125 5.25 C-0.74375 5.4975 -1.3625 5.745 -2 6 C-2 5.34 -2 4.68 -2 4 C-1.34 4 -0.68 4 0 4 C0 2.68 0 1.36 0 0 Z " fill="#E4F0F0" transform="translate(84,22)"/>
<path d="M0 0 C1.875 0.25 1.875 0.25 4 1 C5.25 3.0625 5.25 3.0625 6 5 C4.35 4.67 2.7 4.34 1 4 C0.67 2.68 0.34 1.36 0 0 Z " fill="#4769B7" transform="translate(42,9)"/>
<path d="M0 0 C0 0.99 0 1.98 0 3 C-2.375 3.625 -2.375 3.625 -5 4 C-5.66 3.34 -6.32 2.68 -7 2 C-4.35261084 0.5393715 -3.10551666 0 0 0 Z " fill="#4364B5" transform="translate(41,37)"/>
<path d="M0 0 C0.33 0 0.66 0 1 0 C1 3.63 1 7.26 1 11 C0.67 11 0.34 11 0 11 C-0.2165625 9.6078125 -0.2165625 9.6078125 -0.4375 8.1875 C-0.92100111 4.99274889 -0.92100111 4.99274889 -2 2 C-1.34 1.34 -0.68 0.68 0 0 Z " fill="#F9F3DD" transform="translate(288,26)"/>
<path d="M0 0 C0.99 0 1.98 0 3 0 C2.34 2.97 1.68 5.94 1 9 C0.67 9 0.34 9 0 9 C0 6.03 0 3.06 0 0 Z " fill="#3B61B4" transform="translate(103,21)"/>
</svg>
