<?xml version="1.0" encoding="UTF-8"?>
<svg version="1.1" xmlns="http://www.w3.org/2000/svg" width="426" height="227">
<path d="M0 0 C140.58 0 281.16 0 426 0 C426 74.91 426 149.82 426 227 C285.42 227 144.84 227 0 227 C0 152.09 0 77.18 0 0 Z " fill="#FEFEFD" transform="translate(0,0)"/>
<path d="M0 0 C4.06939244 5.72769037 3.95878722 11.20071319 3 18 C1.42936122 22.17822384 -0.7407306 25.80052397 -3.125 29.5625 C-4.33650467 31.58221326 -5.5461672 33.60303274 -6.75390625 35.625 C-7.61459717 37.03845703 -7.61459717 37.03845703 -8.49267578 38.48046875 C-10.16606431 41.27758077 -11.65651197 44.12231834 -13.0625 47.0625 C-19.42932472 60.19887029 -26.7761864 72.88657341 -33.9831543 85.57617188 C-36.14934518 89.41436183 -38.18192028 93.29225341 -40.125 97.25 C-49.12133401 115.46633378 -49.12133401 115.46633378 -56 120 C-60.77433282 121.59144427 -65.62464755 121.22610345 -70.625 121.25 C-72.20861328 121.2809375 -72.20861328 121.2809375 -73.82421875 121.3125 C-81.26009051 121.34935686 -88.21287239 120.93974966 -94.26953125 116.23828125 C-94.77871094 115.60277344 -95.28789062 114.96726562 -95.8125 114.3125 C-96.64974609 113.26835937 -96.64974609 113.26835937 -97.50390625 112.203125 C-98.96702372 110.04856037 -100.13054005 107.91125371 -101.25 105.5625 C-101.8275 104.386875 -102.405 103.21125 -103 102 C-104.485 101.505 -104.485 101.505 -106 101 C-106.27328125 101.72058594 -106.5465625 102.44117188 -106.828125 103.18359375 C-109.71775968 110.12834909 -113.02183955 116.58515553 -120 120 C-125.60261376 121.38295697 -131.19949985 121.2224961 -136.9375 121.25 C-138.5452832 121.2809375 -138.5452832 121.2809375 -140.18554688 121.3125 C-150.37239587 121.36296117 -150.37239587 121.36296117 -155 118 C-159.25893322 113.58429623 -162.24577759 108.5748493 -165.25 103.25 C-165.69601563 102.50234375 -166.14203125 101.7546875 -166.6015625 100.984375 C-169.72539336 95.456141 -171.16614465 90.38958818 -171 84 C-169.07537925 77.47767414 -165.58702173 73.72468116 -160 70 C-153.62495292 69.09301656 -147.67397017 68.84716509 -142.3125 72.75 C-140.27874133 74.47455767 -139.13020335 75.72662285 -137.98046875 78.140625 C-137.0865294 80.35541399 -137.0865294 80.35541399 -134 81 C-133.62488281 79.73349609 -133.62488281 79.73349609 -133.2421875 78.44140625 C-131.89115101 74.69844038 -130.12069961 71.36134897 -128.125 67.9375 C-127.78597656 67.33873047 -127.44695312 66.73996094 -127.09765625 66.12304688 C-122.64235326 58.38979282 -118.53568219 53.86864491 -110 51 C-102.94414782 49.85307995 -96.98616431 50.48124766 -90.9453125 54.421875 C-82.80755708 61.02358823 -78.67570092 71.85640709 -74 81 C-69.77840427 79.59280142 -68.92518358 76.64330485 -67.015625 72.88671875 C-66.63694275 72.16192825 -66.2582605 71.43713776 -65.86810303 70.69038391 C-64.65288629 68.36072961 -63.45091043 66.02455644 -62.25 63.6875 C-60.6761941 60.64748514 -59.09694532 57.61033068 -57.515625 54.57421875 C-57.13131821 53.8343573 -56.74701141 53.09449585 -56.35105896 52.33221436 C-53.55939759 46.98740494 -50.61166595 41.77070867 -47.50512695 36.60131836 C-45.85425067 33.7481007 -44.38576395 30.83562571 -42.9375 27.875 C-40.68515059 23.27471075 -38.19980515 18.92903738 -35.49609375 14.58203125 C-33.82164525 11.69218671 -32.45873484 8.72069982 -31.0625 5.6875 C-28.04887051 -0.45020612 -25.12049542 -3.5208478 -18.5625 -5.875 C-11.22589979 -6.23288294 -5.5912421 -4.90938331 0 0 Z " fill="#EF7A20" transform="translate(380,35)"/>
<path d="M0 0 C1.01076347 -0.00503792 1.01076347 -0.00503792 2.04194641 -0.01017761 C4.25853341 -0.01963821 6.47504449 -0.02162813 8.69165039 -0.02270508 C10.23954804 -0.02592063 11.78744539 -0.02928493 13.33534241 -0.03279114 C16.57578231 -0.03876986 19.81619559 -0.04063229 23.05664062 -0.04003906 C27.2003241 -0.03993741 31.34383632 -0.05359796 35.48747921 -0.07081127 C38.68315916 -0.08195091 41.87879794 -0.08395768 45.07449532 -0.08342934 C46.60184889 -0.08460617 48.12920364 -0.08901123 49.65653801 -0.0967617 C51.79588578 -0.10660314 53.93486453 -0.1036676 56.07421875 -0.09765625 C57.89692543 -0.09979378 57.89692543 -0.09979378 59.75645447 -0.10197449 C66.48642524 0.39540382 70.32136912 2.69076507 75.10180664 7.14526367 C78.78942189 12.67668654 78.25450248 18.96927839 78.26293945 25.40429688 C78.27038681 26.77380997 78.27038681 26.77380997 78.27798462 28.17098999 C78.29254148 31.17934941 78.29939711 34.18765612 78.30493164 37.19604492 C78.31068803 39.29583232 78.31644569 41.39561971 78.32220459 43.4954071 C78.33269588 47.89423873 78.33855092 52.29305217 78.34204102 56.69189453 C78.3475245 62.31389196 78.37155752 67.93564707 78.40001297 73.55756855 C78.41868329 77.89428906 78.42384727 82.23095167 78.42537689 86.56770897 C78.42839356 88.63964349 78.43638858 90.71157723 78.44956207 92.78347206 C78.46671598 95.68851544 78.46471964 98.59297268 78.45825195 101.49804688 C78.46746674 102.34458328 78.47668152 103.19111969 78.48617554 104.06330872 C78.44396678 110.14961238 77.86547293 117.04221006 73.64982986 121.77554798 C68.42788827 126.21669806 64.76172674 126.49855219 58.08618164 126.41870117 C54.02426891 126.04653639 52.01720068 124.98777286 49.10180664 122.14526367 C45.74198735 117.10371335 44.60270396 113.91368838 44.60351562 107.72875977 C44.59799683 107.02375839 44.59247803 106.31875702 44.58679199 105.59239197 C44.57752537 104.07451526 44.57732238 102.55656079 44.58538628 101.03867722 C44.59808575 98.6335979 44.58666576 96.22965449 44.5693512 93.82461548 C44.54272813 89.58835061 44.5370528 85.35236731 44.53845215 81.11602783 C44.54068625 74.32931311 44.52652349 67.54294549 44.48286629 60.75636673 C44.47304678 58.39145773 44.48173286 56.0270984 44.49156189 53.66220093 C44.48541694 52.20912315 44.47850495 50.75604834 44.47070312 49.30297852 C44.47166489 48.03835785 44.47262665 46.77373718 44.47361755 45.47079468 C43.96717275 40.94107849 42.46062278 38.3269833 39.046875 35.3581543 C34.70381208 33.5695166 30.63409042 33.72405241 25.98071289 33.73901367 C25.00319565 33.72817749 24.02567841 33.71734131 23.01853943 33.70617676 C19.90039427 33.67196184 16.78261471 33.65633259 13.66430664 33.64526367 C9.56109156 33.6306739 5.45868955 33.59695239 1.35571289 33.55151367 C0.41804581 33.55453491 -0.51962128 33.55755615 -1.48570251 33.56066895 C-7.63388539 33.49037399 -11.78389101 32.50341854 -16.79663086 28.70776367 C-20.16931642 25.13878424 -21.31915953 22.53644764 -21.46069336 17.58276367 C-21.08660363 11.50588384 -19.55912561 7.45952678 -15.02319336 3.33276367 C-10.15130437 -0.07755862 -5.8453227 0.01834836 0 0 Z " fill="#91295C" transform="translate(69.898193359375,28.854736328125)"/>
<path d="M0 0 C1.01076347 -0.00503792 1.01076347 -0.00503792 2.04194641 -0.01017761 C4.25853341 -0.01963821 6.47504449 -0.02162813 8.69165039 -0.02270508 C10.23954804 -0.02592063 11.78744539 -0.02928493 13.33534241 -0.03279114 C16.57578231 -0.03876986 19.81619559 -0.04063229 23.05664062 -0.04003906 C27.2003241 -0.03993741 31.34383632 -0.05359796 35.48747921 -0.07081127 C38.68315916 -0.08195091 41.87879794 -0.08395768 45.07449532 -0.08342934 C46.60184889 -0.08460617 48.12920364 -0.08901123 49.65653801 -0.0967617 C51.79588578 -0.10660314 53.93486453 -0.1036676 56.07421875 -0.09765625 C57.89692543 -0.09979378 57.89692543 -0.09979378 59.75645447 -0.10197449 C66.32037935 0.3831322 70.40716708 2.55732047 75.10180664 7.14526367 C77.72498587 11.43773878 77.64700465 16.25578949 77.10180664 21.14526367 C75.27646073 26.4184852 72.49461461 28.94217453 68.10180664 32.14526367 C64.61118942 33.30880275 61.85528798 33.28657448 58.17114258 33.30639648 C57.11933556 33.31384384 57.11933556 33.31384384 56.04627991 33.32144165 C53.72623715 33.33604676 51.40626282 33.34286338 49.08618164 33.34838867 C47.4705607 33.35414259 45.85493977 33.35990029 44.23931885 33.36566162 C40.84989097 33.37616768 37.46048679 33.38201256 34.07104492 33.38549805 C29.7390065 33.39097432 25.40728372 33.41498528 21.07534409 33.44347 C17.73635969 33.46214543 14.39745048 33.46730464 11.05841827 33.46883392 C9.46210255 33.47185119 7.86578786 33.47984833 6.26952362 33.4930191 C4.02945874 33.51017874 1.79015375 33.5081754 -0.44995117 33.50170898 C-1.72219543 33.50535461 -2.9944397 33.50900024 -4.30523682 33.51275635 C-8.9943316 33.0331491 -13.02596543 31.79500711 -16.64038086 28.61010742 C-21.08419903 22.61861464 -21.65464006 18.57314999 -20.89819336 11.14526367 C-18.72674573 6.72194442 -16.00807038 3.85176805 -11.89819336 1.14526367 C-7.91801264 0.0803383 -4.10685938 0.01289136 0 0 Z " fill="#BD2540" transform="translate(174.898193359375,28.854736328125)"/>
<path d="M0 0 C0.87078186 -0.00570007 1.74156372 -0.01140015 2.63873291 -0.01727295 C4.48472883 -0.02672943 6.33074168 -0.0332595 8.17675781 -0.03710938 C10.99053802 -0.0467887 13.80357963 -0.07779469 16.6171875 -0.109375 C18.411454 -0.11590777 20.20572572 -0.12115716 22 -0.125 C22.83770935 -0.1373468 23.6754187 -0.1496936 24.53851318 -0.16241455 C30.22086034 -0.14093474 34.58654897 0.7022298 38.91015625 4.73828125 C43.28886719 10.46428786 44.00699196 14.04732215 43.265625 21.203125 C41.64810132 26.58113366 38.1969105 29.34323337 33.51782227 32.15765381 C29.7815757 33.89202149 26.29949145 33.91948718 22.234375 33.8671875 C21.39902222 33.87197113 20.56366943 33.87675476 19.70300293 33.88168335 C17.94830425 33.88506455 16.19354103 33.87598755 14.43896484 33.85498047 C11.77166672 33.82818569 9.1085754 33.85478543 6.44140625 33.88671875 C4.72655333 33.88341433 3.01170299 33.87700743 1.296875 33.8671875 C0.11683899 33.88236923 0.11683899 33.88236923 -1.08703613 33.89785767 C-7.07859575 33.77268024 -11.05001921 31.90993912 -15.734375 28.203125 C-19.24212039 24.51999234 -20.019735 21.65325989 -20.234375 16.703125 C-20.04086193 11.78522398 -19.10443411 8.93751483 -15.734375 5.203125 C-10.37092962 0.47818502 -7.00104901 0.0351778 0 0 Z " fill="#D32330" transform="translate(173.734375,75.796875)"/>
<path d="M0 0 C0.99 0.33 1.98 0.66 3 1 C2.67773438 1.54914062 2.35546875 2.09828125 2.0234375 2.6640625 C0.15158945 6.9364485 0.45713743 11.4320101 1 16 C2.99087283 19.98174566 5.16074436 22.72044197 9 25 C12.55322431 26.17289758 15.97086008 26.14405166 19.69287109 26.17358398 C20.35681381 26.180271 21.02075653 26.18695801 21.70481873 26.19384766 C23.14254321 26.20786356 24.58028949 26.21976853 26.01804733 26.22979546 C28.296831 26.2462628 30.57545354 26.26950298 32.85415649 26.29469299 C39.33172519 26.36530913 45.80935923 26.42552519 52.28710938 26.47680664 C56.25349671 26.50868109 60.21969695 26.54997593 64.18593216 26.59700203 C65.69370776 26.61296898 67.20152638 26.62531493 68.70936203 26.63390923 C70.82254685 26.64612785 72.93529546 26.67030375 75.04833984 26.69702148 C76.24872894 26.70732895 77.44911804 26.71763641 78.68588257 26.72825623 C82.08097411 27.00663954 84.82846898 27.78719601 88 29 C87.67 30.65 87.34 32.3 87 34 C85.35 34 83.7 34 82 34 C81.67 33.01 81.34 32.02 81 31 C81.33 30.34 81.66 29.68 82 29 C72.1 29.33 62.2 29.66 52 30 C52 30.66 52 31.32 52 32 C35.17 32.99 35.17 32.99 18 34 C25.52250456 34 31.99427186 33.90600475 39.2890625 33.16796875 C51.16305262 32.43226043 51.16305262 32.43226043 54.8125 35.546875 C55.4003125 36.26617187 55.4003125 36.26617187 56 37 C53.03 37.495 53.03 37.495 50 38 C51.97166753 40.30505045 51.97166753 40.30505045 55.5 40.9375 C59 42 59 42 61 45 C60.67 45.99 60.34 46.98 60 48 C59.443125 47.38125 58.88625 46.7625 58.3125 46.125 C53.38498891 41.59701684 48.33561015 41.68111815 41.97265625 41.6640625 C41.10611923 41.6574057 40.23958221 41.6507489 39.3467865 41.64389038 C37.51872879 41.63379022 35.69063441 41.62907254 33.86254883 41.62939453 C31.07506293 41.62501972 28.28915938 41.58866895 25.50195312 41.55078125 C23.72135955 41.54491274 21.9407585 41.54094357 20.16015625 41.5390625 C19.33185806 41.52469147 18.50355988 41.51032043 17.65016174 41.49551392 C12.28253078 41.5376292 9.27067804 42.46103282 5 46 C0.35928626 51.14241252 0.23611368 56.3652056 0 63 C-0.66 63 -1.32 63 -2 63 C-2.33 61.35 -2.66 59.7 -3 58 C-3.66 58 -4.32 58 -5 58 C-5 59.98 -5 61.96 -5 64 C-5.33 64 -5.66 64 -6 64 C-6.33 44.2 -6.66 24.4 -7 4 C-5.35 4 -3.7 4 -2 4 C-1.34 2.68 -0.68 1.36 0 0 Z " fill="#FBF9FA" transform="translate(154,35)"/>
<path d="M0 0 C1.98 0 3.96 0 6 0 C6 12.54 6 25.08 6 38 C4.02 38 2.04 38 0 38 C0 37.34 0 36.68 0 36 C-0.495 36.33 -0.99 36.66 -1.5 37 C-5.02149449 38.4085978 -8.29406906 38.57838228 -12 38 C-16.3604287 35.77864953 -19.20212362 33.59457298 -21 29 C-21.54531175 24.41029273 -21.53724757 20.40281311 -19.875 16.0625 C-16.92457816 12.81703598 -14.10194552 11.19462458 -9.6796875 10.78515625 C-3.60546875 10.69726562 -3.60546875 10.69726562 -1 12 C-0.67 8.04 -0.34 4.08 0 0 Z " fill="#0C0C0E" transform="translate(281,162)"/>
<path d="M0 0 C1.98 0 3.96 0 6 0 C6 9.24 6 18.48 6 28 C4.02 28 2.04 28 0 28 C0 27.34 0 26.68 0 26 C-0.495 26.33 -0.99 26.66 -1.5 27 C-5.02840413 28.41136165 -8.28751114 28.55902342 -12 28 C-16.82860885 25.7714113 -19.27348886 22.91979576 -21.35546875 18.14453125 C-22.47171702 14.43046881 -22.5615649 11.58660797 -21 8 C-18.14630744 4.11396388 -15.15529119 1.37647008 -10.31640625 0.53125 C-6.92094155 0.49182516 -4.0664075 0.46679625 -1 2 C-0.67 1.34 -0.34 0.68 0 0 Z " fill="#07090A" transform="translate(181,172)"/>
<path d="M0 0 C1.32 0 2.64 0 4 0 C5.65 0 7.3 0 9 0 C9 8.91 9 17.82 9 27 C7.35 27 5.7 27 4 27 C4 26.34 4 25.68 4 25 C3.505 25.33 3.01 25.66 2.5 26 C-1.01653652 27.40661461 -4.29880786 27.59190549 -8 27 C-11.4572499 25.10829722 -14.46519213 23.0261049 -17 20 C-18.39269024 15.22982744 -18.7302668 10.53464626 -16.375 6.0625 C-11.50373367 -0.21886974 -7.47316445 -0.36095785 0 0 Z " fill="#0B0B0D" transform="translate(345,173)"/>
<path d="M0 0 C1.98 0 3.96 0 6 0 C6.33 0.33 6.66 0.66 7 1 C8.97790232 0.96703496 10.95579963 0.93345028 12.93359375 0.89453125 C15.55308809 1.02822945 17.58432335 2.03372934 20 3 C20.99 2.34 21.98 1.68 23 1 C28.35002483 0.56854638 31.64735364 0.54348671 36 4 C38.16926659 7.25389988 38.24080049 8.13395957 38.1953125 11.88671875 C38.18886719 12.82451172 38.18242187 13.76230469 38.17578125 14.72851562 C38.15902344 15.70498047 38.14226562 16.68144531 38.125 17.6875 C38.11597656 18.67556641 38.10695312 19.66363281 38.09765625 20.68164062 C38.0740843 23.12133765 38.04118022 25.56054697 38 28 C36.35 28 34.7 28 33 28 C32.94392578 26.10314453 32.94392578 26.10314453 32.88671875 24.16796875 C32.82106167 22.5077827 32.75461424 20.84762778 32.6875 19.1875 C32.65366211 17.93743164 32.65366211 17.93743164 32.61914062 16.66210938 C32.58369141 15.85966797 32.54824219 15.05722656 32.51171875 14.23046875 C32.48553467 13.49207764 32.45935059 12.75368652 32.43237305 11.99291992 C31.88690763 9.47872783 31.0449496 8.52858835 29 7 C25.68181015 7.24205349 25.68181015 7.24205349 23 9 C22.84379445 10.41327947 22.74943827 11.8335459 22.68359375 13.25390625 C22.64169922 14.10791016 22.59980469 14.96191406 22.55664062 15.84179688 C22.51732422 16.73962891 22.47800781 17.63746094 22.4375 18.5625 C22.39431641 19.46419922 22.35113281 20.36589844 22.30664062 21.29492188 C22.20021858 23.52978485 22.09820012 25.76476308 22 28 C20.02 28 18.04 28 16 28 C15.67 21.4 15.34 14.8 15 8 C12.03 7.505 12.03 7.505 9 7 C6.6031335 9.3968665 6.71718867 10.07028314 6.5859375 13.3515625 C6.52792969 14.62773437 6.52792969 14.62773437 6.46875 15.9296875 C6.4378125 16.81914062 6.406875 17.70859375 6.375 18.625 C6.31699219 19.97078125 6.31699219 19.97078125 6.2578125 21.34375 C6.16340643 23.5622927 6.07783252 25.78082403 6 28 C4.02 28 2.04 28 0 28 C0 18.76 0 9.52 0 0 Z " fill="#111314" transform="translate(189,172)"/>
<path d="M0 0 C0.66 0 1.32 0 2 0 C2 0.66 2 1.32 2 2 C1.34 2.33 0.68 2.66 0 3 C0 4.65 0 6.3 0 8 C-0.66 8 -1.32 8 -2 8 C-2 8.99 -2 9.98 -2 11 C-2.66 11.33 -3.32 11.66 -4 12 C-3.505 12.99 -3.505 12.99 -3 14 C-3.66 14.66 -4.32 15.32 -5 16 C-5.05266164 18.30976545 -5.05266164 18.30976545 -4.8125 20.875 C-4.73653012 25.65419579 -4.73653012 25.65419579 -7 28.625 C-11.00798592 30.46199355 -13.60471263 30.28356693 -18 30 C-18.99 30 -19.98 30 -21 30 C-21.99 29.34 -22.98 28.68 -24 28 C-24.40843923 25.28796348 -24.13336867 22.7562858 -24 20 C-24.928125 20 -25.85625 20 -26.8125 20 C-33 20 -33 20 -35.375 19.9375 C-38.0312432 20.00074389 -40.41468487 20.40907083 -43 21 C-44.19595537 23.8371515 -44.19595537 23.8371515 -45 27 C-44.34 27.99 -43.68 28.98 -43 30 C-43.99 30.33 -44.98 30.66 -46 31 C-45.34 31.66 -44.68 32.32 -44 33 C-43.73181873 36.05550794 -43.685155 39.08595644 -43.63671875 42.15234375 C-43.28799665 45.22633331 -43.28799665 45.22633331 -40.45703125 46.75390625 C-39.24080078 47.37072266 -39.24080078 47.37072266 -38 48 C-38 48.66 -38 49.32 -38 50 C-37.34 50 -36.68 50 -36 50 C-36 50.99 -36 51.98 -36 53 C-35.34 53.33 -34.68 53.66 -34 54 C-33.3125 56 -33.3125 56 -33 58 C-33.33 58.33 -33.66 58.66 -34 59 C-32.68 60.32 -31.36 61.64 -30 63 C-33.62999454 62.79257174 -34.82369181 62.18833587 -37.34765625 59.4921875 C-40.40355706 55.65534059 -42.843912 51.51468292 -45.25 47.25 C-45.69601563 46.50234375 -46.14203125 45.7546875 -46.6015625 44.984375 C-49.72539336 39.456141 -51.16614465 34.38958818 -51 28 C-49.07537925 21.47767414 -45.58702173 17.72468116 -40 14 C-33.62495292 13.09301656 -27.67397017 12.84716509 -22.3125 16.75 C-20.27874133 18.47455767 -19.13020335 19.72662285 -17.98046875 22.140625 C-17.0865294 24.35541399 -17.0865294 24.35541399 -14 25 C-13.74992187 24.15566406 -13.49984375 23.31132813 -13.2421875 22.44140625 C-11.89115101 18.69844038 -10.12069961 15.36134897 -8.125 11.9375 C-7.78597656 11.33873047 -7.44695312 10.73996094 -7.09765625 10.12304688 C-5.0052158 6.49111127 -2.81374401 3.11395519 0 0 Z " fill="#E14829" transform="translate(260,91)"/>
<path d="M0 0 C5.81501828 4.818158 6.18002354 6.7526883 7.1875 14.8125 C-3.2075 15.3075 -3.2075 15.3075 -13.8125 15.8125 C-11.11156091 19.16739274 -11.11156091 19.16739274 -7.375 19.0625 C-4.00434583 18.92980053 -4.00434583 18.92980053 -1.5625 18.25 C0.1875 17.8125 0.1875 17.8125 3.1875 18.8125 C2.88799983 21.7076683 2.37815168 22.65073494 0.125 24.5625 C-3.60449457 26.14951897 -6.85512561 26.50445741 -10.8125 25.8125 C-15.61015866 23.41367067 -18.377749 20.58835774 -20.8125 15.8125 C-21.7383932 10.25714081 -20.19799666 7.06934506 -17.296875 2.51171875 C-12.90828403 -2.51206302 -5.80336609 -2.45031013 0 0 Z " fill="#242425" transform="translate(117.8125,174.1875)"/>
<path d="M0 0 C4.38773175 2.19386588 7.09334197 4.44520582 9 9 C9 11.31 9 13.62 9 16 C2.07 16 -4.86 16 -12 16 C-8.52495353 20.33027399 -8.52495353 20.33027399 -4.5 20.3125 C-1.16952946 20.13626735 -1.16952946 20.13626735 1.25 19.3125 C1.8275 19.209375 2.405 19.10625 3 19 C4.75 20.4375 4.75 20.4375 6 22 C0.96835596 26.10476224 -1.35483215 27.55376399 -8 27 C-12.61862787 24.42422676 -16.30640263 22.0807921 -18 17 C-18.41767184 10.52608645 -17.80769392 7.27564291 -13.5 2.25 C-9.74859249 -0.87617293 -4.60550128 -0.56683093 0 0 Z " fill="#0E0E10" transform="translate(248,173)"/>
<path d="M0 0 C1.98 0 3.96 0 6 0 C7.65 3.96 9.3 7.92 11 12 C13.8326134 10.5836933 14.01707833 8.85502707 15.125 5.9375 C15.65480469 4.55884766 15.65480469 4.55884766 16.1953125 3.15234375 C16.46085937 2.44207031 16.72640625 1.73179687 17 1 C19.87246249 3.70349411 21.41137857 6.36886531 23 10 C23 10.99 23 11.98 23 13 C23.66 13 24.32 13 25 13 C25.19335938 12.39671875 25.38671875 11.7934375 25.5859375 11.171875 C25.84632813 10.37265625 26.10671875 9.5734375 26.375 8.75 C26.75785156 7.56664062 26.75785156 7.56664062 27.1484375 6.359375 C27.95173667 4.13372042 28.89711662 2.09068328 30 0 C31.98 0 33.96 0 36 0 C34.51768778 4.58878473 32.84589049 9.08380903 31.0625 13.5625 C30.81048828 14.20896484 30.55847656 14.85542969 30.29882812 15.52148438 C28.82090822 19.23707329 27.16282158 22.63632822 25 26 C22 25 22 25 20.83203125 22.71484375 C19.88802083 20.14322917 18.94401042 17.57161458 18 15 C16.02 18.96 14.04 22.92 12 27 C8.60300992 25.30150496 7.90917126 21.38393404 6.5625 18 C6.25046631 17.22922119 5.93843262 16.45844238 5.61694336 15.66430664 C3.54502037 10.50001002 1.64377191 5.31808559 0 0 Z " fill="#101112" transform="translate(289,172)"/>
<path d="M0 0 C1.65 0 3.3 0 5 0 C5.33 3.96 5.66 7.92 6 12 C6.66 11.67 7.32 11.34 8 11 C12.48105409 10.26703948 16.39076193 10.07109022 20.40234375 12.38671875 C24.33941435 15.66879749 26.45113191 17.77833597 27 23 C27.06774144 25.61481958 27.09500258 28.19979256 27.0625 30.8125 C27.05798828 31.50537109 27.05347656 32.19824219 27.04882812 32.91210938 C27.03713156 34.60811068 27.01919924 36.30406703 27 38 C25.02 38 23.04 38 21 38 C20.97421875 36.81921875 20.9484375 35.6384375 20.921875 34.421875 C20.86558603 32.86454677 20.80823886 31.30725653 20.75 29.75 C20.73582031 28.97269531 20.72164062 28.19539063 20.70703125 27.39453125 C20.54829965 23.68021191 20.38420465 21.56258538 18.25 18.4375 C15.53078201 16.70022184 14.38847713 16.69615109 11.25 17.25 C10.45078125 17.37890625 9.6515625 17.5078125 8.828125 17.640625 C8.22484375 17.75921875 7.6215625 17.8778125 7 18 C6.13580777 20.59257669 5.82419068 22.34037707 5.68359375 25.01171875 C5.64169922 25.76904297 5.59980469 26.52636719 5.55664062 27.30664062 C5.51732422 28.09232422 5.47800781 28.87800781 5.4375 29.6875 C5.39431641 30.48478516 5.35113281 31.28207031 5.30664062 32.10351562 C5.20072632 34.06881447 5.09987449 36.03438496 5 38 C3.35 38 1.7 38 0 38 C0 25.46 0 12.92 0 0 Z " fill="#101012" transform="translate(68,162)"/>
<path d="M0 0 C1.98 0 3.96 0 6 0 C6 3.3 6 6.6 6 10 C8.64 10 11.28 10 14 10 C14 11.98 14 13.96 14 16 C11.36 16 8.72 16 6 16 C6.08754551 17.75091019 6.19573373 19.50079551 6.3125 21.25 C6.39951172 22.71179688 6.39951172 22.71179688 6.48828125 24.203125 C7.05396365 27.29494635 7.88159528 28.71544589 10 31 C12.08334635 32.2516467 12.08334635 32.2516467 14 33 C14 34.65 14 36.3 14 38 C8.55466487 37.61104749 5.87313039 35.7851047 2 32 C-0.23129995 28.59314941 -0.21229785 25.7657009 -0.125 21.75 C-0.10695312 20.67234375 -0.08890625 19.5946875 -0.0703125 18.484375 C-0.04710937 17.66453125 -0.02390625 16.8446875 0 16 C-0.66 16 -1.32 16 -2 16 C-2 14.02 -2 12.04 -2 10 C-1.34 10 -0.68 10 0 10 C0 6.7 0 3.4 0 0 Z " fill="#151517" transform="translate(51,162)"/>
<path d="M0 0 C0.375 2.25 0.375 2.25 0 5 C-1.95309888 6.40113616 -3.95708818 7.73339467 -6 9 C-7.38868516 11.10039331 -7.38868516 11.10039331 -8 13 C-6.02 13 -4.04 13 -2 13 C-2 14.98 -2 16.96 -2 19 C-3.98 19 -5.96 19 -8 19 C-8 25.27 -8 31.54 -8 38 C-9.65 38 -11.3 38 -13 38 C-13 31.73 -13 25.46 -13 19 C-13.99 19 -14.98 19 -16 19 C-16 17.02 -16 15.04 -16 13 C-15.01 13 -14.02 13 -13 13 C-12.979375 11.96875 -12.95875 10.9375 -12.9375 9.875 C-11.83581787 5.32138052 -10.45186011 3.8853892 -6.85546875 1.08984375 C-4.4623689 -0.31578753 -2.71855124 -0.49428204 0 0 Z " fill="#111214" transform="translate(143,162)"/>
<path d="M0 0 C1.98 0 3.96 0 6 0 C6 12.54 6 25.08 6 38 C4.02 38 2.04 38 0 38 C0 37.34 0 36.68 0 36 C-0.99 36 -1.98 36 -3 36 C-2.125 29.125 -2.125 29.125 -1 28 C-0.7501088 23.58525547 -0.99461646 20.87707484 -3 17 C-2.625 14.75 -2.625 14.75 -2 13 C-1.34 13 -0.68 13 0 13 C0 8.71 0 4.42 0 0 Z " fill="#07090A" transform="translate(281,162)"/>
<path d="M0 0 C4.76631897 -0.15093343 8.19623962 0.29998693 11.96875 3.42578125 C16.52987468 7.86020802 16.08440701 9.35103735 16.96875 16.42578125 C9.37875 16.42578125 1.78875 16.42578125 -6.03125 16.42578125 C-6.03125 14.44578125 -6.03125 12.46578125 -6.03125 10.42578125 C-0.75125 10.75578125 4.52875 11.08578125 9.96875 11.42578125 C9.96875 10.43578125 9.96875 9.44578125 9.96875 8.42578125 C5.63700536 6.19427643 2.68659771 6.44660531 -2.03125 7.42578125 C-3.02125 7.92078125 -3.02125 7.92078125 -4.03125 8.42578125 C-5.03125 5.42578125 -5.03125 5.42578125 -4.15625 2.73828125 C-2.03125 0.42578125 -2.03125 0.42578125 0 0 Z " fill="#0C0C0D" transform="translate(108.03125,172.57421875)"/>
<path d="M0 0 C0.33 0 0.66 0 1 0 C1.06963091 12.23098849 1.12287779 24.46192951 1.15543652 36.69307613 C1.17106616 42.37301085 1.19225518 48.05280956 1.22631836 53.73266602 C1.25900799 59.21806226 1.27687332 64.70332799 1.28463173 70.18881416 C1.290158 72.2775026 1.30094937 74.36618421 1.31719017 76.45481682 C1.33909197 79.38922214 1.34196159 82.32309394 1.34057617 85.25756836 C1.351362 86.11353104 1.36214783 86.96949371 1.3732605 87.85139465 C1.34220803 93.96338526 0.78474547 100.87412539 -3.45203876 105.62991238 C-7.73490842 109.27353109 -10.36120787 110.15379711 -15.875 110.1875 C-16.92429688 110.20167969 -17.97359375 110.21585937 -19.0546875 110.23046875 C-21.93547071 110.00504937 -23.56240208 109.48964317 -26 108 C-25.67 106.02 -25.34 104.04 -25 102 C-24.01 102.33 -23.02 102.66 -22 103 C-21.3125 105.0625 -21.3125 105.0625 -21 107 C-19.02 106.505 -19.02 106.505 -17 106 C-17 106.66 -17 107.32 -17 108 C-11.96101759 106.10741541 -11.96101759 106.10741541 -7.8125 102.8125 C-7.214375 102.214375 -6.61625 101.61625 -6 101 C-4.68 101 -3.36 101 -2 101 C-2 89.45 -2 77.9 -2 66 C-1.34 66 -0.68 66 0 66 C0 44.22 0 22.44 0 0 Z " fill="#CF4F5B" transform="translate(147,45)"/>
<path d="M0 0 C0.66 0.33 1.32 0.66 2 1 C4.71262116 1.2322646 7.40773126 1.41936235 10.125 1.5625 C11.25615234 1.62727539 11.25615234 1.62727539 12.41015625 1.69335938 C14.27321888 1.7994832 16.13658524 1.90025001 18 2 C17.34 3.65 16.68 5.3 16 7 C11.71 7 7.42 7 3 7 C6.47504647 11.33027399 6.47504647 11.33027399 10.5 11.3125 C13.83047054 11.13626735 13.83047054 11.13626735 16.25 10.3125 C16.8275 10.209375 17.405 10.10625 18 10 C19.75 11.4375 19.75 11.4375 21 13 C15.96835596 17.10476224 13.64516785 18.55376399 7 18 C3.57651631 16.09074948 0.50713999 14.02856797 -2 11 C-2.51171875 8.73828125 -2.51171875 8.73828125 -2.6875 6.3125 C-2.75324219 5.50425781 -2.81898438 4.69601563 -2.88671875 3.86328125 C-2.92410156 3.24839844 -2.96148437 2.63351563 -3 2 C-2.01 1.34 -1.02 0.68 0 0 Z " fill="#0A0B0C" transform="translate(233,182)"/>
<path d="M0 0 C1.98 0 3.96 0 6 0 C6 12.54 6 25.08 6 38 C4.02 38 2.04 38 0 38 C0 25.46 0 12.92 0 0 Z " fill="#040405" transform="translate(365,162)"/>
<path d="M0 0 C1.98 0 3.96 0 6 0 C6 12.54 6 25.08 6 38 C4.02 38 2.04 38 0 38 C0 25.46 0 12.92 0 0 Z " fill="#17181A" transform="translate(357,162)"/>
<path d="M0 0 C0.7031987 0.00141495 1.4063974 0.0028299 2.13090515 0.00428772 C4.36205419 0.00985516 6.59310039 0.0224015 8.82421875 0.03515625 C10.3430975 0.04017546 11.86197784 0.04473763 13.38085938 0.04882812 C17.09117887 0.05981389 20.80143876 0.07705591 24.51171875 0.09765625 C24.51171875 0.42765625 24.51171875 0.75765625 24.51171875 1.09765625 C23.6395874 1.09652832 22.76745605 1.09540039 21.86889648 1.09423828 C18.60453259 1.10421773 15.34266991 1.14094709 12.07885742 1.1953125 C10.67172692 1.21337952 9.26442038 1.22105793 7.85717773 1.21777344 C-1.61482626 0.94267809 -1.61482626 0.94267809 -9.8046875 5.04296875 C-10.71869306 6.04375375 -11.61642785 7.05994316 -12.48828125 8.09765625 C-13.27203125 8.67515625 -14.05578125 9.25265625 -14.86328125 9.84765625 C-17.50481596 13.50516585 -17.31995751 17.68757435 -17.48828125 22.09765625 C-16.82828125 22.09765625 -16.16828125 22.09765625 -15.48828125 22.09765625 C-15.48828125 24.07765625 -15.48828125 26.05765625 -15.48828125 28.09765625 C-13.83828125 28.42765625 -12.18828125 28.75765625 -10.48828125 29.09765625 C-10.48828125 29.75765625 -10.48828125 30.41765625 -10.48828125 31.09765625 C9.80671875 31.59265625 9.80671875 31.59265625 30.51171875 32.09765625 C30.51171875 32.42765625 30.51171875 32.75765625 30.51171875 33.09765625 C24.92499681 33.17201876 19.33856536 33.22635879 13.75146484 33.26245117 C11.85232522 33.27750316 9.95322016 33.29794941 8.05419922 33.32397461 C5.31859794 33.36051617 2.58345775 33.37741863 -0.15234375 33.390625 C-0.99632721 33.40610886 -1.84031067 33.42159271 -2.70986938 33.43754578 C-8.60693795 33.43921528 -12.58871736 32.2932108 -17.38671875 28.66015625 C-20.75940431 25.09117682 -21.90924742 22.48884021 -22.05078125 17.53515625 C-21.67669152 11.45827642 -20.1492135 7.41191936 -15.61328125 3.28515625 C-10.56555059 -0.24825521 -6.05889651 -0.02413903 0 0 Z " fill="#3E2C81" transform="translate(70.48828125,28.90234375)"/>
<path d="M0 0 C0.66 0 1.32 0 2 0 C2 0.66 2 1.32 2 2 C1.01 2.495 1.01 2.495 0 3 C0 4.65 0 6.3 0 8 C-0.66 8 -1.32 8 -2 8 C-2 8.99 -2 9.98 -2 11 C-2.99 11.495 -2.99 11.495 -4 12 C-3.67 12.66 -3.34 13.32 -3 14 C-3.66 14.66 -4.32 15.32 -5 16 C-5.05266164 18.30976545 -5.05266164 18.30976545 -4.8125 20.875 C-4.73653012 25.65419579 -4.73653012 25.65419579 -7 28.625 C-11.00798592 30.46199355 -13.60471263 30.28356693 -18 30 C-18.99 30 -19.98 30 -21 30 C-21.99 29.34 -22.98 28.68 -24 28 C-24.40843923 25.28796348 -24.13336867 22.7562858 -24 20 C-24.66 19.67 -25.32 19.34 -26 19 C-24.35 19.33 -22.7 19.66 -21 20 C-21 20.66 -21 21.32 -21 22 C-21.33 22.33 -21.66 22.66 -22 23 C-21.236875 23.144375 -20.47375 23.28875 -19.6875 23.4375 C-17 24 -17 24 -14 25 C-13.74992188 24.15566406 -13.49984375 23.31132813 -13.2421875 22.44140625 C-11.89115101 18.69844038 -10.12069961 15.36134897 -8.125 11.9375 C-7.61646484 11.0393457 -7.61646484 11.0393457 -7.09765625 10.12304688 C-5.0052158 6.49111127 -2.81374401 3.11395519 0 0 Z " fill="#E75F24" transform="translate(260,91)"/>
<path d="M0 0 C1.98 0 3.96 0 6 0 C6.33 0.66 6.66 1.32 7 2 C10.465 1.505 10.465 1.505 14 1 C14 2.65 14 4.3 14 6 C13.030625 6.45375 12.06125 6.9075 11.0625 7.375 C7.92920418 8.65786221 7.92920418 8.65786221 7 11 C6.76725791 13.87910588 6.58027243 16.74146495 6.4375 19.625 C6.37272461 20.82769531 6.37272461 20.82769531 6.30664062 22.0546875 C6.20048543 24.0362511 6.09973145 26.01810271 6 28 C4.02 28 2.04 28 0 28 C0 18.76 0 9.52 0 0 Z " fill="#323233" transform="translate(143,172)"/>
<path d="M0 0 C3.0766616 2.12999649 3.85763576 3.25654231 4.5625 6.9375 C3.79477021 11.11736219 2.42123173 12.52506641 -1 15 C-6.89182058 15.81266491 -6.89182058 15.81266491 -9.875 13.625 C-12.35815697 10.03821771 -12.44931047 7.34333459 -12 3 C-8.32083264 -1.4595968 -5.40244747 -1.57162108 0 0 Z " fill="#F5F4F5" transform="translate(345,179)"/>
<path d="M0 0 C0.33 0 0.66 0 1 0 C1 12.54 1 25.08 1 38 C0.01 38 -0.98 38 -2 38 C-2.061875 37.236875 -2.12375 36.47375 -2.1875 35.6875 C-3.26182481 32.13396408 -4.81152275 31.71089023 -8 30 C-10.28062828 26.57905758 -10.21925007 25.31812778 -10.125 21.3125 C-10.10695312 20.31863281 -10.08890625 19.32476562 -10.0703125 18.30078125 C-10.04710937 17.54152344 -10.02390625 16.78226563 -10 16 C-7.36 16 -4.72 16 -2 16 C-2 14.02 -2 12.04 -2 10 C-1.67 10 -1.34 10 -1 10 C-0.67 6.7 -0.34 3.4 0 0 Z " fill="#ECECEC" transform="translate(67,162)"/>
<path d="M0 0 C2.81972931 2.36493426 2.97850831 3.8280665 3.4375 7.5 C3 11 3 11 1.4375 13.4375 C-1.98314143 15.63021887 -4.00951279 15.63007693 -8 15 C-11.37564269 12.55804571 -12.75320045 11.0769435 -13.6875 7 C-12.90167392 3.57094076 -11.62880414 1.93762864 -8.7890625 -0.1484375 C-5.58454672 -1.67373104 -3.27049287 -1.04902601 0 0 Z " fill="#F7F7F8" transform="translate(278,179)"/>
<path d="M0 0 C2.80618215 2.35357213 2.97918231 3.8542762 3.5 7.5 C3 11 3 11 0.875 13.4375 C-2.47831721 15.25995501 -4.23946276 15.56008001 -8 15 C-10.3125 13.9375 -10.3125 13.9375 -12 12 C-13.0948787 8.05843668 -13.39415792 5.90656321 -11.75 2.125 C-8.37840927 -1.96907446 -4.7889305 -1.11171601 0 0 Z " fill="#F5F5F6" transform="translate(178,179)"/>
<path d="M0 0 C1.65 0 3.3 0 5 0 C5 4.29 5 8.58 5 13 C5.66 13.33 6.32 13.66 7 14 C6.67 14.66 6.34 15.32 6 16 C6.66 16 7.32 16 8 16 C7.68289062 16.64324219 7.36578125 17.28648437 7.0390625 17.94921875 C5.68561702 21.92305679 5.54279839 25.64201079 5.375 29.8125 C5.33632812 30.60076172 5.29765625 31.38902344 5.2578125 32.20117188 C5.16411156 34.1337538 5.08099221 36.06684376 5 38 C3.35 38 1.7 38 0 38 C0 25.46 0 12.92 0 0 Z " fill="#080909" transform="translate(68,162)"/>
<path d="M0 0 C0.99 0 1.98 0 3 0 C3.33 3.3 3.66 6.6 4 10 C3.34 10 2.68 10 2 10 C2.33 13.63 2.66 17.26 3 21 C3.99 21.33 4.98 21.66 6 22 C6 21.34 6 20.68 6 20 C7.98 20 9.96 20 12 20 C10.68 20.99 9.36 21.98 8 23 C9.98 23 11.96 23 14 23 C14 22.34 14 21.68 14 21 C15.65 21.33 17.3 21.66 19 22 C19 22.99 19 23.98 19 25 C19.99 25 20.98 25 22 25 C22.495 26.98 22.495 26.98 23 29 C22.113125 28.34 21.22625 27.68 20.3125 27 C15.03418855 23.96064443 8.89897772 24.1440699 3 25 C0.76349934 26.44329641 0.76349934 26.44329641 -1 28 C-1.66 28 -2.32 28 -3 28 C-3.99 30.475 -3.99 30.475 -5 33 C-5.66 32.67 -6.32 32.34 -7 32 C-7 30.68 -7 29.36 -7 28 C-8.65 28 -10.3 28 -12 28 C-11.443125 27.608125 -10.88625 27.21625 -10.3125 26.8125 C-6.38115393 23.7311747 -2.88415344 20.69759523 -1 16 C-0.72248208 13.54525777 -0.72248208 13.54525777 -0.8125 11 C-0.81894531 10.154375 -0.82539063 9.30875 -0.83203125 8.4375 C-0.912299 6.01217215 -0.912299 6.01217215 -1.63671875 3.8125 C-1.75660156 3.214375 -1.87648437 2.61625 -2 2 C-1.34 1.34 -0.68 0.68 0 0 Z " fill="#F6F2ED" transform="translate(217,81)"/>
<path d="M0 0 C1.98 0 3.96 0 6 0 C6 9.24 6 18.48 6 28 C4.02 28 2.04 28 0 28 C0 27.34 0 26.68 0 26 C-0.495 26.33 -0.99 26.66 -1.5 27 C-5.02149449 28.4085978 -8.29406906 28.57838228 -12 28 C-16.32706702 25.7956451 -19.22937658 23.58279003 -21 19 C-20.93794951 16.22324052 -20.51246549 13.74867853 -20 11 C-18.1015625 11.25 -18.1015625 11.25 -16 12 C-15.0234375 13.8125 -15.0234375 13.8125 -14.375 16 C-13.75580781 18.1432966 -13.75580781 18.1432966 -13 20 C-10.21084611 21.39457694 -8.09726736 21.1821922 -5 21 C-2.21433941 20.08742694 -2.21433941 20.08742694 0 19 C-0.020625 19.763125 -0.04125 20.52625 -0.0625 21.3125 C-0.12942841 24.10185786 -0.12942841 24.10185786 1 27 C2.32 27 3.64 27 5 27 C5 18.42 5 9.84 5 1 C3.68 1 2.36 1 1 1 C0.67 1.66 0.34 2.32 0 3 C0 2.01 0 1.02 0 0 Z " fill="#131314" transform="translate(181,172)"/>
<path d="M0 0 C0.99 0.33 1.98 0.66 3 1 C2.43177527 4.79039323 1.38271138 7.35122724 -0.6875 10.5625 C-2.98480733 14.25460107 -5.03174784 17.96615889 -6.9375 21.875 C-9.08569943 26.22793041 -11.31548682 30.51426217 -13.6875 34.75 C-14.52861328 36.25820312 -14.52861328 36.25820312 -15.38671875 37.796875 C-15.91910156 38.52390625 -16.45148438 39.2509375 -17 40 C-17.99 40 -18.98 40 -20 40 C-20.29347905 36.94781791 -20.42724404 34.04345448 -20 31 C-17.75 28.6875 -17.75 28.6875 -15 27 C-14.278125 26.2575 -13.55625 25.515 -12.8125 24.75 C-11 23 -11 23 -9 23 C-9.33 22.34 -9.66 21.68 -10 21 C-10.06996014 19.29297265 -10.08440154 17.58331997 -10.0625 15.875 C-10.05347656 14.96492188 -10.04445313 14.05484375 -10.03515625 13.1171875 C-10.02355469 12.41851562 -10.01195312 11.71984375 -10 11 C-9.34 10.67 -8.68 10.34 -8 10 C-7.34 10.33 -6.68 10.66 -6 11 C-5.9175 10.236875 -5.835 9.47375 -5.75 8.6875 C-4.83919988 5.42379958 -3.71861635 4.86904874 -1 3 C-0.67 2.01 -0.34 1.02 0 0 Z " fill="#F09C21" transform="translate(347,110)"/>
<path d="M0 0 C4.04232081 0.85510632 6.45258661 1.438181 9.375 4.4375 C12.38630856 9.18610196 12.50618403 13.53508723 12 19 C10.17573094 24.27011062 7.42748314 26.83751204 3 30 C0.625 30.8125 0.625 30.8125 -1 31 C-1.33 30.01 -1.66 29.02 -2 28 C-2.66 28 -3.32 28 -4 28 C-4 25.69 -4 23.38 -4 21 C0.07113563 18.67363679 3.34448212 19 8 19 C8.33 15.7 8.66 12.4 9 9 C7.35 8.67 5.7 8.34 4 8 C4.33 6.68 4.66 5.36 5 4 C4.360625 3.896875 3.72125 3.79375 3.0625 3.6875 C2.381875 3.460625 1.70125 3.23375 1 3 C0.67 2.01 0.34 1.02 0 0 Z " fill="#D3252A" transform="translate(240,31)"/>
<path d="M0 0 C6 0 6 0 8 1 C7.835 1.763125 7.67 2.52625 7.5 3.3125 C6.90854604 6.03596236 6.90854604 6.03596236 7 9 C6.93467988 10.48342691 6.8608596 11.96649004 6.78125 13.44921875 C6.73613281 14.29677734 6.69101563 15.14433594 6.64453125 16.01757812 C6.59683594 16.89865234 6.54914063 17.77972656 6.5 18.6875 C6.42845703 20.02651367 6.42845703 20.02651367 6.35546875 21.39257812 C6.23768731 23.59509104 6.11917063 25.79756189 6 28 C4.02 28 2.04 28 0 28 C0 18.76 0 9.52 0 0 Z " fill="#373739" transform="translate(189,172)"/>
<path d="M0 0 C1.25456245 0.00212242 1.25456245 0.00212242 2.5344696 0.00428772 C5.19358975 0.00986441 7.85262425 0.0224126 10.51171875 0.03515625 C12.31966024 0.04017426 14.12760305 0.04473664 15.93554688 0.04882812 C20.35680359 0.05982621 24.77799668 0.07707475 29.19921875 0.09765625 C29.19921875 0.42765625 29.19921875 0.75765625 29.19921875 1.09765625 C28.08885254 1.1227124 26.97848633 1.14776855 25.83447266 1.17358398 C21.72318556 1.2676054 17.61206952 1.36783882 13.50097656 1.4699707 C11.72009272 1.51333955 9.93916677 1.55501319 8.15820312 1.5949707 C5.60143327 1.65262615 3.04487577 1.71633395 0.48828125 1.78125 C-0.31072601 1.79796249 -1.10973328 1.81467499 -1.93295288 1.83189392 C-5.99884493 1.85158616 -5.99884493 1.85158616 -9.80078125 3.09765625 C-11.80095201 5.82264841 -11.80095201 5.82264841 -12.48828125 8.09765625 C-14.54678399 11.23442233 -17.32910218 11.81184919 -20.80078125 13.09765625 C-20.80078125 16.06765625 -20.80078125 19.03765625 -20.80078125 22.09765625 C-19.81078125 21.76765625 -18.82078125 21.43765625 -17.80078125 21.09765625 C-17.14078125 23.07765625 -16.48078125 25.05765625 -15.80078125 27.09765625 C-14.15078125 27.42765625 -12.50078125 27.75765625 -10.80078125 28.09765625 C-11.13078125 29.08765625 -11.46078125 30.07765625 -11.80078125 31.09765625 C-11.14078125 31.42765625 -10.48078125 31.75765625 -9.80078125 32.09765625 C-12.98017215 32.02195647 -15.10967813 31.72997588 -17.5 29.54296875 C-22.10053995 24.17381559 -23.15642203 20.97299325 -23.08203125 13.859375 C-22.56451223 8.77762572 -19.93211694 6.17097473 -16.36328125 2.78515625 C-11.33677251 -0.52498365 -5.81504171 -0.03726495 0 0 Z " fill="#8D2B52" transform="translate(176.80078125,28.90234375)"/>
<path d="M0 0 C0.33 0.66 0.66 1.32 1 2 C1.99 2.33 2.98 2.66 4 3 C3.96744792 4.953125 3.93489583 6.90625 3.90234375 8.859375 C3.94469744 11.33999176 3.94469744 11.33999176 5 15 C8.63 15 12.26 15 16 15 C16.04254356 16.99954746 16.04080783 19.00041636 16 21 C15 22 15 22 11.3125 22.3125 C6.14254119 22.25690905 3.27792979 19.88080885 -0.61328125 16.66796875 C-3.30691158 13.42802466 -3.13605909 9.06881459 -3 5 C-1.5625 1.875 -1.5625 1.875 0 0 Z " fill="#0E0E10" transform="translate(330,178)"/>
<path d="M0 0 C2.5 0.25 2.5 0.25 4.5 2.25 C4.72504349 4.9622125 4.82434995 7.53873185 4.8125 10.25 C4.82861328 10.98734375 4.84472656 11.7246875 4.86132812 12.484375 C4.86328125 14.625 4.86328125 14.625 4.5 18.25 C1.5 20.25 1.5 20.25 -1.125 19.9375 C-3.5 19.25 -3.5 19.25 -4.5 18.25 C-4.54443347 16.25049364 -4.53920815 14.24961564 -4.5 12.25 C-4.5 9.87463453 -4.5300613 7.49846745 -4.625 5.125 C-4.4628442 1.3954167 -3.7620217 0.37620217 0 0 Z " fill="#EAEAEA" transform="translate(378.5,164.75)"/>
<path d="M0 0 C2.66666667 0 5.33333333 0 8 0 C7.39354381 4.05535823 6.07609269 7.10602794 4.12890625 10.703125 C3.55462891 11.7653125 2.98035156 12.8275 2.38867188 13.921875 C1.4847168 15.56929687 1.4847168 15.56929687 0.5625 17.25 C-0.03626953 18.36375 -0.63503906 19.4775 -1.25195312 20.625 C-5.74200094 28.87100047 -5.74200094 28.87100047 -8 30 C-8.66 29.34 -9.32 28.68 -10 28 C-10.33 28 -10.66 28 -11 28 C-10.67 25.69 -10.34 23.38 -10 21 C-8.35 20.67 -6.7 20.34 -5 20 C-4.67 18.68 -4.34 17.36 -4 16 C-2.68 15.67 -1.36 15.34 0 15 C-0.08378906 14.41992188 -0.16757812 13.83984375 -0.25390625 13.2421875 C-0.86209421 8.57684697 -1.07205665 4.64557883 0 0 Z " fill="#EF9624" transform="translate(358,81)"/>
<path d="M0 0 C0.8850119 0.00141495 1.7700238 0.0028299 2.68185425 0.00428772 C5.51449941 0.00989485 8.34706614 0.02244854 11.1796875 0.03515625 C13.09765511 0.04017033 15.01562396 0.0447334 16.93359375 0.04882812 C21.64065532 0.05986659 26.3476581 0.077136 31.0546875 0.09765625 C31.0546875 0.42765625 31.0546875 0.75765625 31.0546875 1.09765625 C29.80764038 1.11953003 29.80764038 1.11953003 28.53540039 1.1418457 C25.40954557 1.20340997 22.28430381 1.27765282 19.15893555 1.36010742 C17.15760139 1.4091656 15.15593444 1.44398762 13.15429688 1.47851562 C6.63335469 1.65919664 0.87464196 1.97326458 -5.20703125 4.44726562 C-7.49215317 5.30226068 -9.53324667 5.33108198 -11.9453125 5.09765625 C-12.0071875 5.69578125 -12.0690625 6.29390625 -12.1328125 6.91015625 C-12.9453125 9.09765625 -12.9453125 9.09765625 -15.5078125 10.28515625 C-18.13981427 11.81438682 -18.13981427 11.81438682 -18.34375 14.21484375 C-18.38166128 16.58809012 -18.36666236 18.76027335 -17.9453125 21.09765625 C-17.2853125 21.75765625 -16.6253125 22.41765625 -15.9453125 23.09765625 C-15.6153125 23.75765625 -15.2853125 24.41765625 -14.9453125 25.09765625 C-15.6053125 25.75765625 -16.2653125 26.41765625 -16.9453125 27.09765625 C-20.40326158 22.91930111 -20.45064171 18.95401666 -20.296875 13.75390625 C-19.62603847 8.68536355 -17.02945359 6.05273292 -13.3203125 2.78515625 C-8.91693509 -0.34355928 -5.24912425 -0.03133395 0 0 Z " fill="#B3374B" transform="translate(173.9453125,75.90234375)"/>
<path d="M0 0 C0.56707169 0.16207443 1.13414337 0.32414886 1.71839905 0.49113464 C4.05790123 1.01291371 6.11153404 1.1311035 8.50561523 1.1418457 C9.83235512 1.15239738 9.83235512 1.15239738 11.18589783 1.16316223 C12.60788231 1.16940865 12.60788231 1.16940865 14.05859375 1.17578125 C16.07357823 1.19897289 18.08855224 1.22308996 20.10351562 1.24804688 C23.27456757 1.28319612 26.44523174 1.31253266 29.61645508 1.32592773 C32.68097521 1.3413991 35.74437074 1.38159396 38.80859375 1.42578125 C39.75455917 1.42387283 40.7005246 1.42196442 41.67515564 1.41999817 C46.06959291 1.50163931 48.37061818 1.59153125 52.13696289 4.03588867 C52.75176514 4.68404541 53.36656738 5.33220215 54 6 C52.8668335 5.83773926 51.73366699 5.67547852 50.56616211 5.50830078 C46.01147895 4.94141076 41.52649676 4.8553909 36.94140625 4.8671875 C35.69676857 4.86575241 35.69676857 4.86575241 34.42698669 4.86428833 C32.69001183 4.8636127 30.95303436 4.86542356 29.21606445 4.86962891 C26.54567922 4.87503405 23.87545853 4.86963872 21.20507812 4.86328125 C19.51302046 4.86394121 17.8209629 4.86522065 16.12890625 4.8671875 C15.32796036 4.86516327 14.52701447 4.86313904 13.70179749 4.86105347 C10.05134815 4.53039226 10.05134815 4.53039226 7 6 C5.33382885 6.04063832 3.66611905 6.042721 2 6 C1.34 4.02 0.68 2.04 0 0 Z " fill="#F9F8FB" transform="translate(57,60)"/>
<path d="M0 0 C1.98 0 3.96 0 6 0 C4.51768778 4.58878473 2.84589049 9.08380903 1.0625 13.5625 C0.81048828 14.20896484 0.55847656 14.85542969 0.29882812 15.52148438 C-1.17909178 19.23707329 -2.83717842 22.63632822 -5 26 C-5.99 25.67 -6.98 25.34 -8 25 C-8 23 -8 23 -6.5625 21.5 C-6.046875 21.005 -5.53125 20.51 -5 20 C-4.67 19.34 -4.34 18.68 -4 18 C-4.66 17.34 -5.32 16.68 -6 16 C-5.67 15.67 -5.34 15.34 -5 15 C-5.66 14.34 -6.32 13.68 -7 13 C-6.34 13 -5.68 13 -5 13 C-4.80664062 12.39671875 -4.61328125 11.7934375 -4.4140625 11.171875 C-4.15367187 10.37265625 -3.89328125 9.5734375 -3.625 8.75 C-3.36976563 7.96109375 -3.11453125 7.1721875 -2.8515625 6.359375 C-2.04826333 4.13372042 -1.10288338 2.09068328 0 0 Z " fill="#111112" transform="translate(319,172)"/>
<path d="M0 0 C1.79296875 1.5390625 1.79296875 1.5390625 3 3 C-0.36691162 6.36691162 -3.44910271 6.38328329 -7.9765625 6.49609375 C-8.64429688 6.66238281 -9.31203125 6.82867187 -10 7 C-11.17356583 8.96155492 -11.17356583 8.96155492 -12 11 C-13.32594105 11.36162029 -14.65938457 11.69728039 -16 12 C-16.33 12.99 -16.66 13.98 -17 15 C-17.66 15 -18.32 15 -19 15 C-19 10.91318602 -18.91151379 8.27326338 -16.50390625 4.91015625 C-11.62075221 0.10560429 -6.79596473 -1.66579597 0 0 Z " fill="#0D0D0F" transform="translate(178,173)"/>
<path d="M0 0 C1.80859375 0.16796875 1.80859375 0.16796875 4 1 C5.59765625 3.36328125 5.59765625 3.36328125 7.0625 6.3125 C8.81821538 9.80064542 10.55605151 12.94687741 13 16 C11.35 16 9.7 16 8 16 C8 15.01 8 14.02 8 13 C6.35 12.67 4.7 12.34 3 12 C2.67 11.01 2.34 10.02 2 9 C1.01 11.31 0.02 13.62 -1 16 C-1.66 16 -2.32 16 -3 16 C-3 14.68 -3 13.36 -3 12 C-3.66 11.67 -4.32 11.34 -5 11 C-3.77472971 6.94718288 -2.30119506 3.55639236 0 0 Z " fill="#FAFAF2" transform="translate(274,136)"/>
<path d="M0 0 C0.66 0 1.32 0 2 0 C2 5.61 2 11.22 2 17 C-5 18 -5 18 -9 18 C-9.33 16.02 -9.66 14.04 -10 12 C-9.40703125 11.94972656 -8.8140625 11.89945313 -8.203125 11.84765625 C-4.93511179 10.59028237 -4.30094806 8.50414731 -2.75 5.4375 C-2.22921875 4.42558594 -1.7084375 3.41367188 -1.171875 2.37109375 C-0.78515625 1.58863281 -0.3984375 0.80617188 0 0 Z " fill="#ED8723" transform="translate(315,104)"/>
<path d="M0 0 C0.66 0 1.32 0 2 0 C1.42070224 3.91025991 -0.3061755 6.16056336 -3 9 C-8.11919692 12.24888915 -12.25956677 12.40329291 -18.1171875 12.29296875 C-18.97434357 12.28872391 -19.83149963 12.28447906 -20.71463013 12.28010559 C-23.43508164 12.26339886 -26.15477482 12.22576219 -28.875 12.1875 C-30.72655175 12.17244278 -32.57811519 12.1587562 -34.4296875 12.14648438 C-38.95341433 12.11352165 -43.47657887 12.06179537 -48 12 C-48 11.67 -48 11.34 -48 11 C-38.1 11 -28.2 11 -18 11 C-18 10.34 -18 9.68 -18 9 C-17.36191406 8.89042969 -16.72382813 8.78085938 -16.06640625 8.66796875 C-15.24011719 8.50941406 -14.41382813 8.35085937 -13.5625 8.1875 C-12.32693359 7.96126953 -12.32693359 7.96126953 -11.06640625 7.73046875 C-10.38449219 7.48941406 -9.70257813 7.24835938 -9 7 C-8.67 6.01 -8.34 5.02 -8 4 C-5.69 4 -3.38 4 -1 4 C-0.67 2.68 -0.34 1.36 0 0 Z " fill="#D24B42" transform="translate(214,97)"/>
<path d="M0 0 C4.07131488 2.16559302 6.69676561 4.1888519 9.32421875 8.01953125 C8.14859375 8.45265625 8.14859375 8.45265625 6.94921875 8.89453125 C4.22750243 9.86865379 4.22750243 9.86865379 2.32421875 12.01953125 C2.32421875 9.37953125 2.32421875 6.73953125 2.32421875 4.01953125 C0.01421875 4.01953125 -2.29578125 4.01953125 -4.67578125 4.01953125 C-4.67578125 3.35953125 -4.67578125 2.69953125 -4.67578125 2.01953125 C-5.33578125 2.01953125 -5.99578125 2.01953125 -6.67578125 2.01953125 C-7.00578125 2.67953125 -7.33578125 3.33953125 -7.67578125 4.01953125 C-10.97578125 3.35953125 -14.27578125 2.69953125 -17.67578125 2.01953125 C-17.67578125 2.67953125 -17.67578125 3.33953125 -17.67578125 4.01953125 C-19.32578125 4.01953125 -20.97578125 4.01953125 -22.67578125 4.01953125 C-17.18929922 -2.33323741 -7.51460517 -2.75352686 0 0 Z " fill="#E85F23" transform="translate(284.67578125,86.98046875)"/>
<path d="M0 0 C1.35544922 0.23396484 1.35544922 0.23396484 2.73828125 0.47265625 C9.25752843 1.4063214 15.88504211 1.35666372 22.45898438 1.51757812 C24.01649414 1.56881836 24.01649414 1.56881836 25.60546875 1.62109375 C27.01542114 1.65867798 27.01542114 1.65867798 28.45385742 1.69702148 C31.06545007 2.00778824 32.74762212 2.67754234 35 4 C35 4.66 35 5.32 35 6 C34.05157227 5.96970703 33.10314453 5.93941406 32.12597656 5.90820312 C28.59995058 5.79588179 25.07390758 5.68412697 21.54785156 5.57275391 C20.02310479 5.52447782 18.49836511 5.47597735 16.97363281 5.42724609 C14.77931524 5.35715381 12.58497326 5.2878742 10.390625 5.21875 C9.37165131 5.18593933 9.37165131 5.18593933 8.33209229 5.15246582 C5.21840673 5.05511724 2.11583496 5 -1 5 C-0.67 3.35 -0.34 1.7 0 0 Z " fill="#FAFAED" transform="translate(290,154)"/>
<path d="M0 0 C0.33 0 0.66 0 1 0 C1.06058594 0.68707031 1.12117188 1.37414063 1.18359375 2.08203125 C1.26738281 2.98308594 1.35117187 3.88414063 1.4375 4.8125 C1.51871094 5.70582031 1.59992187 6.59914063 1.68359375 7.51953125 C1.93489767 10.12743559 1.93489767 10.12743559 3 13 C3.66 13 4.32 13 5 13 C5 14.98 5 16.96 5 19 C6.65 19.33 8.3 19.66 10 20 C10 20.66 10 21.32 10 22 C30.295 22.495 30.295 22.495 51 23 C51 23.33 51 23.66 51 24 C45.41327806 24.07436251 39.82684661 24.12870254 34.23974609 24.16479492 C32.34060647 24.17984691 30.44150141 24.20029316 28.54248047 24.22631836 C25.80687919 24.26285992 23.071739 24.27976238 20.3359375 24.29296875 C19.49195404 24.30845261 18.64797058 24.32393646 17.77841187 24.33988953 C11.8813433 24.34155903 7.89956389 23.19555455 3.1015625 19.5625 C-0.36344689 15.8958234 -1.39035286 13.34189068 -1.4375 8.25 C-1.29602886 5.18050494 -0.97669162 2.93007485 0 0 Z " fill="#4D2C6C" transform="translate(50,38)"/>
<path d="M0 0 C0.33 0 0.66 0 1 0 C1 12.54 1 25.08 1 38 C-0.98 38 -2.96 38 -5 38 C-5 37.67 -5 37.34 -5 37 C-3.35 37 -1.7 37 0 37 C-0.66 36.34 -1.32 35.68 -2 35 C-2.25878906 32.20605469 -2.25878906 32.20605469 -2.265625 28.671875 C-2.26949219 26.75955078 -2.26949219 26.75955078 -2.2734375 24.80859375 C-2.26924805 24.1419873 -2.26505859 23.47538086 -2.26074219 22.78857422 C-2.25011329 20.77149846 -2.2605995 18.75532792 -2.2734375 16.73828125 C-2.27085937 15.45824219 -2.26828125 14.17820313 -2.265625 12.859375 C-2.26336914 11.68858398 -2.26111328 10.51779297 -2.25878906 9.31152344 C-1.99306362 5.91124046 -1.21426847 3.17494427 0 0 Z " fill="#141414" transform="translate(370,162)"/>
<path d="M0 0 C0.66 0 1.32 0 2 0 C2 0.66 2 1.32 2 2 C2.66 2 3.32 2 4 2 C4 2.99 4 3.98 4 5 C4.66 5 5.32 5 6 5 C6.33 4.01 6.66 3.02 7 2 C7.66 2 8.32 2 9 2 C9.33 2.99 9.66 3.98 10 5 C11.49985609 6.66710346 11.49985609 6.66710346 13 8 C12.25 10.875 12.25 10.875 11 14 C8.921875 15.1953125 8.921875 15.1953125 7 16 C5.63597957 13.7136988 4.28365726 11.42178251 2.9375 9.125 C2.54755859 8.47402344 2.15761719 7.82304688 1.75585938 7.15234375 C0.77555467 5.46934275 -0.11898432 3.73703801 -1 2 C-0.67 1.34 -0.34 0.68 0 0 Z " fill="#F9F6EC" transform="translate(299,101)"/>
<path d="M0 0 C0.639375 0.66 1.27875 1.32 1.9375 2 C6.04464253 4.68221553 9.23379829 4.37381974 14 4 C14 5.98 14 7.96 14 10 C10.78501861 11.6074907 7.48701742 11.47314549 4 11 C0.06377171 8.95899274 -2.48209259 7.25014075 -4 3 C-3.01 2.67 -2.02 2.34 -1 2 C-0.67 1.34 -0.34 0.68 0 0 Z " fill="#171718" transform="translate(265,189)"/>
<path d="M0 0 C0.66 0.33 1.32 0.66 2 1 C4.71262116 1.2322646 7.40773126 1.41936235 10.125 1.5625 C11.25615234 1.62727539 11.25615234 1.62727539 12.41015625 1.69335938 C14.27321888 1.7994832 16.13658524 1.90025001 18 2 C17.34 3.65 16.68 5.3 16 7 C9.73 7 3.46 7 -3 7 C-3 5.35 -3 3.7 -3 2 C-2.01 1.34 -1.02 0.68 0 0 Z " fill="#050607" transform="translate(233,182)"/>
<path d="M0 0 C2.97 1.98 2.97 1.98 6 4 C5.835 4.515625 5.67 5.03125 5.5 5.5625 C4.49903728 10.44219326 4.34637733 13.82798694 6.8125 18.25 C8.84265805 20.90868665 8.84265805 20.90868665 10.75 22.75 C12 24 12 24 12 26 C11.01 26.33 10.02 26.66 9 27 C8.34 26.34 7.68 25.68 7 25 C7 24.01 7 23.02 7 22 C5.35 22 3.7 22 2 22 C1.81824219 20.21142578 1.81824219 20.21142578 1.6328125 18.38671875 C1.46397327 16.82026592 1.29467868 15.25386212 1.125 13.6875 C1.04636719 12.90181641 0.96773438 12.11613281 0.88671875 11.30664062 C0.80292969 10.54931641 0.71914062 9.79199219 0.6328125 9.01171875 C0.55949707 8.31522217 0.48618164 7.61872559 0.41064453 6.90112305 C0.05293784 4.68233952 0.05293784 4.68233952 -2 2 C-1.34 1.34 -0.68 0.68 0 0 Z " fill="#F5F5F6" transform="translate(93,175)"/>
<path d="M0 0 C1.65 0 3.3 0 5 0 C5 6.6 5 13.2 5 20 C3.35 20 1.7 20 0 20 C0 13.4 0 6.8 0 0 Z " fill="#070909" transform="translate(222,180)"/>
<path d="M0 0 C0.33 0 0.66 0 1 0 C1 2.97 1 5.94 1 9 C1.99 9.33 2.98 9.66 4 10 C4 10.66 4 11.32 4 12 C4.99 11.67 5.98 11.34 7 11 C7.4125 11.61875 7.825 12.2375 8.25 12.875 C10.05573879 15.06768281 11.4090534 15.92788417 14 17 C14 18.65 14 20.3 14 22 C8.55466487 21.61104749 5.87313039 19.7851047 2 16 C-0.23129995 12.59314941 -0.21229785 9.7657009 -0.125 5.75 C-0.10695312 4.67234375 -0.08890625 3.5946875 -0.0703125 2.484375 C-0.04710937 1.66453125 -0.02390625 0.8446875 0 0 Z " fill="#161618" transform="translate(51,178)"/>
<path d="M0 0 C2.97 0.33 5.94 0.66 9 1 C5.66666667 7.66666667 2.33333333 14.33333333 -1 21 C-1.33 21 -1.66 21 -2 21 C-2.19326999 15.47033085 -2.27689095 11.12300465 0 6 C0.16757757 2.79129767 0.16757757 2.79129767 0 0 Z " fill="#EE8E26" transform="translate(369,60)"/>
<path d="M0 0 C1.671549 0.30791692 3.33805547 0.64386903 5 1 C7.23167185 0.63143136 7.23167185 0.63143136 9 0 C9.33 1.65 9.66 3.3 10 5 C9.34 5 8.68 5 8 5 C8 5.66 8 6.32 8 7 C7.34 7 6.68 7 6 7 C5.67 8.32 5.34 9.64 5 11 C3.68 11.33 2.36 11.66 1 12 C0.67 11.01 0.34 10.02 0 9 C-0.66 9 -1.32 9 -2 9 C-2.125 5.625 -2.125 5.625 -2 2 C-1.34 1.34 -0.68 0.68 0 0 Z " fill="#DE2525" transform="translate(238,50)"/>
<path d="M0 0 C1.98 0 3.96 0 6 0 C6 9.24 6 18.48 6 28 C4.02 28 2.04 28 0 28 C0 27.34 0 26.68 0 26 C-0.66 26.33 -1.32 26.66 -2 27 C-3.54023996 27.06950541 -5.08334988 27.08452357 -6.625 27.0625 C-7.85089844 27.04896484 -7.85089844 27.04896484 -9.1015625 27.03515625 C-9.72804687 27.02355469 -10.35453125 27.01195312 -11 27 C-11 26.34 -11 25.68 -11 25 C-9.02 24.34 -7.04 23.68 -5 23 C-5 22.34 -5 21.68 -5 21 C-3.35 20.34 -1.7 19.68 0 19 C-0.020625 19.763125 -0.04125 20.52625 -0.0625 21.3125 C-0.12942841 24.10185786 -0.12942841 24.10185786 1 27 C2.32 27 3.64 27 5 27 C5 18.42 5 9.84 5 1 C3.68 1 2.36 1 1 1 C0.67 1.66 0.34 2.32 0 3 C0 2.01 0 1.02 0 0 Z " fill="#4A4A4C" transform="translate(181,172)"/>
<path d="M0 0 C1 3 1 3 1 7 C0.01 7.495 0.01 7.495 -1 8 C-1.54134931 9.92046168 -1.54134931 9.92046168 -1.875 12.1875 C-2.76977969 16.53654546 -4.02187372 19.59642711 -7 23 C-9.75 23.875 -9.75 23.875 -12 24 C-10.42195846 18.39523177 -7.73583615 13.64949374 -4.875 8.625 C-4.17310547 7.37783203 -4.17310547 7.37783203 -3.45703125 6.10546875 C-2.30929451 4.06765046 -1.15686718 2.03264431 0 0 Z " fill="#EA8428" transform="translate(329,78)"/>
<path d="M0 0 C5.75 -0.125 5.75 -0.125 8 1 C8 9.91 8 18.82 8 28 C7.01 28 6.02 28 5 28 C5 19.09 5 10.18 5 1 C3.35 1 1.7 1 0 1 C0 0.67 0 0.34 0 0 Z " fill="#E0E0E2" transform="translate(349,172)"/>
<path d="M0 0 C2.42031245 0.03311373 4.83153287 0.10032789 7.25 0.1875 C7.93191406 0.19330078 8.61382812 0.19910156 9.31640625 0.20507812 C11.328125 0.29296875 11.328125 0.29296875 15 1 C16.32 2.65 17.64 4.3 19 6 C12.73 6 6.46 6 0 6 C0 4.02 0 2.04 0 0 Z " fill="#060507" transform="translate(102,183)"/>
<path d="M0 0 C0 0.33 0 0.66 0 1 C-4.455 1.495 -4.455 1.495 -9 2 C-4.38 2.66 0.24 3.32 5 4 C5 4.33 5 4.66 5 5 C0.79984184 6.0096534 -3.18641435 6.16593207 -7.5 6.1875 C-8.7890625 6.20167969 -10.078125 6.21585937 -11.40625 6.23046875 C-14.77147046 6.0146557 -16.99531954 5.46189261 -20 4 C-19.34 3.01 -18.68 2.02 -18 1 C-12.01885729 -0.17486732 -6.07802513 -0.11209473 0 0 Z " fill="#E11F27" transform="translate(196,101)"/>
<path d="M0 0 C4.33575471 4.19589166 5.18006398 6.13029476 5.3125 12.1875 C5.29292931 18.07175534 4.49004944 21.31024607 1 26 C-1.18251198 22.72623203 -1.20943595 22.34283857 -0.72265625 18.69140625 C-0.62146484 17.86189453 -0.52027344 17.03238281 -0.41601562 16.17773438 C-0.29935547 15.31470703 -0.18269531 14.45167969 -0.0625 13.5625 C0.16149275 11.85631521 0.37917417 10.14928728 0.58984375 8.44140625 C0.69159912 7.68545166 0.79335449 6.92949707 0.89819336 6.15063477 C1.00528513 3.88835322 0.65801469 2.1561977 0 0 Z " fill="#EB8827" transform="translate(378,34)"/>
<path d="M0 0 C0.99 0 1.98 0 3 0 C3 0.66 3 1.32 3 2 C13.89 2 24.78 2 36 2 C36 1.34 36 0.68 36 0 C37.65 0 39.3 0 41 0 C37.99932459 3.20761854 36.12249241 4.85755084 31.59912109 5.16113281 C28.52429787 5.20682744 25.45013489 5.23530401 22.375 5.25 C21.31925781 5.270625 20.26351563 5.29125 19.17578125 5.3125 C12.76642201 5.34426882 6.79562411 4.99408776 1 2 C0.67 1.34 0.34 0.68 0 0 Z " fill="#E5A23B" transform="translate(287,151)"/>
<path d="M0 0 C-0.33 1.65 -0.66 3.3 -1 5 C-1.99 5.33 -2.98 5.66 -4 6 C-4.33 6.99 -4.66 7.98 -5 9 C-5.99 9 -6.98 9 -8 9 C-8 8.01 -8 7.02 -8 6 C-8.66 6 -9.32 6 -10 6 C-10 7.32 -10 8.64 -10 10 C-10.66 10 -11.32 10 -12 10 C-12 11.65 -12 13.3 -12 15 C-12.99 15 -13.98 15 -15 15 C-15.12375 15.639375 -15.2475 16.27875 -15.375 16.9375 C-15.58125 17.618125 -15.7875 18.29875 -16 19 C-16.66 19.33 -17.32 19.66 -18 20 C-16.22391144 13.25086347 -12.71537291 5.52551882 -6.875 1.375 C-4 0 -4 0 0 0 Z " fill="#E2762E" transform="translate(363,30)"/>
<path d="M0 0 C2.375 0.6875 2.375 0.6875 3.375 1.6875 C3.625 4.625 3.625 4.625 3.375 7.6875 C0.375 9.6875 0.375 9.6875 -2.25 9.375 C-4.625 8.6875 -4.625 8.6875 -5.625 7.6875 C-5.875 4.75 -5.875 4.75 -5.625 1.6875 C-2.625 -0.3125 -2.625 -0.3125 0 0 Z " fill="#181818" transform="translate(379.625,175.3125)"/>
<path d="M0 0 C0.66 0 1.32 0 2 0 C2 0.66 2 1.32 2 2 C1.01 2.495 1.01 2.495 0 3 C0 4.65 0 6.3 0 8 C-0.66 8 -1.32 8 -2 8 C-2 8.99 -2 9.98 -2 11 C-3.3125 12.6875 -3.3125 12.6875 -5 14 C-5.99 14 -6.98 14 -8 14 C-7.67 15.98 -7.34 17.96 -7 20 C-7.99 20 -8.98 20 -10 20 C-10.28875 20.639375 -10.5775 21.27875 -10.875 21.9375 C-12 24 -12 24 -14 25 C-12.60291053 20.28302268 -10.59126127 16.16865085 -8.125 11.9375 C-7.61646484 11.0393457 -7.61646484 11.0393457 -7.09765625 10.12304688 C-5.0052158 6.49111127 -2.81374401 3.11395519 0 0 Z " fill="#D96538" transform="translate(260,91)"/>
<path d="M0 0 C5.94 0 11.88 0 18 0 C18 0.99 18 1.98 18 3 C13.21434027 4.5626644 9.08920881 5.67215965 4 5 C2.68 3.35 1.36 1.7 0 0 Z " fill="#F6F5F7" transform="translate(103,189)"/>
<path d="M0 0 C1.485 0.99 1.485 0.99 3 2 C3 2.66 3 3.32 3 4 C3.66 4 4.32 4 5 4 C5 4.99 5 5.98 5 7 C5.66 7.33 6.32 7.66 7 8 C7.6875 10 7.6875 10 8 12 C7.67 12.33 7.34 12.66 7 13 C8.32 14.32 9.64 15.64 11 17 C7.16524836 16.78087133 6.05835887 16.05971606 3.3125 13.25 C-1.24582701 6.84370258 -1.24582701 6.84370258 -0.625 2.1875 C-0.41875 1.465625 -0.2125 0.74375 0 0 Z " fill="#E66026" transform="translate(219,137)"/>
<path d="M0 0 C2.18440548 3.27660821 2.23299237 4.14848243 2.16015625 7.9296875 C2.14919922 8.89003906 2.13824219 9.85039063 2.12695312 10.83984375 C2.10568359 11.84144531 2.08441406 12.84304687 2.0625 13.875 C2.02789226 15.8514864 1.99779411 17.82805797 1.97265625 19.8046875 C1.95468994 20.68108887 1.93672363 21.55749023 1.91821289 22.46044922 C2.00244633 25.0759605 2.41658617 27.4531028 3 30 C3.66 30 4.32 30 5 30 C5.93423645 33.01031744 6.04449911 33.86650268 5 37 C3.0625 36.6875 3.0625 36.6875 1 36 C-0.18975795 32.43072615 -0.12478155 29.20053028 -0.09765625 25.48828125 C-0.0962413 24.76005661 -0.09482635 24.03183197 -0.09336853 23.28153992 C-0.08777659 20.95848461 -0.07522562 18.63552612 -0.0625 16.3125 C-0.05748396 14.73632952 -0.05292123 13.16015752 -0.04882812 11.58398438 C-0.0378098 7.72261902 -0.02055074 3.86132592 0 0 Z " fill="#9F283E" transform="translate(115,111)"/>
<path d="M0 0 C0.66 0 1.32 0 2 0 C3.59412284 3.18824568 3.10174735 6.62896662 3.0625 10.125 C3.05798828 10.87910156 3.05347656 11.63320312 3.04882812 12.41015625 C3.03703499 14.27347127 3.01909942 16.13674555 3 18 C1.68 18 0.36 18 -1 18 C-1.02684312 15.18743719 -1.04676188 12.37512759 -1.0625 9.5625 C-1.07087891 8.76005859 -1.07925781 7.95761719 -1.08789062 7.13085938 C-1.0965143 5.08704779 -1.0522815 3.04316098 -1 1 C-0.67 0.67 -0.34 0.34 0 0 Z " fill="#080808" transform="translate(145,181)"/>
<path d="M0 0 C0.70576172 0.52400391 0.70576172 0.52400391 1.42578125 1.05859375 C2.35970703 1.74115234 2.35970703 1.74115234 3.3125 2.4375 C4.23482422 3.11619141 4.23482422 3.11619141 5.17578125 3.80859375 C8.8763418 6.22544807 12.1200907 6.11710366 16.41796875 6.09765625 C17.67158203 6.09443359 18.92519531 6.09121094 20.21679688 6.08789062 C21.52712891 6.07951172 22.83746094 6.07113281 24.1875 6.0625 C25.52278481 6.05748317 26.85807141 6.05292059 28.19335938 6.04882812 C31.46228473 6.03702695 34.73111991 6.02056297 38 6 C36 8 36 8 32.56005859 8.22705078 C31.08948021 8.22673369 29.61887858 8.21540987 28.1484375 8.1953125 C27.37440582 8.1924826 26.60037415 8.18965271 25.80288696 8.18673706 C23.32676843 8.17552754 20.8510095 8.15042203 18.375 8.125 C16.69792188 8.11497118 15.02083811 8.10584516 13.34375 8.09765625 C9.22902777 8.07558574 5.11457489 8.04105102 1 8 C0.17361624 5.10765685 0 3.11257569 0 0 Z " fill="#F8F0E0" transform="translate(221,149)"/>
<path d="M0 0 C2.97 0 5.94 0 9 0 C9.05389087 1.95803507 9.09274217 3.91648909 9.125 5.875 C9.14820313 6.96554688 9.17140625 8.05609375 9.1953125 9.1796875 C9 12 9 12 7 14 C3.375 14.125 3.375 14.125 0 14 C0 13.34 0 12.68 0 12 C2.31 12 4.62 12 7 12 C7 10.68 7 9.36 7 8 C4.69 8 2.38 8 0 8 C0 7.34 0 6.68 0 6 C2.31 6 4.62 6 7 6 C7 4.68 7 3.36 7 2 C4.69 2 2.38 2 0 2 C0 1.34 0 0.68 0 0 Z " fill="#191919" transform="translate(374,186)"/>
<path d="M0 0 C0.99 0 1.98 0 3 0 C3 0.66 3 1.32 3 2 C2.01 2.495 2.01 2.495 1 3 C0.09656316 4.88263881 0.09656316 4.88263881 -0.625 7.0625 C-0.88539063 7.79597656 -1.14578125 8.52945313 -1.4140625 9.28515625 C-1.60742188 9.85105469 -1.80078125 10.41695312 -2 11 C-4.31 11.33 -6.62 11.66 -9 12 C-9 11.34 -9 10.68 -9 10 C-8.34 10 -7.68 10 -7 10 C-7.33 8.35 -7.66 6.7 -8 5 C-7.01 4.67 -6.02 4.34 -5 4 C-5 3.34 -5 2.68 -5 2 C-3.35 2 -1.7 2 0 2 C0 1.34 0 0.68 0 0 Z " fill="#E85B22" transform="translate(267,89)"/>
<path d="M0 0 C1.65 0 3.3 0 5 0 C5 0.66 5 1.32 5 2 C5.99 1.67 6.98 1.34 8 1 C9.60355101 4.50776784 10.22036864 7.14354879 10 11 C6.88045262 10.66275164 5.3790035 10.3790035 3.125 8.125 C2.568125 7.073125 2.568125 7.073125 2 6 C2.33 5.01 2.66 4.02 3 3 C2.01 2.67 1.02 2.34 0 2 C0 1.34 0 0.68 0 0 Z " fill="#181719" transform="translate(115,178)"/>
<path d="M0 0 C1.21236328 0.01353516 1.21236328 0.01353516 2.44921875 0.02734375 C3.37154297 0.04474609 3.37154297 0.04474609 4.3125 0.0625 C3.9825 2.0425 3.6525 4.0225 3.3125 6.0625 C1.95125 6.000625 1.95125 6.000625 0.5625 5.9375 C-2.5657046 6.05781556 -4.07364006 6.4539708 -6.6875 8.0625 C-6.6875 7.0725 -6.6875 6.0825 -6.6875 5.0625 C-7.6775 4.7325 -8.6675 4.4025 -9.6875 4.0625 C-6.9209694 -0.0872959 -4.6801992 -0.06782897 0 0 Z " fill="#0D0D0F" transform="translate(243.6875,172.9375)"/>
<path d="M0 0 C2.66666667 0 5.33333333 0 8 0 C7.125 4.75 7.125 4.75 6 7 C4.68 7 3.36 7 2 7 C2 8.65 2 10.3 2 12 C1.01 12 0.02 12 -1 12 C-1.02698189 10.37509046 -1.04638757 8.75005367 -1.0625 7.125 C-1.07410156 6.22007813 -1.08570313 5.31515625 -1.09765625 4.3828125 C-1 2 -1 2 0 0 Z " fill="#F2901C" transform="translate(358,81)"/>
<path d="M0 0 C0.66 0.66 1.32 1.32 2 2 C1.67 2.66 1.34 3.32 1 4 C2.98 4 4.96 4 7 4 C7 4.66 7 5.32 7 6 C7.66 6 8.32 6 9 6 C9 7.65 9 9.3 9 11 C9.99 10.67 10.98 10.34 12 10 C11.67 11.98 11.34 13.96 11 16 C9.11266655 13.66330145 7.78807848 11.54966678 6.5 8.8125 C5.25596622 5.70295517 5.25596622 5.70295517 2 5 C1.71125 5.78375 1.4225 6.5675 1.125 7.375 C0 10 0 10 -2 12 C-2 8.66666667 -2 5.33333333 -2 2 C-1.34 2 -0.68 2 0 2 C0 1.34 0 0.68 0 0 Z " fill="#E58033" transform="translate(272,131)"/>
<path d="M0 0 C0.33 0 0.66 0 1 0 C1.04125 1.175625 1.0825 2.35125 1.125 3.5625 C1.64135445 8.1128736 3.60147423 10.3346098 6.8203125 13.45703125 C7.20960937 13.96621094 7.59890625 14.47539063 8 15 C7.67 15.99 7.34 16.98 7 18 C7 17.34 7 16.68 7 16 C5.35 16.33 3.7 16.66 2 17 C-1.88258317 11.78277886 -1.88258317 11.78277886 -2.375 8.5 C-1.92674383 5.51162556 -1.05226359 2.82795839 0 0 Z " fill="#F9F9F3" transform="translate(48,44)"/>
<path d="M0 0 C4.95 0 9.9 0 15 0 C13 4 13 4 11 5 C4.8125 5.45833333 4.8125 5.45833333 1.5625 3.625 C0 2 0 2 0 0 Z " fill="#F3F3F5" transform="translate(236,189)"/>
<path d="M0 0 C2 3 2 3 1.625 5.1875 C1.41875 5.785625 1.2125 6.38375 1 7 C0.01 7 -0.98 7 -2 7 C-1.67 7.556875 -1.34 8.11375 -1 8.6875 C0.1309601 11.30284522 0.15662974 13.1806646 0 16 C-1.32 16 -2.64 16 -4 16 C-4 15.01 -4 14.02 -4 13 C-4.99 13.33 -5.98 13.66 -7 14 C-5.23570801 9.02790438 -2.6060834 4.56561939 0 0 Z " fill="#F6F5E7" transform="translate(376,64)"/>
<path d="M0 0 C-0.32987639 2.47407292 -0.57972087 3.6637767 -2.5625 5.25 C-6.10914618 6.34127575 -9.29528399 6.12349053 -13 6 C-13 5.01 -13 4.02 -13 3 C-4.738041 -1.77676538 -4.738041 -1.77676538 0 0 Z " fill="#0E0E0F" transform="translate(121,193)"/>
<path d="M0 0 C-5.82643885 5.97976619 -5.82643885 5.97976619 -10.625 6.0625 C-11.73875 6.041875 -12.8525 6.02125 -14 6 C-13.01 5.01 -12.02 4.02 -11 3 C-11.33 2.01 -11.66 1.02 -12 0 C-7.224647 -1.68541871 -4.55270882 -2.48329572 0 0 Z " fill="#171617" transform="translate(254,194)"/>
<path d="M0 0 C0 5.28 0 10.56 0 16 C-1.32 16 -2.64 16 -4 16 C-4.08075665 13.70890403 -4.13907731 11.41700733 -4.1875 9.125 C-4.22230469 7.84882813 -4.25710937 6.57265625 -4.29296875 5.2578125 C-4.19628906 4.18273437 -4.09960938 3.10765625 -4 2 C-1 0 -1 0 0 0 Z " fill="#060607" transform="translate(194,183)"/>
<path d="M0 0 C0.99 0 1.98 0 3 0 C3 0.66 3 1.32 3 2 C3.66 2.33 4.32 2.66 5 3 C3.02 6.96 1.04 10.92 -1 15 C-2.32 14.67 -3.64 14.34 -5 14 C-5.33 13.01 -5.66 12.02 -6 11 C-4.35 10.67 -2.7 10.34 -1 10 C-1.01160156 9.36191406 -1.02320313 8.72382812 -1.03515625 8.06640625 C-1.04417969 7.24011719 -1.05320313 6.41382812 -1.0625 5.5625 C-1.07410156 4.73878906 -1.08570313 3.91507812 -1.09765625 3.06640625 C-1 1 -1 1 0 0 Z " fill="#F7EBE1" transform="translate(247,101)"/>
<path d="M0 0 C0.99 0 1.98 0 3 0 C3.04898438 0.84304687 3.09796875 1.68609375 3.1484375 2.5546875 C3.22320312 3.65039062 3.29796875 4.74609375 3.375 5.875 C3.44460937 6.96554688 3.51421875 8.05609375 3.5859375 9.1796875 C3.73253491 12.13046474 3.73253491 12.13046474 6 14 C6 15.32 6 16.64 6 18 C5.34 18 4.68 18 4 18 C2.82823482 15.87767021 1.66245215 13.75242209 0.5 11.625 C0.16613281 11.02171875 -0.16773438 10.4184375 -0.51171875 9.796875 C-3 5.2265625 -3 5.2265625 -3 3 C-2.01 3 -1.02 3 0 3 C0 2.01 0 1.02 0 0 Z " fill="#E1542F" transform="translate(213,124)"/>
<path d="M0 0 C1.65 0 3.3 0 5 0 C5.05395478 1.62463842 5.09277195 3.24978541 5.125 4.875 C5.14820313 5.77992188 5.17140625 6.68484375 5.1953125 7.6171875 C5 10 5 10 3 12 C2.01 12 1.02 12 0 12 C0 8.04 0 4.08 0 0 Z " fill="#070707" transform="translate(52,162)"/>
<path d="M0 0 C6.75 -0.125 6.75 -0.125 9 1 C8.67 2.65 8.34 4.3 8 6 C4.7 6 1.4 6 -2 6 C-1.67 5.01 -1.34 4.02 -1 3 C-2.32 2.67 -3.64 2.34 -5 2 C-3.35 2 -1.7 2 0 2 C0 1.34 0 0.68 0 0 Z " fill="#08080A" transform="translate(197,173)"/>
<path d="M0 0 C11.55 0 23.1 0 35 0 C35 0.33 35 0.66 35 1 C27.20671003 2.03910533 19.54113505 2.0690417 11.69433594 1.96289062 C10.84516602 1.95451172 9.99599609 1.94613281 9.12109375 1.9375 C8.3520874 1.92589844 7.58308105 1.91429688 6.79077148 1.90234375 C4.97600545 1.80147648 4.97600545 1.80147648 4 3 C2.33382885 3.04063832 0.66611905 3.042721 -1 3 C-0.67 2.01 -0.34 1.02 0 0 Z " fill="#F6FEF2" transform="translate(60,63)"/>
<path d="M0 0 C0 0.99 0 1.98 0 3 C-23.265 2.505 -23.265 2.505 -47 2 C-47 1.67 -47 1.34 -47 1 C-40.6279366 0.85727422 -34.25586558 0.71489279 -27.88378906 0.57275391 C-25.71484196 0.5243312 -23.54589664 0.47582886 -21.37695312 0.42724609 C-18.26432753 0.35753921 -15.15169571 0.28811616 -12.0390625 0.21875 C-11.065065 0.19687622 -10.0910675 0.17500244 -9.08755493 0.15246582 C-8.18677216 0.13244507 -7.28598938 0.11242432 -6.35791016 0.09179688 C-5.56293121 0.07403198 -4.76795227 0.05626709 -3.94888306 0.03796387 C-2.63277756 0.01232639 -1.31635518 0 0 0 Z " fill="#FEF6F3" transform="translate(243,27)"/>
<path d="M0 0 C0.99 0.66 1.98 1.32 3 2 C3 2.66 3 3.32 3 4 C-1.62 4 -6.24 4 -11 4 C-8.11823395 -1.76353211 -5.8394335 -1.33820351 0 0 Z " fill="#F2F1F3" transform="translate(115,179)"/>
<path d="M0 0 C1.093125 0.350625 2.18625 0.70125 3.3125 1.0625 C3.9725 2.3825 4.6325 3.7025 5.3125 5.0625 C0.6925 5.0625 -3.9275 5.0625 -8.6875 5.0625 C-4.6766031 0.07926446 -4.6766031 0.07926446 0 0 Z " fill="#F4F4F6" transform="translate(244.6875,177.9375)"/>
<path d="M0 0 C-0.33 0.66 -0.66 1.32 -1 2 C-3.22975091 2.58370443 -5.48598609 3.06786457 -7.75 3.5 C-12.05805202 4.32916482 -15.98198866 5.22103315 -20 7 C-20.33 6.34 -20.66 5.68 -21 5 C-14.02409081 0.06753896 -8.43435936 -0.6422101 0 0 Z " fill="#F8FDF9" transform="translate(282,83)"/>
<path d="M0 0 C0.04254356 1.99954746 0.04080783 4.00041636 0 6 C-1 7 -1 7 -2.84765625 7.09765625 C-4.8984375 7.06510417 -6.94921875 7.03255208 -9 7 C-8.67 5.02 -8.34 3.04 -8 1 C-2.25 0 -2.25 0 0 0 Z " fill="#1B1A1D" transform="translate(346,193)"/>
<path d="M0 0 C2.0625 0.4375 2.0625 0.4375 4 1 C4 2.32 4 3.64 4 5 C8.62 5 13.24 5 18 5 C18 5.66 18 6.32 18 7 C11 7 4 7 -3 7 C-1.125 1.125 -1.125 1.125 0 0 Z " fill="#2E2E2F" transform="translate(233,177)"/>
<path d="M0 0 C3 3.75 3 3.75 3 6 C4.65 6.33 6.3 6.66 8 7 C7.67 7.99 7.34 8.98 7 10 C7.66 10.33 8.32 10.66 9 11 C5.76761586 10.92303847 3.66772205 10.62561345 1.265625 8.375 C-0.21851673 6.62229929 -1.63844334 4.84920638 -3 3 C-2.01 2.01 -1.02 1.02 0 0 Z " fill="#9D3053" transform="translate(158,50)"/>
<path d="M0 0 C1.32 0.66 2.64 1.32 4 2 C4 4.97 4 7.94 4 11 C2.68 11.33 1.36 11.66 0 12 C-1 11 -1 11 -1.1328125 8.75 C-1.13023437 7.8425 -1.12765625 6.935 -1.125 6 C-1.12757813 5.0925 -1.13015625 4.185 -1.1328125 3.25 C-1 1 -1 1 0 0 Z M1 3 C2 5 2 5 2 5 Z " fill="#0A0A0C" transform="translate(261,180)"/>
<path d="M0 0 C2.75569673 -0.50103577 4.46770783 -0.33282268 6.85546875 1.16015625 C9.85060651 3.57479308 11.72627465 5.16057558 12.9375 8.875 C12.958125 9.57625 12.97875 10.2775 13 11 C10 10 10 10 8.0625 8 C5.94325285 5.94497246 4.86252086 5.40893155 2 5 C2 3.68 2 2.36 2 1 C1.34 0.67 0.68 0.34 0 0 Z " fill="#7C3263" transform="translate(133,30)"/>
<path d="M0 0 C0 3.96 0 7.92 0 12 C-0.66 12 -1.32 12 -2 12 C-2.33 14.64 -2.66 17.28 -3 20 C-3.33 20 -3.66 20 -4 20 C-4 13.73 -4 7.46 -4 1 C-2 0 -2 0 0 0 Z " fill="#D3D4D5" transform="translate(231,180)"/>
<path d="M0 0 C2.64 0 5.28 0 8 0 C8 1.98 8 3.96 8 6 C5.69 6 3.38 6 1 6 C0.4465236 3.92446352 0 2.15634036 0 0 Z " fill="#202022" transform="translate(57,172)"/>
<path d="M0 0 C0.99 0.66 1.98 1.32 3 2 C2.67 2.556875 2.34 3.11375 2 3.6875 C0.8690399 6.30284522 0.84337026 8.1806646 1 11 C0.34 11 -0.32 11 -1 11 C-1 11.66 -1 12.32 -1 13 C-2.32 13 -3.64 13 -5 13 C-5.33 13.99 -5.66 14.98 -6 16 C-7.32 15.34 -8.64 14.68 -10 14 C-9.071875 13.443125 -8.14375 12.88625 -7.1875 12.3125 C-3.1581778 9.38926624 -1.48877986 6.99955397 -0.3125 2.1875 C-0.209375 1.465625 -0.10625 0.74375 0 0 Z " fill="#F2E7E2" transform="translate(147,140)"/>
<path d="M0 0 C1.5471219 2.4571936 2.04484402 3.632279 1.6875 6.5625 C1.17232879 8.38901612 0.60013019 10.19960942 0 12 C-1.98 12.33 -3.96 12.66 -6 13 C-5.37619308 11.58280758 -4.7508997 10.1662694 -4.125 8.75 C-3.77695312 7.96109375 -3.42890625 7.1721875 -3.0703125 6.359375 C-2.09586095 4.21131392 -1.07013571 2.10170798 0 0 Z " fill="#F8F4E5" transform="translate(366,82)"/>
<path d="M0 0 C1.98 0.66 3.96 1.32 6 2 C6.33 1.34 6.66 0.68 7 0 C7 0.66 7 1.32 7 2 C7.99 2.33 8.98 2.66 10 3 C10 4.65 10 6.3 10 8 C5.17965738 7.58682778 3.09007389 5.61980085 0 2 C0 1.34 0 0.68 0 0 Z " fill="#131313" transform="translate(328,191)"/>
<path d="M0 0 C5.05008278 0.47344526 9.03898636 2.97459002 13 6 C13.99 7.485 13.99 7.485 15 9 C14.21625 9.28875 13.4325 9.5775 12.625 9.875 C9.90328368 10.84912254 9.90328368 10.84912254 8 13 C8 10.36 8 7.72 8 5 C7.01 4.67 6.02 4.34 5 4 C3.30678061 2.70055256 1.63604196 1.37073786 0 0 Z " fill="#DF753C" transform="translate(279,86)"/>
<path d="M0 0 C1.32 0.33 2.64 0.66 4 1 C4.33 2.32 4.66 3.64 5 5 C3.35 4.67 1.7 4.34 0 4 C-0.12375 4.94875 -0.2475 5.8975 -0.375 6.875 C-1 10 -1 10 -3 12 C-3.66 11.67 -4.32 11.34 -5 11 C-3.77472971 6.94718288 -2.30119506 3.55639236 0 0 Z " fill="#F5F7EC" transform="translate(274,136)"/>
<path d="M0 0 C0.66 0.66 1.32 1.32 2 2 C1.67 2.99 1.34 3.98 1 5 C1 5.66 1 6.32 1 7 C0.51979087 9.19524174 0.0080929 10.9838142 -1 13 C-2.65 13 -4.3 13 -6 13 C-4.31326082 8.50202887 -2.18326108 4.27113698 0 0 Z " fill="#F9F3DE" transform="translate(352,108)"/>
<path d="M0 0 C2.5 0.25 2.5 0.25 4.5 2.25 C4.625 5.375 4.625 5.375 4.5 8.25 C3.51 8.25 2.52 8.25 1.5 8.25 C1.83 6.27 2.16 4.29 2.5 2.25 C1.18 2.58 -0.14 2.91 -1.5 3.25 C-1.5 4.9 -1.5 6.55 -1.5 8.25 C-2.49 8.25 -3.48 8.25 -4.5 8.25 C-4.625 5.375 -4.625 5.375 -4.5 2.25 C-2.5 0.25 -2.5 0.25 0 0 Z " fill="#1A1A1A" transform="translate(378.5,164.75)"/>
<path d="M0 0 C0.99 0.33 1.98 0.66 3 1 C2.52433594 1.84304687 2.52433594 1.84304687 2.0390625 2.703125 C0.93125475 5.15196317 0.61024601 7.08387855 0.375 9.75 C0.30023438 10.54921875 0.22546875 11.3484375 0.1484375 12.171875 C0.09945312 12.77515625 0.05046875 13.3784375 0 14 C-0.33 13.34 -0.66 12.68 -1 12 C-1.99 12 -2.98 12 -4 12 C-4.37096774 6.43548387 -4.37096774 6.43548387 -2.5625 4.3125 C-1.7890625 3.6628125 -1.7890625 3.6628125 -1 3 C-0.67 2.01 -0.34 1.02 0 0 Z " fill="#F3E9ED" transform="translate(154,35)"/>
<path d="M0 0 C1.051875 0.2475 2.10375 0.495 3.1875 0.75 C-0.5625 3.75 -0.5625 3.75 -2.8125 3.75 C-2.8125 4.41 -2.8125 5.07 -2.8125 5.75 C-0.5025 5.75 1.8075 5.75 4.1875 5.75 C4.1875 6.08 4.1875 6.41 4.1875 6.75 C-1.20699293 7.02429625 -4.33175805 7.11055646 -8.8125 3.75 C-5.66311307 0.60061307 -4.55934222 -0.29897326 0 0 Z " fill="#28282A" transform="translate(172.8125,193.25)"/>
<path d="M0 0 C1.98 0 3.96 0 6 0 C6.33 2.31 6.66 4.62 7 7 C5.02 7.99 5.02 7.99 3 9 C2.01 6.03 1.02 3.06 0 0 Z " fill="#212123" transform="translate(289,172)"/>
<path d="M0 0 C0 0.66 0 1.32 0 2 C0.66 2 1.32 2 2 2 C1.67 2.99 1.34 3.98 1 5 C-0.98 5.33 -2.96 5.66 -5 6 C-5.33 5.01 -5.66 4.02 -6 3 C-2.25 0 -2.25 0 0 0 Z M-8 6 C-7.01 6 -6.02 6 -5 6 C-5 6.99 -5 7.98 -5 9 C-6.32 9 -7.64 9 -9 9 C-8.67 8.01 -8.34 7.02 -8 6 Z " fill="#FAF8ED" transform="translate(265,152)"/>
<path d="M0 0 C0.33 0.66 0.66 1.32 1 2 C1.66 2 2.32 2 3 2 C2.6875 3.9375 2.6875 3.9375 2 6 C1.01 6.33 0.02 6.66 -1 7 C-2.21869929 9.50447516 -2.21869929 9.50447516 -3 12 C-3.66 12 -4.32 12 -5 12 C-5 12.99 -5 13.98 -5 15 C-5.99 15.33 -6.98 15.66 -8 16 C-6.57250019 12.20950293 -4.83763458 8.72877544 -2.875 5.1875 C-2.33617187 4.21167969 -1.79734375 3.23585937 -1.2421875 2.23046875 C-0.83226562 1.49441406 -0.42234375 0.75835937 0 0 Z " fill="#FBEDC9" transform="translate(343,125)"/>
<path d="M0 0 C2.475 0.495 2.475 0.495 5 1 C5 1.66 5 2.32 5 3 C4.67 3.33 4.34 3.66 4 4 C5.32 4.33 6.64 4.66 8 5 C8 5.66 8 6.32 8 7 C7.34 7 6.68 7 6 7 C6 7.99 6 8.98 6 10 C6.66 10.33 7.32 10.66 8 11 C5 11 5 11 2 9 C1.59156077 6.28796348 1.86663133 3.7562858 2 1 C1.34 0.67 0.68 0.34 0 0 Z " fill="#ED5326" transform="translate(234,110)"/>
<path d="M0 0 C-1.42749981 3.79049707 -3.16236542 7.27122456 -5.125 10.8125 C-5.93324219 12.27623047 -5.93324219 12.27623047 -6.7578125 13.76953125 C-7.37269531 14.87361328 -7.37269531 14.87361328 -8 16 C-8.33 16 -8.66 16 -9 16 C-9 13.69 -9 11.38 -9 9 C-8.34 9 -7.68 9 -7 9 C-6.87625 7.88625 -6.87625 7.88625 -6.75 6.75 C-5.79113195 3.23415048 -3.97054162 0 0 0 Z " fill="#F6F1E0" transform="translate(347,45)"/>
<path d="M0 0 C1 3 1 3 1 7 C0.01 7.495 0.01 7.495 -1 8 C-1.68729254 10.11846285 -1.68729254 10.11846285 -2.125 12.5625 C-2.29257812 13.38878906 -2.46015625 14.21507813 -2.6328125 15.06640625 C-2.75398438 15.70449219 -2.87515625 16.34257813 -3 17 C-3.66 17 -4.32 17 -5 17 C-4.67 15.68 -4.34 14.36 -4 13 C-4.66 13 -5.32 13 -6 13 C-4.58707905 8.1725201 -2.57025846 4.2837641 0 0 Z " fill="#E48532" transform="translate(329,78)"/>
<path d="M0 0 C0.763125 0.0825 1.52625 0.165 2.3125 0.25 C2.6425 1.9 2.9725 3.55 3.3125 5.25 C1.3325 5.91 -0.6475 6.57 -2.6875 7.25 C-3.6775 6.26 -4.6675 5.27 -5.6875 4.25 C-3.34903846 0.31153846 -3.34903846 0.31153846 0 0 Z " fill="#E32625" transform="translate(211.6875,85.75)"/>
<path d="M0 0 C0.33 0.66 0.66 1.32 1 2 C1.99 2.33 2.98 2.66 4 3 C4 5.64 4 8.28 4 11 C2 11 2 11 0.375 9.875 C-1.57954579 7.20971028 -1.27446781 5.22499679 -1 2 C-0.67 1.34 -0.34 0.68 0 0 Z " fill="#060607" transform="translate(53,179)"/>
<path d="M0 0 C0.33 0.66 0.66 1.32 1 2 C0.67 2.66 0.34 3.32 0 4 C0.66 4 1.32 4 2 4 C2 5.32 2 6.64 2 8 C1.360625 8.103125 0.72125 8.20625 0.0625 8.3125 C-0.9584375 8.6528125 -0.9584375 8.6528125 -2 9 C-2.33 9.99 -2.66 10.98 -3 12 C-3.66 12 -4.32 12 -5 12 C-4.50769231 4.61538462 -4.50769231 4.61538462 -1.9375 1.5 C-1.298125 1.005 -0.65875 0.51 0 0 Z " fill="#131314" transform="translate(164,176)"/>
<path d="M0 0 C1.77155654 0.11429397 3.54226229 0.24183037 5.3125 0.375 C6.79169922 0.47941406 6.79169922 0.47941406 8.30078125 0.5859375 C11 1 11 1 14 3 C13.34 4.32 12.68 5.64 12 7 C10.948125 6.360625 9.89625 5.72125 8.8125 5.0625 C5.89171588 3.38245548 3.3828257 2.41003948 0 2 C0 1.34 0 0.68 0 0 Z " fill="#7F3165" transform="translate(101,60)"/>
<path d="M0 0 C0.66 0 1.32 0 2 0 C1.67 1.32 1.34 2.64 1 4 C0.34 3.67 -0.32 3.34 -1 3 C-1 4.32 -1 5.64 -1 7 C-1.66 7 -2.32 7 -3 7 C-3 8.65 -3 10.3 -3 12 C-3.99 12 -4.98 12 -6 12 C-6.12375 12.639375 -6.2475 13.27875 -6.375 13.9375 C-6.58125 14.618125 -6.7875 15.29875 -7 16 C-7.66 16.33 -8.32 16.66 -9 17 C-7.46933687 11.18348012 -4.32262613 4.32262613 0 0 Z " fill="#D98041" transform="translate(354,33)"/>
<path d="M0 0 C0.99 0 1.98 0 3 0 C3 1.65 3 3.3 3 5 C2.34 5 1.68 5 1 5 C1 8.96 1 12.92 1 17 C0.34 17.33 -0.32 17.66 -1 18 C-0.98839844 17.18015625 -0.97679687 16.3603125 -0.96484375 15.515625 C-0.95130859 13.89914063 -0.95130859 13.89914063 -0.9375 12.25 C-0.92589844 11.18265625 -0.91429687 10.1153125 -0.90234375 9.015625 C-0.87818058 6.09286902 -0.87818058 6.09286902 -1.62890625 3.734375 C-1.75136719 3.16203125 -1.87382812 2.5896875 -2 2 C-1.34 1.34 -0.68 0.68 0 0 Z " fill="#FCEBE9" transform="translate(217,81)"/>
<path d="M0 0 C0.33 0 0.66 0 1 0 C1 2.97 1 5.94 1 9 C1.99 9.33 2.98 9.66 4 10 C4 10.66 4 11.32 4 12 C4.66 12.33 5.32 12.66 6 13 C6.33 13.66 6.66 14.32 7 15 C5.35 15.33 3.7 15.66 2 16 C-0.14336161 12.5233662 -0.21277626 9.78770805 -0.125 5.75 C-0.10695312 4.67234375 -0.08890625 3.5946875 -0.0703125 2.484375 C-0.04710937 1.66453125 -0.02390625 0.8446875 0 0 Z " fill="#222222" transform="translate(51,178)"/>
<path d="M0 0 C4.02511753 0.61924885 6.82648821 2.51638207 10 5 C11.375 7.75 11.375 7.75 12 10 C10.68 9.67 9.36 9.34 8 9 C7.67 9.66 7.34 10.32 7 11 C7 10.01 7 9.02 7 8 C7.66 8 8.32 8 9 8 C8.67 7.34 8.34 6.68 8 6 C5.47266765 5.34444881 5.47266765 5.34444881 3 5 C3 4.01 3 3.02 3 2 C2.01 2 1.02 2 0 2 C0 1.34 0 0.68 0 0 Z " fill="#D7603B" transform="translate(230,105)"/>
<path d="M0 0 C2.97 1.98 2.97 1.98 6 4 C5.34 5.32 4.68 6.64 4 8 C3.34 7.67 2.68 7.34 2 7 C1.67 7.99 1.34 8.98 1 10 C-1 4.375 -1 4.375 -1 1 C-0.67 0.67 -0.34 0.34 0 0 Z " fill="#E8E8E9" transform="translate(93,175)"/>
<path d="M0 0 C2.31 0 4.62 0 7 0 C7 0.99 7 1.98 7 3 C5 5 5 5 2.375 5.125 C1.59125 5.08375 0.8075 5.0425 0 5 C-0.33 4.34 -0.66 3.68 -1 3 C-0.67 2.01 -0.34 1.02 0 0 Z " fill="#060709" transform="translate(213,173)"/>
<path d="M0 0 C1.32 0.33 2.64 0.66 4 1 C1.69 5.29 -0.62 9.58 -3 14 C-3.33 14 -3.66 14 -4 14 C-3.25 7.375 -3.25 7.375 -1 4 C-0.34 4 0.32 4 1 4 C0.67 2.68 0.34 1.36 0 0 Z " fill="#ECA031" transform="translate(337,129)"/>
<path d="M0 0 C0.66 0 1.32 0 2 0 C5.07692308 5.29230769 5.07692308 5.29230769 4.6875 8.875 C4.460625 9.57625 4.23375 10.2775 4 11 C3.01 11.33 2.02 11.66 1 12 C0.67 8.04 0.34 4.08 0 0 Z " fill="#F6E7E1" transform="translate(251,38)"/>
<path d="M0 0 C1.98 0.495 1.98 0.495 4 1 C4.25 3.8125 4.25 3.8125 4 7 C2 8.875 2 8.875 0 10 C-0.95024979 6.30458414 -0.95024979 3.69541586 0 0 Z " fill="#070709" transform="translate(161,183)"/>
<path d="M0 0 C0.66666667 1.33333333 1.33333333 2.66666667 2 4 C2.391875 4.680625 2.78375 5.36125 3.1875 6.0625 C4 8 4 8 3 11 C1.68 10.67 0.36 10.34 -1 10 C-2.46726798 6.18510326 -1.43336419 3.70988378 0 0 Z " fill="#C42B41" transform="translate(117,137)"/>
<path d="M0 0 C0.66 0 1.32 0 2 0 C2 2.97 2 5.94 2 9 C1.34 8.67 0.68 8.34 0 8 C0 7.34 0 6.68 0 6 C-0.66 6 -1.32 6 -2 6 C-2.12375 6.639375 -2.2475 7.27875 -2.375 7.9375 C-2.58125 8.618125 -2.7875 9.29875 -3 10 C-3.99 10.495 -3.99 10.495 -5 11 C-3.78065514 6.96678237 -2.44045073 3.45730521 0 0 Z " fill="#E48A31" transform="translate(315,104)"/>
<path d="M0 0 C0.99 0.33 1.98 0.66 3 1 C0.69 5.62 -1.62 10.24 -4 15 C-4.33 15 -4.66 15 -5 15 C-5 12.69 -5 10.38 -5 8 C-4.01 8 -3.02 8 -2 8 C-1.7834375 7.13375 -1.7834375 7.13375 -1.5625 6.25 C-1.04166667 4.16666667 -0.52083333 2.08333333 0 0 Z " fill="#E79B39" transform="translate(360,88)"/>
<path d="M0 0 C1.98 0 3.96 0 6 0 C4.25 5.75 4.25 5.75 2 8 C1.67 7.01 1.34 6.02 1 5 C0.34 4.67 -0.32 4.34 -1 4 C-0.67 2.68 -0.34 1.36 0 0 Z " fill="#28282A" transform="translate(319,172)"/>
<path d="M0 0 C1.66926454 0.97473126 3.33535642 1.95489789 5 2.9375 C6.3921875 3.75541016 6.3921875 3.75541016 7.8125 4.58984375 C8.534375 5.05519531 9.25625 5.52054687 10 6 C10 6.33 10 6.66 10 7 C7.36 7.33 4.72 7.66 2 8 C0.93224776 6.03533587 -0.06553465 4.03144641 -1 2 C-0.67 1.34 -0.34 0.68 0 0 Z " fill="#F6ECEA" transform="translate(156,102)"/>
<path d="M0 0 C2.72869407 0.03287583 5.2966618 0.56397771 8 1 C8 2.98 8 4.96 8 7 C4.7 5.35 1.4 3.7 -2 2 C-1.34 1.34 -0.68 0.68 0 0 Z " fill="#F5F3E8" transform="translate(284,85)"/>
<path d="M0 0 C2.97 0.495 2.97 0.495 6 1 C6 1.33 6 1.66 6 2 C4.9275 2.268125 3.855 2.53625 2.75 2.8125 C-0.56508928 3.86227827 -2.43877646 4.74612328 -5 7 C-5.66 6.67 -6.32 6.34 -7 6 C-6.67 4.68 -6.34 3.36 -6 2 C-4.02 2 -2.04 2 0 2 C0 1.34 0 0.68 0 0 Z " fill="#F2EDEF" transform="translate(162,28)"/>
<path d="M0 0 C0 1.65 0 3.3 0 5 C-3.21451269 6.60725635 -6.43612536 6.05748185 -10 6 C-10 5.67 -10 5.34 -10 5 C-8.02 4.34 -6.04 3.68 -4 3 C-4.99 2.01 -5.98 1.02 -7 0 C-2.25 -1.125 -2.25 -1.125 0 0 Z " fill="#272729" transform="translate(279,194)"/>
<path d="M0 0 C0.66 0.33 1.32 0.66 2 1 C1.9278125 1.67546875 1.855625 2.3509375 1.78125 3.046875 C1.6884375 3.93890625 1.595625 4.8309375 1.5 5.75 C1.4071875 6.63171875 1.314375 7.5134375 1.21875 8.421875 C0.94363687 11.23304835 0.94363687 11.23304835 1 15 C0.34 15 -0.32 15 -1 15 C-1.66 11.7 -2.32 8.4 -3 5 C-2.34 4.67 -1.68 4.34 -1 4 C-0.34786708 1.97536745 -0.34786708 1.97536745 0 0 Z " fill="#F8F3E6" transform="translate(209,114)"/>
<path d="M0 0 C4.96148579 4.80143786 4.96148579 4.80143786 5.09765625 9.0390625 C5.08605469 10.22242188 5.07445312 11.40578125 5.0625 12.625 C5.05347656 13.81351563 5.04445313 15.00203125 5.03515625 16.2265625 C5.02355469 17.14179687 5.01195312 18.05703125 5 19 C4.67 19 4.34 19 4 19 C3.95101563 18.39671875 3.90203125 17.7934375 3.8515625 17.171875 C3.77679688 16.37265625 3.70203125 15.5734375 3.625 14.75 C3.55539062 13.96109375 3.48578125 13.1721875 3.4140625 12.359375 C2.98193785 9.89707981 2.15389001 8.19960284 1 6 C0.61709538 4.00889599 0.27395385 2.00899487 0 0 Z " fill="#DE8F43" transform="translate(378,34)"/>
<path d="M0 0 C0.66 0.33 1.32 0.66 2 1 C1.67 2.65 1.34 4.3 1 6 C0.01 6.33 -0.98 6.66 -2 7 C-2.33 9.97 -2.66 12.94 -3 16 C-3.66 16 -4.32 16 -5 16 C-4.74213573 9.47603393 -4.17832479 5.12181749 0 0 Z " fill="#CE5139" transform="translate(214,109)"/>
<path d="M0 0 C0.66 0 1.32 0 2 0 C1.52797514 4.24822374 -0.96655518 6.19989709 -4 9 C-4.99 8.34 -5.98 7.68 -7 7 C-6.34 6.01 -5.68 5.02 -5 4 C-3.68 4 -2.36 4 -1 4 C-0.67 2.68 -0.34 1.36 0 0 Z " fill="#D4453B" transform="translate(214,97)"/>
<path d="M0 0 C2.45484649 2.13464912 3.68134222 3.70720291 4 7 C3.34 7.66 2.68 8.32 2 9 C1.01 9 0.02 9 -1 9 C-1.09765625 2.84765625 -1.09765625 2.84765625 -1 1 C-0.67 0.67 -0.34 0.34 0 0 Z " fill="#EFEFF1" transform="translate(288,173)"/>
<path d="M0 0 C0.33 0.99 0.66 1.98 1 3 C2.65 3.33 4.3 3.66 6 4 C2.91111478 6.05925681 2.29064073 6.2390374 -1.1875 6.125 C-3.0746875 6.063125 -3.0746875 6.063125 -5 6 C-5 5.01 -5 4.02 -5 3 C-3.68 3 -2.36 3 -1 3 C-0.67 2.01 -0.34 1.02 0 0 Z " fill="#F5851A" transform="translate(311,116)"/>
<path d="M0 0 C0.33 0.66 0.66 1.32 1 2 C0.01 2.495 0.01 2.495 -1 3 C-1.99 4.485 -1.99 4.485 -3 6 C-5.625 6.6875 -5.625 6.6875 -8 7 C-7.67 5.35 -7.34 3.7 -7 2 C-4.69 1.34 -2.38 0.68 0 0 Z " fill="#983361" transform="translate(168,29)"/>
<path d="M0 0 C1.45212891 0.10054687 1.45212891 0.10054687 2.93359375 0.203125 C5.80781901 0.80103219 6.76799962 1.48710461 8.5625 3.75 C7.58410156 3.62431641 7.58410156 3.62431641 6.5859375 3.49609375 C1.68000856 2.92445896 -2.56877185 2.59688018 -7.4375 3.75 C-7.4375 2.76 -7.4375 1.77 -7.4375 0.75 C-4.77091988 -0.58329006 -2.96049672 -0.23589615 0 0 Z " fill="#F7ECDB" transform="translate(365.4375,27.25)"/>
<path d="M0 0 C1.32 0.33 2.64 0.66 4 1 C4 2.65 4 4.3 4 6 C1.03 5.505 1.03 5.505 -2 5 C-2 4.01 -2 3.02 -2 2 C-1.34 1.67 -0.68 1.34 0 1 C0 0.67 0 0.34 0 0 Z " fill="#1F1F20" transform="translate(61,194)"/>
<path d="M0 0 C1.32 0 2.64 0 4 0 C4.8125 1.6875 4.8125 1.6875 5 4 C2.6875 6.75 2.6875 6.75 0 9 C-0.66 9 -1.32 9 -2 9 C-1.25 4.25 -1.25 4.25 1 2 C0.67 1.34 0.34 0.68 0 0 Z " fill="#0F0F11" transform="translate(192,176)"/>
<path d="M0 0 C2.46800047 1.15173355 4.04783565 2.04783565 6 4 C4.1875 5.5625 4.1875 5.5625 2 7 C1.01 6.67 0.02 6.34 -1 6 C-1.33 5.01 -1.66 4.02 -2 3 C-1.34 2.01 -0.68 1.02 0 0 Z " fill="#1B1B1B" transform="translate(263,176)"/>
<path d="M0 0 C0.66 0.33 1.32 0.66 2 1 C0.68 3.64 -0.64 6.28 -2 9 C-2.99 8.34 -3.98 7.68 -5 7 C-4.60196439 4.11424181 -4.20990931 3.17810487 -1.9375 1.25 C-1.298125 0.8375 -0.65875 0.425 0 0 Z " fill="#F69D1F" transform="translate(332,137)"/>
<path d="M0 0 C0.33 0.66 0.66 1.32 1 2 C2.94603274 2.59070014 2.94603274 2.59070014 5 3 C5.66 3.33 6.32 3.66 7 4 C7 4.66 7 5.32 7 6 C5.68 5.67 4.36 5.34 3 5 C3 5.66 3 6.32 3 7 C1.68 6.34 0.36 5.68 -1 5 C-0.67 3.35 -0.34 1.7 0 0 Z " fill="#C32A3C" transform="translate(159,99)"/>
<path d="M0 0 C0.33 0.66 0.66 1.32 1 2 C1.66 2.33 2.32 2.66 3 3 C-1.75 8.75 -1.75 8.75 -4 11 C-3.38461538 3.49230769 -3.38461538 3.49230769 -1.4375 1 C-0.963125 0.67 -0.48875 0.34 0 0 Z " fill="#F2E6E8" transform="translate(158,76)"/>
<path d="M0 0 C0 1.65 0 3.3 0 5 C-1.65 5.33 -3.3 5.66 -5 6 C-5.33 5.01 -5.66 4.02 -6 3 C-6.33 2.34 -6.66 1.68 -7 1 C-4.53721199 -0.231394 -2.7204945 -0.07159196 0 0 Z " fill="#0F1012" transform="translate(157,173)"/>
<path d="M0 0 C0.99 0.33 1.98 0.66 3 1 C3.33 2.98 3.66 4.96 4 7 C5.65 7 7.3 7 9 7 C9 7.33 9 7.66 9 8 C5.05272412 8.17942163 2.4019487 8.09350689 -1 6 C-0.67 4.02 -0.34 2.04 0 0 Z " fill="#C62E39" transform="translate(122,147)"/>
<path d="M0 0 C-0.33 0.66 -0.66 1.32 -1 2 C0.32 3.32 1.64 4.64 3 6 C-0.67420866 5.69381595 -1.78135513 5.24228216 -4.3125 2.4375 C-4.869375 1.633125 -5.42625 0.82875 -6 0 C-3.50907189 -1.24546405 -2.58919267 -0.7767578 0 0 Z " fill="#E06A2E" transform="translate(227,148)"/>
<path d="M0 0 C2.1640625 0.0234375 2.1640625 0.0234375 4.625 0.375 C5.85089844 0.54128906 5.85089844 0.54128906 7.1015625 0.7109375 C7.72804687 0.80632812 8.35453125 0.90171875 9 1 C8.01 1.495 8.01 1.495 7 2 C6.27840576 3.64363134 5.60648579 5.31050386 5 7 C4.34 6.67 3.68 6.34 3 6 C3 4.68 3 3.36 3 2 C1.35 2 -0.3 2 -2 2 C-1.34 1.34 -0.68 0.68 0 0 Z " fill="#F4E6E1" transform="translate(207,107)"/>
<path d="M0 0 C1.80411967 2.75924185 2.0127245 3.88972103 1.625 7.25 C1.41875 8.1575 1.2125 9.065 1 10 C0.34 10 -0.32 10 -1 10 C-2.1875 7.8125 -2.1875 7.8125 -3 5 C-1.625 2.1875 -1.625 2.1875 0 0 Z " fill="#F8F5E8" transform="translate(356,101)"/>
<path d="M0 0 C0.99 0 1.98 0 3 0 C3 0.66 3 1.32 3 2 C3.66 2.33 4.32 2.66 5 3 C4.67 3.99 4.34 4.98 4 6 C2.35 6 0.7 6 -1 6 C-1.042721 4.33388095 -1.04063832 2.66617115 -1 1 C-0.67 0.67 -0.34 0.34 0 0 Z " fill="#F7F6F0" transform="translate(247,101)"/>
<path d="M0 0 C0.33 0 0.66 0 1 0 C1 4.62 1 9.24 1 14 C0.67 14 0.34 14 0 14 C0 12.02 0 10.04 0 8 C-2.31 8 -4.62 8 -7 8 C-6.67 7.34 -6.34 6.68 -6 6 C-3.4375 5.375 -3.4375 5.375 -1 5 C-0.67 3.35 -0.34 1.7 0 0 Z " fill="#C1C1C1" transform="translate(383,178)"/>
<path d="M0 0 C0 0.66 0 1.32 0 2 C-2.31 2.33 -4.62 2.66 -7 3 C-7 3.66 -7 4.32 -7 5 C-8.65 5 -10.3 5 -12 5 C-8.55392327 1.00980589 -5.20909181 0 0 0 Z " fill="#D96C45" transform="translate(274,86)"/>
<path d="M0 0 C0.99 0 1.98 0 3 0 C3.66 0.66 4.32 1.32 5 2 C5.66 2.33 6.32 2.66 7 3 C6.67 4.65 6.34 6.3 6 8 C5.67 7.01 5.34 6.02 5 5 C4.34 5 3.68 5 3 5 C3 4.34 3 3.68 3 3 C2.01 3 1.02 3 0 3 C-0.33 3.66 -0.66 4.32 -1 5 C-0.67 3.35 -0.34 1.7 0 0 Z " fill="#F4FAF0" transform="translate(318,81)"/>
<path d="M0 0 C4.75 0.75 4.75 0.75 7 3 C5 5 5 5 1.875 5.125 C0.451875 5.063125 0.451875 5.063125 -1 5 C-0.34 4.67 0.32 4.34 1 4 C0.67 2.68 0.34 1.36 0 0 Z " fill="#070709" transform="translate(269,194)"/>
<path d="M0 0 C2.31 0 4.62 0 7 0 C7 1.32 7 2.64 7 4 C4.69 4 2.38 4 0 4 C0 2.66666667 0 1.33333333 0 0 Z " fill="#E9E9E9" transform="translate(374,188)"/>
<path d="M0 0 C0.99 0.33 1.98 0.66 3 1 C2.67 2.65 2.34 4.3 2 6 C0.68 5.67 -0.64 5.34 -2 5 C-2 3.68 -2 2.36 -2 1 C-1.34 0.67 -0.68 0.34 0 0 Z " fill="#EAEAEA" transform="translate(378,177)"/>
<path d="M0 0 C1.32 0.33 2.64 0.66 4 1 C4 2.65 4 4.3 4 6 C4.99 5.67 5.98 5.34 7 5 C6.67 6.98 6.34 8.96 6 11 C3.13546142 7.58983503 1.65296434 4.09305456 0 0 Z " fill="#E18D3A" transform="translate(277,136)"/>
<path d="M0 0 C3.36591427 2.72478774 4.44226276 6.06856792 6 10 C5.01 10 4.02 10 3 10 C3 9.01 3 8.02 3 7 C2.01 6.67 1.02 6.34 0 6 C0 4.02 0 2.04 0 0 Z " fill="#F7EBE2" transform="translate(210,129)"/>
<path d="M0 0 C2.97 0.33 5.94 0.66 9 1 C8.67 2.32 8.34 3.64 8 5 C7.01 4.67 6.02 4.34 5 4 C2.85744207 4.38932856 2.85744207 4.38932856 1 5 C1.33 4.34 1.66 3.68 2 3 C2.66 3 3.32 3 4 3 C4 2.34 4 1.68 4 1 C2.68 0.67 1.36 0.34 0 0 Z " fill="#E94A21" transform="translate(224,106)"/>
<path d="M0 0 C2.75 -0.25 2.75 -0.25 6 0 C8.375 2 8.375 2 10 4 C9.67 4.99 9.34 5.98 9 7 C8.443125 6.38125 7.88625 5.7625 7.3125 5.125 C4.93354822 2.93893621 3.03642904 2.01214301 0 1 C0 0.67 0 0.34 0 0 Z " fill="#F3E7E1" transform="translate(205,76)"/>
<path d="M0 0 C0.66 0.33 1.32 0.66 2 1 C1.69381595 4.67420866 1.24228216 5.78135513 -1.5625 8.3125 C-2.366875 8.869375 -3.17125 9.42625 -4 10 C-4 9.01 -4 8.02 -4 7 C-3.34 7 -2.68 7 -2 7 C-2 5.68 -2 4.36 -2 3 C-2 2.34 -2 1.68 -2 1 C-1.34 0.67 -0.68 0.34 0 0 Z " fill="#D43335" transform="translate(248,50)"/>
<path d="M0 0 C0 0.33 0 0.66 0 1 C-0.66386719 1.12117188 -1.32773437 1.24234375 -2.01171875 1.3671875 C-6.53424459 2.22547708 -10.79938524 3.03971311 -15 5 C-15.33 4.34 -15.66 3.68 -16 3 C-10.4477112 0.1647887 -6.19887485 -0.37952295 0 0 Z " fill="#F8F3E5" transform="translate(277,85)"/>
<path d="M0 0 C7.57142857 1.85714286 7.57142857 1.85714286 10 5 C9.67 5.66 9.34 6.32 9 7 C6 6 6 6 4 4 C2.68252676 3.30251417 1.35085807 2.63040043 0 2 C0 1.34 0 0.68 0 0 Z " fill="#CD2935" transform="translate(240,31)"/>
<path d="M0 0 C0 0.99 0 1.98 0 3 C-5.61 2.67 -11.22 2.34 -17 2 C-17 1.67 -17 1.34 -17 1 C-14.54171921 0.83252588 -12.08338135 0.6659856 -9.625 0.5 C-8.92632812 0.45230469 -8.22765625 0.40460937 -7.5078125 0.35546875 C-2.2265625 0 -2.2265625 0 0 0 Z " fill="#F8EBE7" transform="translate(243,27)"/>
<path d="M0 0 C1.65 0 3.3 0 5 0 C5 1.32 5 2.64 5 4 C2.69 4 0.38 4 -2 4 C-1.34 2.68 -0.68 1.36 0 0 Z " fill="#F0F0F0" transform="translate(376,194)"/>
<path d="M0 0 C3 0 3 0 5 1 C3.68 3.31 2.36 5.62 1 8 C-1 5 -1 5 -0.625 2.3125 C-0.41875 1.549375 -0.2125 0.78625 0 0 Z " fill="#F7F1E6" transform="translate(312,101)"/>
<path d="M0 0 C1.1875 1.625 1.1875 1.625 2 4 C0.625 7.25 0.625 7.25 -1 10 C-1.66 9.67 -2.32 9.34 -3 9 C-2.649375 8.236875 -2.29875 7.47375 -1.9375 6.6875 C-0.67639116 3.95240621 -0.67639116 3.95240621 -2 1 C-1.34 0.67 -0.68 0.34 0 0 Z " fill="#F8F3E6" transform="translate(330,70)"/>
<path d="M0 0 C0 0.66 0 1.32 0 2 C-2 3.625 -2 3.625 -4 5 C-5.65 3.68 -7.3 2.36 -9 1 C-6.04335481 -0.4783226 -3.25770263 -0.06032783 0 0 Z " fill="#F7F4E4" transform="translate(383,30)"/>
<path d="M0 0 C0.6875 1.6875 0.6875 1.6875 1 4 C-0.4375 6.75 -0.4375 6.75 -2 9 C-2.99 8.67 -3.98 8.34 -5 8 C-5 6 -5 6 -3.625 4.5625 C-3.08875 4.046875 -2.5525 3.53125 -2 3 C-1.34 2.01 -0.68 1.02 0 0 Z " fill="#202021" transform="translate(316,189)"/>
<path d="M0 0 C0.99 0.33 1.98 0.66 3 1 C3 3.31 3 5.62 3 8 C1.68 7.01 0.36 6.02 -1 5 C-0.67 3.35 -0.34 1.7 0 0 Z " fill="#EA8827" transform="translate(284,143)"/>
<path d="M0 0 C3.43774463 1.14591488 4.17413159 1.95688598 6 5 C6 6.32 6 7.64 6 9 C5.34 9 4.68 9 4 9 C2.68 6.03 1.36 3.06 0 0 Z " fill="#D46536" transform="translate(213,133)"/>
<path d="M0 0 C1.32 0 2.64 0 4 0 C4.33 1.65 4.66 3.3 5 5 C4.34 5 3.68 5 3 5 C2.67 6.65 2.34 8.3 2 10 C1.0172032 7.05160959 1 5.05869028 1 2 C0.67 1.34 0.34 0.68 0 0 Z " fill="#F2FAF5" transform="translate(206,109)"/>
<path d="M0 0 C0.66 0.66 1.32 1.32 2 2 C1.34 2 0.68 2 0 2 C-0.33 3.32 -0.66 4.64 -1 6 C-2.32 6.33 -3.64 6.66 -5 7 C-4.1875 4.0625 -4.1875 4.0625 -3 1 C-2.01 0.67 -1.02 0.34 0 0 Z " fill="#B92444" transform="translate(162,79)"/>
<path d="M0 0 C0.33 0.99 0.66 1.98 1 3 C-1.91482778 3.80967438 -3.46113217 4.21845993 -6.3125 3.0625 C-6.869375 2.711875 -7.42625 2.36125 -8 2 C-4.77208445 -0.1519437 -3.71599191 -0.20086443 0 0 Z " fill="#AF3247" transform="translate(168,77)"/>
<path d="M0 0 C2.5 2.3125 2.5 2.3125 5 5 C5 5.99 5 6.98 5 8 C3.35 7.67 1.7 7.34 0 7 C0.66 6.67 1.32 6.34 2 6 C2 5.34 2 4.68 2 4 C1.01 3.67 0.02 3.34 -1 3 C-0.67 2.01 -0.34 1.02 0 0 Z " fill="#F5E9ED" transform="translate(155,53)"/>
<path d="M0 0 C0.33 0 0.66 0 1 0 C1.25 6.625 1.25 6.625 -1 10 C-1.66 10 -2.32 10 -3 10 C-2.25 3.375 -2.25 3.375 0 0 Z " fill="#E4E6E7" transform="translate(280,183)"/>
<path d="M0 0 C1.98 0 3.96 0 6 0 C6 0.66 6 1.32 6 2 C8.31 2 10.62 2 13 2 C13 2.33 13 2.66 13 3 C11.20841511 3.02696365 9.41671527 3.04637917 7.625 3.0625 C6.62726563 3.07410156 5.62953125 3.08570313 4.6015625 3.09765625 C2 3 2 3 0 2 C0 1.34 0 0.68 0 0 Z " fill="#F7911A" transform="translate(291,151)"/>
<path d="M0 0 C0.33 0.99 0.66 1.98 1 3 C1.66 3.33 2.32 3.66 3 4 C1.35 6.31 -0.3 8.62 -2 11 C-2.33 10.01 -2.66 9.02 -3 8 C-2.34 8 -1.68 8 -1 8 C-0.67 5.36 -0.34 2.72 0 0 Z " fill="#E08B43" transform="translate(267,141)"/>
<path d="M0 0 C1.32 0.33 2.64 0.66 4 1 C4.33 2.32 4.66 3.64 5 5 C2.69 5 0.38 5 -2 5 C-1.34 3.35 -0.68 1.7 0 0 Z " fill="#F6EFDA" transform="translate(274,136)"/>
<path d="M0 0 C1.32 0 2.64 0 4 0 C3.25 4.75 3.25 4.75 1 7 C1 6.01 1 5.02 1 4 C0.34 4 -0.32 4 -1 4 C-0.67 2.68 -0.34 1.36 0 0 Z " fill="#EC9328" transform="translate(362,81)"/>
<path d="M0 0 C0.99 0.33 1.98 0.66 3 1 C2.25 7.75 2.25 7.75 0 10 C0 6.7 0 3.4 0 0 Z " fill="#F4EAD3" transform="translate(383,40)"/>
<path d="M0 0 C0 0.66 0 1.32 0 2 C-2.97 2.66 -5.94 3.32 -9 4 C-9 3.01 -9 2.02 -9 1 C-5.92677456 0.08941469 -3.19902639 -0.08886184 0 0 Z " fill="#FDFAEF" transform="translate(368,24)"/>
<path d="M0 0 C4.875 4.75 4.875 4.75 6 7 C4.35 7 2.7 7 1 7 C1 6.01 1 5.02 1 4 C0.34 3.67 -0.32 3.34 -1 3 C-0.67 2.01 -0.34 1.02 0 0 Z " fill="#F8F4E3" transform="translate(281,145)"/>
<path d="M0 0 C0.33 0.66 0.66 1.32 1 2 C1.66 2 2.32 2 3 2 C2.67 3.32 2.34 4.64 2 6 C0.68 6.33 -0.64 6.66 -2 7 C-1.125 1.125 -1.125 1.125 0 0 Z " fill="#F9F7E3" transform="translate(343,125)"/>
<path d="M0 0 C5.57142857 5.14285714 5.57142857 5.14285714 6 9 C5.67 8.34 5.34 7.68 5 7 C4.01 7.33 3.02 7.66 2 8 C1.67 7.34 1.34 6.68 1 6 C1.33 5.34 1.66 4.68 2 4 C1.34 4 0.68 4 0 4 C0 2.68 0 1.36 0 0 Z " fill="#EBE6EF" transform="translate(50,53)"/>
<path d="M0 0 C1.65 0 3.3 0 5 0 C5.33 0.99 5.66 1.98 6 3 C6.99 3.33 7.98 3.66 9 4 C8.01 4.495 8.01 4.495 7 5 C1.27272727 2.54545455 1.27272727 2.54545455 0 0 Z " fill="#5B3D77" transform="translate(54,57)"/>
<path d="M0 0 C0.66 0.33 1.32 0.66 2 1 C1.625 3.9375 1.625 3.9375 1 7 C0.01 7.495 0.01 7.495 -1 8 C-1.33 7.01 -1.66 6.02 -2 5 C-1.67 4.34 -1.34 3.68 -1 3 C-1.66 2.67 -2.32 2.34 -3 2 C-2.01 1.34 -1.02 0.68 0 0 Z " fill="#141617" transform="translate(179,191)"/>
<path d="M0 0 C0.99 1.32 1.98 2.64 3 4 C2.01 4.33 1.02 4.66 0 5 C-0.73323796 7.01508358 -0.73323796 7.01508358 -1 9 C-1.99 8.67 -2.98 8.34 -4 8 C-2.68 5.36 -1.36 2.72 0 0 Z " fill="#DC873E" transform="translate(335,66)"/>
<path d="M0 0 C2 0 2 0 3.625 1.5 C4.07875 1.995 4.5325 2.49 5 3 C4.34 4.65 3.68 6.3 3 8 C2.34 7.01 1.68 6.02 1 5 C0.67 5 0.34 5 0 5 C0 3.35 0 1.7 0 0 Z " fill="#FCF4E1" transform="translate(330,64)"/>
<path d="M0 0 C1.32 0 2.64 0 4 0 C4.66 1.65 5.32 3.3 6 5 C5.01 5.495 5.01 5.495 4 6 C2.62437146 4.71034824 1.29233607 3.37310707 0 2 C0 1.34 0 0.68 0 0 Z " fill="#F7F8ED" transform="translate(380,35)"/>
<path d="M0 0 C5.53846154 0.61538462 5.53846154 0.61538462 7.875 2.5625 C8.431875 3.2740625 8.431875 3.2740625 9 4 C6.36 3.67 3.72 3.34 1 3 C0.67 2.01 0.34 1.02 0 0 Z " fill="#DB803D" transform="translate(368,30)"/>
<path d="M0 0 C0.99 0.33 1.98 0.66 3 1 C1.92598892 3.91517292 1.22189824 5.77810176 -1 8 C-1.125 2.25 -1.125 2.25 0 0 Z " fill="#080708" transform="translate(99,179)"/>
<path d="M0 0 C0.66 0.33 1.32 0.66 2 1 C1.67 2.32 1.34 3.64 1 5 C-0.65 5 -2.3 5 -4 5 C-4 4.01 -4 3.02 -4 2 C-2.125 0.9375 -2.125 0.9375 0 0 Z " fill="#F9F9F5" transform="translate(240,64)"/>
<path d="M0 0 C0.66 0 1.32 0 2 0 C4 3 4 3 5 5 C4.34 5 3.68 5 3 5 C2.67 5.66 2.34 6.32 2 7 C2 6.34 2 5.68 2 5 C1.34 5 0.68 5 0 5 C0 3.35 0 1.7 0 0 Z " fill="#F0F0F0" transform="translate(297,195)"/>
<path d="M0 0 C0.99 0.33 1.98 0.66 3 1 C2.34 3.31 1.68 5.62 1 8 C0.34 8 -0.32 8 -1 8 C-0.67 5.36 -0.34 2.72 0 0 Z " fill="#29292A" transform="translate(160,180)"/>
<path d="M0 0 C0.33 0.66 0.66 1.32 1 2 C1.99 2.33 2.98 2.66 4 3 C3.01 4.485 3.01 4.485 2 6 C1.01 5.67 0.02 5.34 -1 5 C-0.67 3.35 -0.34 1.7 0 0 Z " fill="#060508" transform="translate(330,178)"/>
<path d="M0 0 C2.31 1.65 4.62 3.3 7 5 C5.68 5.33 4.36 5.66 3 6 C2.01 5.34 1.02 4.68 0 4 C0 2.68 0 1.36 0 0 Z " fill="#F8E6D2" transform="translate(221,149)"/>
<path d="M0 0 C0.99 0 1.98 0 3 0 C1.25 5.75 1.25 5.75 -1 8 C-0.67 5.36 -0.34 2.72 0 0 Z " fill="#E59D36" transform="translate(344,117)"/>
<path d="M0 0 C-0.33 1.98 -0.66 3.96 -1 6 C-2.32 4.68 -3.64 3.36 -5 2 C-2 0 -2 0 0 0 Z " fill="#F9F0E8" transform="translate(297,91)"/>
<path d="M0 0 C3.68754757 0.49831724 5.60490662 1.10067643 8 4 C5.36 3.67 2.72 3.34 0 3 C0 2.01 0 1.02 0 0 Z " fill="#EEE2EE" transform="translate(103,62)"/>
<path d="M0 0 C2.31 0.66 4.62 1.32 7 2 C6.67 3.32 6.34 4.64 6 6 C3.97945196 4.35830472 1.97956942 2.69088222 0 1 C0 0.67 0 0.34 0 0 Z " fill="#F4E4E1" transform="translate(243,30)"/>
</svg>
