<?xml version="1.0" encoding="UTF-8"?>
<svg version="1.1" xmlns="http://www.w3.org/2000/svg" width="291" height="173">
<path d="M0 0 C96.03 0 192.06 0 291 0 C291 57.09 291 114.18 291 173 C194.97 173 98.94 173 0 173 C0 115.91 0 58.82 0 0 Z " fill="#FEFEFE" transform="translate(0,0)"/>
<path d="M0 0 C0.72517822 -0.00563965 1.45035645 -0.0112793 2.19750977 -0.01708984 C5.4919084 0.02753638 8.22807598 0.28330969 11.3515625 1.36328125 C15.13161987 2.57509384 18.06751182 2.21944405 22 1.8125 C28.9847365 1.093991 28.9847365 1.093991 32.3125 3.3125 C33 5.9375 33 5.9375 33.3125 8.3125 C33.9725 8.3125 34.6325 8.3125 35.3125 8.3125 C36.07661467 12.04817172 36.38424763 14.66061918 35.3125 18.3125 C36.19292969 18.0959375 37.07335937 17.879375 37.98046875 17.65625 C39.14191406 17.3778125 40.30335938 17.099375 41.5 16.8125 C42.64855469 16.5340625 43.79710937 16.255625 44.98046875 15.96875 C47.88068829 15.39754615 50.37346385 15.17966221 53.3125 15.3125 C53.65897746 24.70588884 53.65897746 24.70588884 52.1875 29.375 C51.04733049 33.31808622 51.75320563 36.10649385 52.78515625 40.01171875 C53.91522539 44.94216857 54.0016521 49.5130473 52.1875 54.25 C49.76256033 56.91743364 47.80218629 57.52910104 44.3125 58.3125 C42.9925 58.3125 41.6725 58.3125 40.3125 58.3125 C39.92964844 59.38177734 39.92964844 59.38177734 39.5390625 60.47265625 C34.65748698 71.77490276 25.62303944 79.82282022 14.3125 84.3125 C7.17978291 86.70822177 -0.22653019 86.78991325 -7.6875 86.3125 C-8.0175 85.9825 -8.3475 85.6525 -8.6875 85.3125 C-9.161875 86.1375 -9.63625 86.9625 -10.125 87.8125 C-12.8304006 90.45191522 -13.26211045 90.74898374 -16.8125 90.9375 C-23.91243908 90.50471953 -30.23595867 87.16555538 -35.25 82.1875 C-38.30721467 78.32978901 -38.32872356 74.46034681 -38.2890625 69.66796875 C-38.42054687 68.89066406 -38.55203125 68.11335938 -38.6875 67.3125 C-40.54984083 66.08442569 -40.54984083 66.08442569 -42.6875 65.3125 C-46.4908356 60.98092335 -47.10479051 57.8054906 -46.92578125 52.265625 C-46.6875 50.3125 -46.6875 50.3125 -45.6875 48.3125 C-46.80125 48.8075 -46.80125 48.8075 -47.9375 49.3125 C-50.6875 50.3125 -50.6875 50.3125 -54.6875 50.3125 C-54.6875 44.3725 -54.6875 38.4325 -54.6875 32.3125 C-53.3675 31.9825 -52.0475 31.6525 -50.6875 31.3125 C-50.6875 29.9925 -50.6875 28.6725 -50.6875 27.3125 C-49.2557384 26.61312798 -47.81682968 25.92837282 -46.375 25.25 C-45.57449219 24.86714844 -44.77398437 24.48429687 -43.94921875 24.08984375 C-41.6875 23.3125 -41.6875 23.3125 -38.6875 24.3125 C-38.97625 25.11171875 -39.265 25.9109375 -39.5625 26.734375 C-44.18747469 40.41659179 -43.43651489 51.19523863 -37.6875 64.3125 C-35.9105493 67.22137246 -34.00738539 69.81722808 -31.6875 72.3125 C-32.80675317 70.05246957 -33.95135515 67.81060162 -35.125 65.578125 C-41.27614646 53.70641234 -43.81649381 43.6175618 -39.8125 30.5 C-39.11903697 28.43245281 -38.41108474 26.36969894 -37.6875 24.3125 C-37.23503906 22.77529297 -37.23503906 22.77529297 -36.7734375 21.20703125 C-33.54823089 12.61034743 -25.63096808 7.22158839 -17.6875 3.3125 C-17.01460937 2.9721875 -16.34171875 2.631875 -15.6484375 2.28125 C-10.53546377 0.14919918 -5.46337715 0.04078452 0 0 Z " fill="#341F20" transform="translate(144.6875,40.6875)"/>
<path d="M0 0 C0.74846191 0.00346436 1.49692383 0.00692871 2.26806641 0.01049805 C9.28182843 0.14911903 14.48577452 1.14626047 19.5625 6.3125 C20.85993063 7.31154823 22.17338188 8.29004793 23.5 9.25 C26.43360454 11.41643723 29.08056021 13.62373189 31.5625 16.3125 C31.2325 16.9725 30.9025 17.6325 30.5625 18.3125 C28.9125 16.9925 27.2625 15.6725 25.5625 14.3125 C26.5525 15.2096875 26.5525 15.2096875 27.5625 16.125 C29.5625 18.3125 29.5625 18.3125 29.5625 21.3125 C30.2225 21.3125 30.8825 21.3125 31.5625 21.3125 C35.68456799 27.60968136 37.38953776 32.78078078 37.5625 40.3125 C36.0775 39.8175 36.0775 39.8175 34.5625 39.3125 C34.5625 39.9725 34.5625 40.6325 34.5625 41.3125 C33.5725 41.8075 33.5725 41.8075 32.5625 42.3125 C31.43543294 44.42265954 31.43543294 44.42265954 30.4375 46.875 C30.08429688 47.70128906 29.73109375 48.52757812 29.3671875 49.37890625 C29.10164063 50.01699219 28.83609375 50.65507813 28.5625 51.3125 C27.53090374 48.21771121 27.58767138 46.78618607 28 43.625 C28.10183594 42.81675781 28.20367187 42.00851563 28.30859375 41.17578125 C28.43427734 40.25345703 28.43427734 40.25345703 28.5625 39.3125 C26.5825 39.9725 24.6025 40.6325 22.5625 41.3125 C23.0575 36.3625 23.0575 36.3625 23.5625 31.3125 C22.5725 31.3125 21.5825 31.3125 20.5625 31.3125 C20.58570313 31.90417969 20.60890625 32.49585938 20.6328125 33.10546875 C20.81994644 41.29926189 20.81994644 41.29926189 18.5625 45.3125 C17.5725 45.8075 17.5725 45.8075 16.5625 46.3125 C15.19297327 43.57344655 15.43628639 41.34162668 15.5625 38.3125 C16.0575 37.3225 16.0575 37.3225 16.5625 36.3125 C13.61516165 38.74586109 13.0656746 40.64594126 12.5 44.375 C11.77083333 49.10416667 11.77083333 49.10416667 9.5625 51.3125 C9.5625 48.0125 9.5625 44.7125 9.5625 41.3125 C8.5725 41.3125 7.5825 41.3125 6.5625 41.3125 C6.459375 42.42625 6.35625 43.54 6.25 44.6875 C6.023125 45.88375 5.79625 47.08 5.5625 48.3125 C4.5725 48.9725 3.5825 49.6325 2.5625 50.3125 C2.98621218 46.78156515 3.47784647 43.56148096 4.625 40.1875 C5.54653073 37.36147244 5.73575184 35.25778126 5.5625 32.3125 C4.2425 31.9825 2.9225 31.6525 1.5625 31.3125 C1.18158203 32.99279297 1.18158203 32.99279297 0.79296875 34.70703125 C0.44587819 36.17982093 0.09819067 37.65247001 -0.25 39.125 C-0.41564453 39.86298828 -0.58128906 40.60097656 -0.75195312 41.36132812 C-2.44059145 48.40263133 -2.44059145 48.40263133 -5.4375 50.3125 C-6.4275 50.3125 -7.4175 50.3125 -8.4375 50.3125 C-8.4375 49.3225 -8.4375 48.3325 -8.4375 47.3125 C-7.1175 46.6525 -5.7975 45.9925 -4.4375 45.3125 C-4.4375 43.6625 -4.4375 42.0125 -4.4375 40.3125 C-8.15486641 39.96349442 -8.15486641 39.96349442 -11.25 41.8125 C-11.641875 42.3075 -12.03375 42.8025 -12.4375 43.3125 C-12.4375 42.3225 -12.4375 41.3325 -12.4375 40.3125 C-14.90550047 41.46423355 -16.48533565 42.36033565 -18.4375 44.3125 C-18.4375 42.9925 -18.4375 41.6725 -18.4375 40.3125 C-19.4275 40.3125 -20.4175 40.3125 -21.4375 40.3125 C-21.4375 43.9425 -21.4375 47.5725 -21.4375 51.3125 C-20.4475 51.3125 -19.4575 51.3125 -18.4375 51.3125 C-18.31375 50.52875 -18.19 49.745 -18.0625 48.9375 C-17.4375 46.3125 -17.4375 46.3125 -15.4375 44.3125 C-13.4575 46.6225 -11.4775 48.9325 -9.4375 51.3125 C-5.61652761 50.78180939 -3.37578597 49.81548434 -0.4375 47.3125 C0.2225 48.6325 0.8825 49.9525 1.5625 51.3125 C2.305 51.10625 3.0475 50.9 3.8125 50.6875 C6.88580841 50.26841249 7.99036866 50.69300989 10.5625 52.3125 C11.5525 51.3225 12.5425 50.3325 13.5625 49.3125 C14.0575 51.2925 14.0575 51.2925 14.5625 53.3125 C15.5525 53.3125 16.5425 53.3125 17.5625 53.3125 C18.2225 52.6525 18.8825 51.9925 19.5625 51.3125 C19.5625 51.9725 19.5625 52.6325 19.5625 53.3125 C20.2225 53.3125 20.8825 53.3125 21.5625 53.3125 C21.5625 53.9725 21.5625 54.6325 21.5625 55.3125 C24.8625 55.6425 28.1625 55.9725 31.5625 56.3125 C31.5625 56.6425 31.5625 56.9725 31.5625 57.3125 C23.82585608 57.35889619 16.08922664 57.3944062 8.35247517 57.41612434 C4.75975432 57.42654941 1.16712885 57.44068516 -2.42553711 57.46337891 C-5.89443203 57.48515303 -9.36323537 57.49707823 -12.83219337 57.50225449 C-14.79584908 57.50773334 -16.75946808 57.52333903 -18.72306824 57.53909302 C-19.9239357 57.53924408 -21.12480316 57.53939514 -22.36206055 57.53955078 C-23.41685104 57.543992 -24.47164154 57.54843323 -25.55839539 57.55300903 C-28.54817042 57.30325503 -30.73008409 56.57129106 -33.4375 55.3125 C-33.251875 55.93125 -33.06625 56.55 -32.875 57.1875 C-32.4375 59.3125 -32.4375 59.3125 -33.4375 61.3125 C-37.03681073 55.23866315 -37.84658816 50.18106821 -37.875 43.25 C-37.88466797 42.49477051 -37.89433594 41.73954102 -37.90429688 40.96142578 C-37.82347384 35.4927968 -36.5875717 31.3369381 -34.4375 26.3125 C-33.4475 26.6425 -32.4575 26.9725 -31.4375 27.3125 C-31.4375 27.9725 -31.4375 28.6325 -31.4375 29.3125 C-32.0975 29.3125 -32.7575 29.3125 -33.4375 29.3125 C-33.4375 29.9725 -33.4375 30.6325 -33.4375 31.3125 C-30.7975 31.3125 -28.1575 31.3125 -25.4375 31.3125 C-25.57938985 33.85444161 -25.72589155 36.39597993 -25.875 38.9375 C-25.93397461 40.00677734 -25.93397461 40.00677734 -25.99414062 41.09765625 C-26.24059681 45.23053682 -26.67220053 49.23519024 -27.4375 53.3125 C-26.1175 53.3125 -24.7975 53.3125 -23.4375 53.3125 C-23.44273682 52.62099854 -23.44797363 51.92949707 -23.45336914 51.21704102 C-23.474075 48.10303648 -23.48713963 44.98904639 -23.5 41.875 C-23.50837891 40.78638672 -23.51675781 39.69777344 -23.52539062 38.57617188 C-23.52861328 37.54169922 -23.53183594 36.50722656 -23.53515625 35.44140625 C-23.54039307 34.48306885 -23.54562988 33.52473145 -23.55102539 32.53735352 C-23.4375 30.3125 -23.4375 30.3125 -22.4375 29.3125 C-25.0775 28.9825 -27.7175 28.6525 -30.4375 28.3125 C-30.4375 25.6725 -30.4375 23.0325 -30.4375 20.3125 C-23.18702686 15.71988224 -15.46725639 13.90970938 -7.19067383 12.10083008 C-2.10737005 10.98571892 2.76398945 9.67237113 7.66162109 7.90356445 C10.01402761 7.17210078 12.11669638 7.07580933 14.5625 7.3125 C14.5625 6.6525 14.5625 5.9925 14.5625 5.3125 C9.95274386 2.9799634 5.85024052 3.04178314 0.8125 3.125 C-0.38705322 3.13466797 -0.38705322 3.13466797 -1.61083984 3.14453125 C-6.94427473 3.21406473 -12.15609261 3.53006927 -17.4375 4.3125 C-12.91059145 -0.21440855 -6.05123201 -0.04536054 0 0 Z " fill="#27100F" transform="translate(144.4375,40.6875)"/>
<path d="M0 0 C3 2 3 2 3.6875 4.625 C3.790625 5.40875 3.89375 6.1925 4 7 C4.66 7 5.32 7 6 7 C6.76411467 10.73567172 7.07174763 13.34811918 6 17 C6.88042969 16.7834375 7.76085937 16.566875 8.66796875 16.34375 C9.82941406 16.0653125 10.99085938 15.786875 12.1875 15.5 C13.33605469 15.2215625 14.48460937 14.943125 15.66796875 14.65625 C18.56818829 14.08504615 21.06096385 13.86716221 24 14 C24.34647746 23.39338884 24.34647746 23.39338884 22.875 28.0625 C21.73483049 32.00558622 22.44070563 34.79399385 23.47265625 38.69921875 C24.60272539 43.62966857 24.6891521 48.2005473 22.875 52.9375 C20.45006033 55.60493364 18.48968629 56.21660104 15 57 C13.68 57 12.36 57 11 57 C10.61714844 58.06927734 10.61714844 58.06927734 10.2265625 59.16015625 C5.34498698 70.46240276 -3.68946056 78.51032022 -15 83 C-22.13271709 85.39572177 -29.53903019 85.47741325 -37 85 C-37.33 84.67 -37.66 84.34 -38 84 C-38.474375 84.825 -38.94875 85.65 -39.4375 86.5 C-42.1429006 89.13941522 -42.57461045 89.43648374 -46.125 89.625 C-53.22493908 89.19221953 -59.54845867 85.85305538 -64.5625 80.875 C-67.61971467 77.01728901 -67.64122356 73.14784681 -67.6015625 68.35546875 C-67.73304687 67.57816406 -67.86453125 66.80085938 -68 66 C-69.86234083 64.77192569 -69.86234083 64.77192569 -72 64 C-75.8033356 59.66842335 -76.41729051 56.4929906 -76.23828125 50.953125 C-76 49 -76 49 -75 47 C-76.11375 47.495 -76.11375 47.495 -77.25 48 C-80 49 -80 49 -84 49 C-84 43.06 -84 37.12 -84 31 C-82.68 30.67 -81.36 30.34 -80 30 C-80 28.68 -80 27.36 -80 26 C-78.5682384 25.30062798 -77.12932968 24.61587282 -75.6875 23.9375 C-74.88699219 23.55464844 -74.08648437 23.17179687 -73.26171875 22.77734375 C-71 22 -71 22 -68 23 C-68.28875 23.79921875 -68.5775 24.5984375 -68.875 25.421875 C-73.50903578 39.13089753 -72.71660592 49.85478378 -67 63 C-65.30432964 65.96318395 -63.61128264 68.76685392 -61 71 C-60.01 71 -59.02 71 -58 71 C-55.3125 73 -55.3125 73 -53 75 C-53.33 74.01 -53.66 73.02 -54 72 C-51.62785072 72.91825133 -49.29354112 73.85380728 -47.015625 74.98828125 C-41.49635886 77.67941279 -36.21986674 79.69938532 -30 79 C-26.02052317 77.45211297 -22.55965129 75.34187585 -19 73 C-18.18015625 72.46117188 -17.3603125 71.92234375 -16.515625 71.3671875 C-14.99804722 70.35377146 -13.4860024 69.33200519 -11.98046875 68.30078125 C-9.4325844 66.62731875 -6.72508158 65.36254079 -4 64 C-1.68932936 62.5041448 0.58544298 60.96477352 2.8515625 59.40234375 C5 58 5 58 7.1953125 57.03125 C9.41090981 56.02311195 9.41090981 56.02311195 10.25 52.5625 C12.47012577 41.46187116 11.23101592 29.59960435 5 20 C5.99 24.455 5.99 24.455 7 29 C4 25 4 25 1 21 C-0.32 21.33 -1.64 21.66 -3 22 C-2.67 21.34 -2.34 20.68 -2 20 C-1.34 20 -0.68 20 0 20 C-1.83827868 16.84866512 -3.75972706 13.88035092 -6 11 C-3.50638429 12.20381448 -1.31856917 13.45428722 1 15 C1 14.34 1 13.68 1 13 C0.44828125 12.7421875 -0.1034375 12.484375 -0.671875 12.21875 C-3.34314175 10.82036875 -5.76851909 9.21236695 -8.25 7.5 C-9.14203125 6.8915625 -10.0340625 6.283125 -10.953125 5.65625 C-11.62859375 5.1096875 -12.3040625 4.563125 -13 4 C-13 3.34 -13 2.68 -13 2 C-8.5153968 0.56492698 -4.76549564 -0.43322688 0 0 Z " fill="#9D9594" transform="translate(174,42)"/>
<path d="M0 0 C0.99 0.33 1.98 0.66 3 1 C3 1.66 3 2.32 3 3 C2.34 3 1.68 3 1 3 C1 3.66 1 4.32 1 5 C3.64 5 6.28 5 9 5 C8.85811015 7.54194161 8.71160845 10.08347993 8.5625 12.625 C8.50352539 13.69427734 8.50352539 13.69427734 8.44335938 14.78515625 C8.19690319 18.91803682 7.76529947 22.92269024 7 27 C8.32 27 9.64 27 11 27 C11 19.74 11 12.48 11 5 C13.97 5 16.94 5 20 5 C19.01 7.64 18.02 10.28 17 13 C18.65 12.67 20.3 12.34 22 12 C22 12.66 22 13.32 22 14 C21.38125 14.28875 20.7625 14.5775 20.125 14.875 C17.86674235 15.93720042 17.86674235 15.93720042 16 18 C16 16.68 16 15.36 16 14 C15.01 14 14.02 14 13 14 C13 17.63 13 21.26 13 25 C13.99 25 14.98 25 16 25 C16.12375 24.21625 16.2475 23.4325 16.375 22.625 C17 20 17 20 19 18 C20.98 20.31 22.96 22.62 25 25 C28.82097239 24.46930939 31.06171403 23.50298434 34 21 C34.66 22.32 35.32 23.64 36 25 C36.7425 24.79375 37.485 24.5875 38.25 24.375 C41.32330841 23.95591249 42.42786866 24.38050989 45 26 C45.99 25.01 46.98 24.02 48 23 C48.495 24.98 48.495 24.98 49 27 C49.99 27 50.98 27 52 27 C52.66 26.34 53.32 25.68 54 25 C54 25.66 54 26.32 54 27 C54.66 27 55.32 27 56 27 C56 27.66 56 28.32 56 29 C59.3 29.33 62.6 29.66 66 30 C66 30.33 66 30.66 66 31 C58.26335608 31.04639619 50.52672664 31.0819062 42.78997517 31.10362434 C39.19725432 31.11404941 35.60462885 31.12818516 32.01196289 31.15087891 C28.54306797 31.17265303 25.07426463 31.18457823 21.60530663 31.18975449 C19.64165092 31.19523334 17.67803192 31.21083903 15.71443176 31.22659302 C14.5135643 31.22674408 13.31269684 31.22689514 12.07543945 31.22705078 C11.02064896 31.231492 9.96585846 31.23593323 8.87910461 31.24050903 C5.88932958 30.99075503 3.70741591 30.25879106 1 29 C1.185625 29.61875 1.37125 30.2375 1.5625 30.875 C2 33 2 33 1 35 C-2.59931073 28.92616315 -3.40908816 23.86856821 -3.4375 16.9375 C-3.44716797 16.18227051 -3.45683594 15.42704102 -3.46679688 14.64892578 C-3.38597384 9.1802968 -2.1500717 5.0244381 0 0 Z " fill="#24100F" transform="translate(110,67)"/>
<path d="M0 0 C-0.433125 1.19882813 -0.433125 1.19882813 -0.875 2.421875 C-5.49545764 16.09072885 -4.79126818 26.90733549 1 40 C7.67716841 51.48207869 17.74187664 56.88869742 30 61 C26.60104839 65.80120968 26.60104839 65.80120968 23.9921875 66.6640625 C15.99657967 66.51654206 9.13995837 63.53653164 3.4375 57.875 C0.38028533 54.01728901 0.35877644 50.14784681 0.3984375 45.35546875 C0.20121094 44.18951172 0.20121094 44.18951172 0 43 C-1.86234083 41.77192569 -1.86234083 41.77192569 -4 41 C-7.8033356 36.66842335 -8.41729051 33.4929906 -8.23828125 27.953125 C-8 26 -8 26 -7 24 C-7.7425 24.33 -8.485 24.66 -9.25 25 C-12 26 -12 26 -16 26 C-16 20.06 -16 14.12 -16 8 C-14.68 7.67 -13.36 7.34 -12 7 C-12 5.68 -12 4.36 -12 3 C-10.5682384 2.30062798 -9.12932968 1.61587282 -7.6875 0.9375 C-6.88699219 0.55464844 -6.08648437 0.17179687 -5.26171875 -0.22265625 C-3 -1 -3 -1 0 0 Z " fill="#211010" transform="translate(106,65)"/>
<path d="M0 0 C2.475 0.495 2.475 0.495 5 1 C4.51314119 5.78744493 3.85542813 9.54697248 2 14 C2 15.32 2 16.64 2 18 C3.9451 15.08235 4.45276317 13.37462715 5 10 C5.99 10 6.98 10 8 10 C8.33 12.64 8.66 15.28 9 18 C9.18175781 17.14535156 9.36351562 16.29070312 9.55078125 15.41015625 C9.92783203 13.75306641 9.92783203 13.75306641 10.3125 12.0625 C10.55613281 10.96035156 10.79976562 9.85820313 11.05078125 8.72265625 C11.36402344 7.82417969 11.67726562 6.92570312 12 6 C12.99 5.67 13.98 5.34 15 5 C15 7.64 15 10.28 15 13 C15.66 13 16.32 13 17 13 C17.66 8.71 18.32 4.42 19 0 C19.99 0 20.98 0 22 0 C22 2.97 22 5.94 22 9 C23.65 8.67 25.3 8.34 27 8 C27 11.63 27 15.26 27 19 C27.99 16.69 28.98 14.38 30 12 C30.66 12 31.32 12 32 12 C31.46930939 15.82097239 30.50298434 18.06171403 28 21 C26.68 20.67 25.36 20.34 24 20 C24 17.03 24 14.06 24 11 C22.0549 13.91765 21.54723683 15.62537285 21 19 C20.01 18.67 19.02 18.34 18 18 C17.67 18 17.34 18 17 18 C16.505 20.475 16.505 20.475 16 23 C14.0625 22.625 14.0625 22.625 12 22 C11.505 21.01 11.505 21.01 11 20 C9.02 20.99 9.02 20.99 7 22 C6.01 21.34 5.02 20.68 4 20 C1.84725052 20.30840599 1.84725052 20.30840599 0 21 C-0.99 19.68 -1.98 18.36 -3 17 C-3.556875 17.680625 -4.11375 18.36125 -4.6875 19.0625 C-7 21 -7 21 -9.625 21 C-12.54858138 19.76901837 -12.69818515 18.77720501 -14 16 C-16.05000871 15.19471111 -16.05000871 15.19471111 -18 15 C-18.99 17.475 -18.99 17.475 -20 20 C-20.99 20 -21.98 20 -23 20 C-23 16.37 -23 12.74 -23 9 C-22.01 9 -21.02 9 -20 9 C-19.67 9.66 -19.34 10.32 -19 11 C-18.34 10.34 -17.68 9.68 -17 9 C-15.66666667 9.33333333 -14.33333333 9.66666667 -13 10 C-12.34 9.34 -11.68 8.68 -11 8 C-8.4375 7.8125 -8.4375 7.8125 -6 8 C-5 9 -5 9 -4.9375 11.5625 C-4.958125 12.366875 -4.97875 13.17125 -5 14 C-6.65 14.66 -8.3 15.32 -10 16 C-10 16.99 -10 17.98 -10 19 C-6.37349983 17.37287823 -5.18890815 16.46726987 -3.671875 12.71484375 C-3.36765625 11.46832031 -3.0634375 10.22179687 -2.75 8.9375 C-1.00623701 2.01247401 -1.00623701 2.01247401 0 0 Z " fill="#D6D0CE" transform="translate(146,72)"/>
<path d="M0 0 C0.34647746 9.39338884 0.34647746 9.39338884 -1.125 14.0625 C-2.26516951 18.00558622 -1.55929437 20.79399385 -0.52734375 24.69921875 C0.60272539 29.62966857 0.6891521 34.2005473 -1.125 38.9375 C-3.56173129 41.61790442 -5.4740702 42.28042249 -9 43 C-11.19140625 42.5390625 -11.19140625 42.5390625 -13 42 C-12.855625 41.40574219 -12.71125 40.81148437 -12.5625 40.19921875 C-9.50512654 26.54719697 -11.83622176 16.79314429 -17 4 C-11.14536633 1.35967501 -6.4755352 -0.05378351 0 0 Z " fill="#251511" transform="translate(198,56)"/>
<path d="M0 0 C0.77214844 -0.00773437 1.54429687 -0.01546875 2.33984375 -0.0234375 C6.90718089 -0.00787587 10.57673555 0.51970824 14.875 2.25 C14.545 3.24 14.215 4.23 13.875 5.25 C11.78515625 6.0234375 11.78515625 6.0234375 8.9375 6.625 C-11.71092842 11.19675608 -11.71092842 11.19675608 -31.125 19.25 C-31.785 19.58 -32.445 19.91 -33.125 20.25 C-33.785 19.92 -34.445 19.59 -35.125 19.25 C-31.63795684 11.00789799 -24.92574008 6.17566427 -17.125 2.25 C-11.31053777 0.42585499 -6.06862701 -0.06140263 0 0 Z " fill="#F8F8F4" transform="translate(145.125,42.75)"/>
<path d="M0 0 C0.495 0.99 0.495 0.99 1 2 C-6.22540244 13.17330275 -13.28170573 21.4955796 -26.41796875 25.54296875 C-31.89145262 26.51180024 -37.46607353 26.21254056 -43 26 C-43.33 25.01 -43.66 24.02 -44 23 C-42.9275 22.814375 -41.855 22.62875 -40.75 22.4375 C-33.35303325 20.60800111 -26.86685284 15.98788956 -20.625 11.75 C-18 10 -18 10 -15.1875 8.625 C-11.587327 6.78961768 -8.36606451 4.60649038 -5.05078125 2.3046875 C-3 1 -3 1 0 0 Z " fill="#C9C8C8" transform="translate(182,99)"/>
<path d="M0 0 C-0.71285156 0.40089844 -1.42570312 0.80179688 -2.16015625 1.21484375 C-8.98729241 5.26702013 -13.60591548 9.3863779 -18 16 C-16.68 16 -15.36 16 -14 16 C-14 18.31 -14 20.62 -14 23 C-8.72 23.33 -3.44 23.66 2 24 C2 24.33 2 24.66 2 25 C-0.97 25 -3.94 25 -7 25 C-7 32.59 -7 40.18 -7 48 C-8.32 48 -9.64 48 -11 48 C-10.86105852 44.89548451 -10.712657 41.79149165 -10.5625 38.6875 C-10.50352539 37.36588867 -10.50352539 37.36588867 -10.44335938 36.01757812 C-10.40146484 35.17001953 -10.35957031 34.32246094 -10.31640625 33.44921875 C-10.26141968 32.27879028 -10.26141968 32.27879028 -10.20532227 31.0847168 C-10 29 -10 29 -9 26 C-11.64 26 -14.28 26 -17 26 C-17 25.34 -17 24.68 -17 24 C-16.34 24 -15.68 24 -15 24 C-15 23.34 -15 22.68 -15 22 C-15.99 22.33 -16.98 22.66 -18 23 C-20.23870053 27.83799712 -20.38322684 32.519925 -20.375 37.75 C-20.37701416 38.5440625 -20.37902832 39.338125 -20.38110352 40.15625 C-20.28444082 45.7569668 -19.37287037 50.21625141 -16.77734375 55.25 C-16.52082031 55.8275 -16.26429687 56.405 -16 57 C-16.33 57.66 -16.66 58.32 -17 59 C-17.66 57.35 -18.32 55.7 -19 54 C-19.99 54 -20.98 54 -22 54 C-26.20735405 41.05236878 -25.49786224 31.78771784 -21 19 C-20.7009375 17.97648437 -20.401875 16.95296875 -20.09375 15.8984375 C-17.39545281 8.74794994 -11.11050872 3.62031576 -4.76171875 -0.3203125 C-3 -1 -3 -1 0 0 Z " fill="#4E4746" transform="translate(128,46)"/>
<path d="M0 0 C0.24991456 6.65050424 -0.26044666 12.56986533 -2 19 C-2.66 19 -3.32 19 -4 19 C-4.66 20.32 -5.32 21.64 -6 23 C-8.46894264 19.29658604 -7.82085415 18.19547676 -7 14 C-7.33 13.67 -7.66 13.34 -8 13 C-8.66 14.32 -9.32 15.64 -10 17 C-10.66 17 -11.32 17 -12 17 C-12.67528223 15.42032193 -13.33989694 13.83608097 -14 12.25 C-14.37125 11.36828125 -14.7425 10.4865625 -15.125 9.578125 C-16 7 -16 7 -16 3 C-14.27318563 2.49193553 -12.54342021 1.99389533 -10.8125 1.5 C-9.84957031 1.2215625 -8.88664063 0.943125 -7.89453125 0.65625 C-5.14654124 0.03322392 -2.80401584 -0.12302812 0 0 Z " fill="#26100C" transform="translate(198,56)"/>
<path d="M0 0 C1 3 1 3 -0.15234375 5.453125 C-7.15828363 16.42960849 -15.47224538 23.92605922 -28.3125 27.3125 C-34.14331107 28.43461652 -40.09034831 28.16441071 -46 28 C-46 27.34 -46 26.68 -46 26 C-46.54011719 26.20753906 -47.08023438 26.41507813 -47.63671875 26.62890625 C-53.27401283 27.51410119 -59.86354704 23.52654736 -64.33984375 20.328125 C-65.94807645 18.94682084 -67.48380084 17.48174009 -69 16 C-68.67 15.01 -68.34 14.02 -68 13 C-66.02 14.65 -64.04 16.3 -62 18 C-62.33 17.01 -62.66 16.02 -63 15 C-58.99009223 16.55222236 -55.08951146 18.30377723 -51.18359375 20.09765625 C-49.13206262 20.94542672 -47.16442017 21.52392572 -45 22 C-45 22.66 -45 23.32 -45 24 C-39.87636731 26.56181634 -32.42954552 25.55577839 -27.01171875 24.31640625 C-14.76457446 20.14163712 -6.81089655 13.19142535 -0.77734375 1.6640625 C-0.52082031 1.11492187 -0.26429688 0.56578125 0 0 Z " fill="#746F6D" transform="translate(183,99)"/>
<path d="M0 0 C0.66 0.33 1.32 0.66 2 1 C0.02 3.97 0.02 3.97 -2 7 C-2.66 6.67 -3.32 6.34 -4 6 C-6.09821215 6.39938767 -6.09821215 6.39938767 -8 7 C-7.01 7.99 -6.02 8.98 -5 10 C-12.43765235 16.56263443 -20.96605131 20.38706627 -31 20 C-25.00835104 13.47619801 -16.17712474 9.4788754 -8.4609375 5.35546875 C-5.50723193 3.72858648 -2.7572975 1.93756041 0 0 Z " fill="#F1EDEC" transform="translate(176,102)"/>
<path d="M0 0 C2.4375 0.1875 2.4375 0.1875 3.4375 1.1875 C3.47813832 2.85367115 3.480221 4.52138095 3.4375 6.1875 C1.7875 6.8475 0.1375 7.5075 -1.5625 8.1875 C-1.5625 9.1775 -1.5625 10.1675 -1.5625 11.1875 C-0.5725 11.1875 0.4175 11.1875 1.4375 11.1875 C1.4375 11.8475 1.4375 12.5075 1.4375 13.1875 C-0.9375 12.9375 -0.9375 12.9375 -3.5625 12.1875 C-4.26187532 10.87102881 -4.92979133 9.53727849 -5.5625 8.1875 C-7.61250871 7.38221111 -7.61250871 7.38221111 -9.5625 7.1875 C-10.2225 8.8375 -10.8825 10.4875 -11.5625 12.1875 C-12.5525 12.1875 -13.5425 12.1875 -14.5625 12.1875 C-14.5625 8.5575 -14.5625 4.9275 -14.5625 1.1875 C-13.5725 1.1875 -12.5825 1.1875 -11.5625 1.1875 C-11.2325 1.8475 -10.9025 2.5075 -10.5625 3.1875 C-9.9025 2.5275 -9.2425 1.8675 -8.5625 1.1875 C-7.22916667 1.52083333 -5.89583333 1.85416667 -4.5625 2.1875 C-2.5625 0.1875 -2.5625 0.1875 0 0 Z " fill="#E2DDDB" transform="translate(137.5625,79.8125)"/>
<path d="M0 0 C0.74846191 0.00346436 1.49692383 0.00692871 2.26806641 0.01049805 C9.28182843 0.14911903 14.48577452 1.14626047 19.5625 6.3125 C20.85993063 7.31154823 22.17338188 8.29004793 23.5 9.25 C26.43360454 11.41643723 29.08056021 13.62373189 31.5625 16.3125 C31.2325 16.9725 30.9025 17.6325 30.5625 18.3125 C28.5825 16.6625 26.6025 15.0125 24.5625 13.3125 C23.5725 13.9725 22.5825 14.6325 21.5625 15.3125 C18.875 14.4375 18.875 14.4375 16.5625 13.3125 C16.5625 12.6525 16.5625 11.9925 16.5625 11.3125 C17.2225 10.9825 17.8825 10.6525 18.5625 10.3125 C17.2425 9.6525 15.9225 8.9925 14.5625 8.3125 C14.5625 7.3225 14.5625 6.3325 14.5625 5.3125 C9.95274386 2.9799634 5.85024052 3.04178314 0.8125 3.125 C-0.38705322 3.13466797 -0.38705322 3.13466797 -1.61083984 3.14453125 C-6.94427473 3.21406473 -12.15609261 3.53006927 -17.4375 4.3125 C-12.91059145 -0.21440855 -6.05123201 -0.04536054 0 0 Z " fill="#4B4545" transform="translate(144.4375,40.6875)"/>
<path d="M0 0 C3 2 3 2 3.6875 4.625 C3.790625 5.40875 3.89375 6.1925 4 7 C4.66 7 5.32 7 6 7 C7.125 12.75 7.125 12.75 6 15 C1.98800747 13.20893191 -0.79747482 10.6085779 -4 7.65625 C-5.92627555 6.06105306 -7.72489737 5.01567082 -10 4 C-9.67 3.01 -9.34 2.02 -9 1 C-5.74531799 -0.084894 -3.4103976 -0.21314985 0 0 Z " fill="#241718" transform="translate(174,42)"/>
<path d="M0 0 C0.66 0 1.32 0 2 0 C1.731875 0.78375 1.46375 1.5675 1.1875 2.375 C0.795625 3.57125 0.40375 4.7675 0 6 C-0.26425781 6.73863281 -0.52851562 7.47726563 -0.80078125 8.23828125 C-4.55718478 19.40067468 -3.53352435 29.15241304 1 40 C2.52182498 42.5279002 4.11309606 44.86910632 5.92578125 47.1953125 C6.28027344 47.79085937 6.63476562 48.38640625 7 49 C6.67 49.99 6.34 50.98 6 52 C-1.78974716 43.71637838 -6.10565889 33.32807168 -6.5625 21.9375 C-6.25072036 14.99331716 -5.06164371 5.06164371 0 0 Z " fill="#CEC6C4" transform="translate(107,62)"/>
<path d="M0 0 C0.99 0 1.98 0 3 0 C3 2.97 3 5.94 3 9 C4.65 8.67 6.3 8.34 8 8 C8 11.63 8 15.26 8 19 C8.99 16.69 9.98 14.38 11 12 C11.66 12 12.32 12 13 12 C12.46930939 15.82097239 11.50298434 18.06171403 9 21 C7.68 20.67 6.36 20.34 5 20 C5 17.03 5 14.06 5 11 C3.0549 13.91765 2.54723683 15.62537285 2 19 C1.01 18.67 0.02 18.34 -1 18 C-1.09706112 11.88514973 -0.77040851 6.06696699 0 0 Z " fill="#E8E2E0" transform="translate(165,72)"/>
<path d="M0 0 C1.32 0.66 2.64 1.32 4 2 C3.88521587 4.06309376 3.75773802 6.12548354 3.625 8.1875 C3.55539063 9.33605469 3.48578125 10.48460938 3.4140625 11.66796875 C3.02490426 14.79959117 2.3190149 17.15285809 1 20 C0.67 20 0.34 20 0 20 C0 16.7 0 13.4 0 10 C-0.99 10 -1.98 10 -3 10 C-3.103125 11.11375 -3.20625 12.2275 -3.3125 13.375 C-3.6528125 15.169375 -3.6528125 15.169375 -4 17 C-4.99 17.66 -5.98 18.32 -7 19 C-6.08612159 11.38434662 -4.22770236 6.34155354 0 0 Z " fill="#1C1614" transform="translate(154,72)"/>
<path d="M0 0 C2.97 0 5.94 0 9 0 C8.01 2.64 7.02 5.28 6 8 C7.65 7.67 9.3 7.34 11 7 C11 7.66 11 8.32 11 9 C10.38125 9.28875 9.7625 9.5775 9.125 9.875 C6.86674235 10.93720042 6.86674235 10.93720042 5 13 C5 11.68 5 10.36 5 9 C4.01 9 3.02 9 2 9 C2.02320312 9.68707031 2.04640625 10.37414062 2.0703125 11.08203125 C2.08835937 11.98308594 2.10640625 12.88414063 2.125 13.8125 C2.14820312 14.70582031 2.17140625 15.59914063 2.1953125 16.51953125 C2 19 2 19 0 22 C0 14.74 0 7.48 0 0 Z " fill="#1B0D0D" transform="translate(121,72)"/>
<path d="M0 0 C0 0.33 0 0.66 0 1 C-2.97 1 -5.94 1 -9 1 C-9 8.59 -9 16.18 -9 24 C-10.32 24 -11.64 24 -13 24 C-12.86105852 20.89548451 -12.712657 17.79149165 -12.5625 14.6875 C-12.50352539 13.36588867 -12.50352539 13.36588867 -12.44335938 12.01757812 C-12.40146484 11.17001953 -12.35957031 10.32246094 -12.31640625 9.44921875 C-12.27974854 8.66893311 -12.24309082 7.88864746 -12.20532227 7.0847168 C-12 5 -12 5 -11 2 C-13.64 2 -16.28 2 -19 2 C-19 1.34 -19 0.68 -19 0 C-12.42150508 -0.95494281 -6.58183362 -0.8931507 0 0 Z " fill="#DFD8D6" transform="translate(130,70)"/>
<path d="M0 0 C0.66 0.33 1.32 0.66 2 1 C2 1.99 2 2.98 2 4 C1.34773438 4.30292969 0.69546875 4.60585938 0.0234375 4.91796875 C-5.27972895 7.46004706 -9.67212586 10.01380014 -14 14 C-13.67 14.66 -13.34 15.32 -13 16 C-14.96466413 17.06775224 -16.96855359 18.06553465 -19 19 C-19.66 18.67 -20.32 18.34 -21 18 C-17.43088501 9.56391003 -10.73077526 5.3440734 -3 1 C-2.01 0.67 -1.02 0.34 0 0 Z " fill="#CBCBCB" transform="translate(131,44)"/>
<path d="M0 0 C0.495 0.99 0.495 0.99 1 2 C1.66 2 2.32 2 3 2 C3 2.66 3 3.32 3 4 C6.3 4.33 9.6 4.66 13 5 C13 5.33 13 5.66 13 6 C-6.8 6 -26.6 6 -47 6 C-46.67 5.01 -46.34 4.02 -46 3 C-45.34 3 -44.68 3 -44 3 C-44 3.66 -44 4.32 -44 5 C-38.51874263 4.90638786 -33.03792292 4.80027632 -27.55712891 4.68261719 C-25.69293838 4.6443541 -23.8286747 4.60949654 -21.96435547 4.578125 C-19.28326284 4.53241644 -16.60267267 4.47443178 -13.921875 4.4140625 C-13.08944275 4.40251129 -12.2570105 4.39096008 -11.39935303 4.37905884 C-5.88974919 4.32147174 -5.88974919 4.32147174 -1 2 C-0.67 1.34 -0.34 0.68 0 0 Z " fill="#0D0202" transform="translate(163,92)"/>
<path d="M0 0 C2.10852713 3.47286822 2.10852713 3.47286822 1.5625 6.125 C1.376875 6.74375 1.19125 7.3625 1 8 C1.33 8.66 1.66 9.32 2 10 C2.66 9.01 3.32 8.02 4 7 C4.66 7 5.32 7 6 7 C6.33 9.64 6.66 12.28 7 15 C3.28400809 15.20086443 2.22791555 15.1519437 -1 13 C-1 15.31 -1 17.62 -1 20 C-1.33 20 -1.66 20 -2 20 C-2.25007388 17.60471406 -2.47552126 15.21120675 -2.6875 12.8125 C-2.76033203 12.13896484 -2.83316406 11.46542969 -2.90820312 10.77148438 C-3.28659953 6.2084689 -2.7638483 3.65907937 0 0 Z " fill="#1F0B07" transform="translate(190,68)"/>
<path d="M0 0 C0.12375 0.804375 0.2475 1.60875 0.375 2.4375 C0.58125 3.283125 0.7875 4.12875 1 5 C1.66 5.33 2.32 5.66 3 6 C2.25234375 6.19335938 1.5046875 6.38671875 0.734375 6.5859375 C-0.25046875 6.84632812 -1.2353125 7.10671875 -2.25 7.375 C-3.22453125 7.63023438 -4.1990625 7.88546875 -5.203125 8.1484375 C-7.9575095 8.88152396 -7.9575095 8.88152396 -10.109375 10.1640625 C-12.47324979 11.20924681 -13.61353566 10.85230869 -16 10 C-5.20547945 0 -5.20547945 0 0 0 Z " fill="#F1EEEC" transform="translate(132,48)"/>
<path d="M0 0 C5.56331883 4.94387366 7.42492982 11.51318867 8.35546875 18.7734375 C8.58095283 26.0963014 6.87970193 32.96230646 5 40 C4.34 39.01 3.68 38.02 3 37 C3.47130307 35.11478773 3.95009634 33.23102748 4.47265625 31.359375 C6.85546597 20.69850781 3.61474193 10.01005457 0 0 Z " fill="#D6CDCC" transform="translate(180,61)"/>
<path d="M0 0 C3.52937524 5.29406286 3.59347356 11.77841887 3 18 C2.18375731 21.40259306 1.15771446 24.69913556 0 28 C-1 25 -1 25 0 22 C0.03954234 19.66700175 0.04401732 17.33291811 0 15 C0 15.66 0 16.32 0 17 C-0.66 17.66 -1.32 18.32 -2 19 C-2.99 18.67 -3.98 18.34 -5 18 C-4.34 16.35 -3.68 14.7 -3 13 C-3.66 12.67 -4.32 12.34 -5 12 C-4.01 11.67 -3.02 11.34 -2 11 C-2 10.34 -2 9.68 -2 9 C-1.34 9 -0.68 9 0 9 C0 6.03 0 3.06 0 0 Z " fill="#625554" transform="translate(181,71)"/>
<path d="M0 0 C0.99 0 1.98 0 3 0 C3.33 0.66 3.66 1.32 4 2 C4.66 1.34 5.32 0.68 6 0 C6.99 0 7.98 0 9 0 C9.33 2.97 9.66 5.94 10 9 C9.67 8.34 9.34 7.68 9 7 C6.97536745 6.34786708 6.97536745 6.34786708 5 6 C4.34 7.65 3.68 9.3 3 11 C2.01 11 1.02 11 0 11 C0 7.37 0 3.74 0 0 Z " fill="#DED7D4" transform="translate(123,81)"/>
<path d="M0 0 C1.65 0.33 3.3 0.66 5 1 C4.52060632 5.71403788 4.03165952 9.66579301 2 14 C1.34 13.67 0.68 13.34 0 13 C-0.625 10.9375 -0.625 10.9375 -1 9 C-1.66 10.32 -2.32 11.64 -3 13 C-2.88490339 11.58249437 -2.75746342 10.16598831 -2.625 8.75 C-2.55539063 7.96109375 -2.48578125 7.1721875 -2.4140625 6.359375 C-1.98492887 3.914123 -1.21399362 2.15163097 0 0 Z " fill="#E0D9D7" transform="translate(146,72)"/>
<path d="M0 0 C0.99 0.66 1.98 1.32 3 2 C3.42915004 6.54899046 2.99170782 9.89210262 1 14 C-1.375 13.75 -1.375 13.75 -4 13 C-5.3125 10.9375 -5.3125 10.9375 -6 9 C-5.21625 8.38125 -4.4325 7.7625 -3.625 7.125 C-1.03162353 5.10141339 -1.03162353 5.10141339 1 3 C0.67 2.01 0.34 1.02 0 0 Z " fill="#190B09" transform="translate(179,84)"/>
<path d="M0 0 C0 3 0 3 -1 6 C-1.99 6 -2.98 6 -4 6 C-4.66 7.32 -5.32 8.64 -6 10 C-7.32 9.67 -8.64 9.34 -10 9 C-10 14.61 -10 20.22 -10 26 C-10.33 26 -10.66 26 -11 26 C-11 20.06 -11 14.12 -11 8 C-9.68 7.67 -8.36 7.34 -7 7 C-7 5.68 -7 4.36 -7 3 C-4.69 2.01 -2.38 1.02 0 0 Z " fill="#3F3333" transform="translate(101,65)"/>
<path d="M0 0 C0 1.65 0 3.3 0 5 C-1.32 5.33 -2.64 5.66 -4 6 C-4.33 5.01 -4.66 4.02 -5 3 C-5.66 2.67 -6.32 2.34 -7 2 C-7 2.66 -7 3.32 -7 4 C-8.1446875 4.1546875 -8.1446875 4.1546875 -9.3125 4.3125 C-12.17059424 5.04364039 -13.15742885 5.76951913 -15 8 C-15.66 6.68 -16.32 5.36 -17 4 C-11.19619269 1.3825967 -6.45057424 -0.18430212 0 0 Z " fill="#2C211E" transform="translate(198,56)"/>
<path d="M0 0 C0.79470703 -0.01224609 1.58941406 -0.02449219 2.40820312 -0.03710938 C7.07282268 -0.04868411 10.79940048 0.39975575 15.1875 2.1875 C12.1875 4.1875 12.1875 4.1875 10.24365234 3.82080078 C9.22585693 3.50731689 9.22585693 3.50731689 8.1875 3.1875 C5.38517503 3.09203001 2.61384991 3.04806005 -0.1875 3.0625 C-0.93 3.05863281 -1.6725 3.05476563 -2.4375 3.05078125 C-6.6723522 3.05826332 -10.64159897 3.35331979 -14.8125 4.1875 C-10.51307605 -0.5213929 -5.96323457 0.00476677 0 0 Z " fill="#F3F3F3" transform="translate(144.8125,42.8125)"/>
<path d="M0 0 C0.99 0.66 1.98 1.32 3 2 C3.66 1.67 4.32 1.34 5 1 C4.59669455 3.33917162 4.33794591 4.67707391 2.59375 6.34375 C0.69978722 8.31198583 -0.13227003 10.17678042 -1.1875 12.6875 C-1.53167969 13.49574219 -1.87585938 14.30398437 -2.23046875 15.13671875 C-2.61138672 16.05904297 -2.61138672 16.05904297 -3 17 C-4.38921267 12.83236198 -3.87429538 9.26686038 -3 5 C-1.4375 1.9375 -1.4375 1.9375 0 0 Z " fill="#2D1A1A" transform="translate(176,75)"/>
<path d="M0 0 C3 1 3 1 6 3 C5.67 3.66 5.34 4.32 5 5 C5.66 5 6.32 5 7 5 C6.34 6.32 5.68 7.64 5 9 C3.02 9 1.04 9 -1 9 C-1.09765625 2.84765625 -1.09765625 2.84765625 -1 1 C-0.67 0.67 -0.34 0.34 0 0 Z " fill="#1D0A05" transform="translate(115,60)"/>
<path d="M0 0 C0.99 0.33 1.98 0.66 3 1 C3 1.66 3 2.32 3 3 C2.34 3 1.68 3 1 3 C1 3.66 1 4.32 1 5 C3.64 5 6.28 5 9 5 C9 5.99 9 6.98 9 8 C8.34 8 7.68 8 7 8 C7 8.99 7 9.98 7 11 C6.34 11 5.68 11 5 11 C5 10.01 5 9.02 5 8 C4.38125 8.185625 3.7625 8.37125 3.125 8.5625 C1 9 1 9 -1 8 C-1.75 6.1875 -1.75 6.1875 -2 4 C-1.0625 1.75 -1.0625 1.75 0 0 Z " fill="#1F1212" transform="translate(110,67)"/>
<path d="M0 0 C0.33 0 0.66 0 1 0 C1.34534206 6.84288902 1.59180355 13.90197532 -2 20 C-3.984375 21.30859375 -3.984375 21.30859375 -6 22 C-6.66 21.67 -7.32 21.34 -8 21 C-8 20.01 -8 19.02 -8 18 C-6.68 18 -5.36 18 -4 18 C-3.34 15.36 -2.68 12.72 -2 10 C-1.34 10 -0.68 10 0 10 C0 6.7 0 3.4 0 0 Z " fill="#2A2020" transform="translate(185,79)"/>
<path d="M0 0 C0.33 0 0.66 0 1 0 C1 7.26 1 14.52 1 22 C-2 18 -2 18 -2.07421875 15.859375 C-1.53710938 12.9296875 -1.53710938 12.9296875 -1 10 C-1.66 10 -2.32 10 -3 10 C-3 7.69 -3 5.38 -3 3 C-2.01 2.67 -1.02 2.34 0 2 C0 1.34 0 0.68 0 0 Z " fill="#220B0D" transform="translate(101,73)"/>
<path d="M0 0 C0.08096803 1.45742463 0.13917774 2.91612807 0.1875 4.375 C0.22230469 5.18710938 0.25710937 5.99921875 0.29296875 6.8359375 C0.19628906 7.55007812 0.09960938 8.26421875 0 9 C-0.99 9.66 -1.98 10.32 -3 11 C-4.36952673 8.26094655 -4.12621361 6.02912668 -4 3 C-3.67 2.34 -3.34 1.68 -3 1 C-3.99 1.33 -4.98 1.66 -6 2 C-6.33 1.34 -6.66 0.68 -7 0 C-4.3333581 -1.33332095 -2.83319697 -0.67102033 0 0 Z " fill="#170D0C" transform="translate(164,76)"/>
<path d="M0 0 C1.32 0 2.64 0 4 0 C4 0.66 4 1.32 4 2 C4.99 2.33 5.98 2.66 7 3 C6.34 3 5.68 3 5 3 C5 3.66 5 4.32 5 5 C5.66 5.33 6.32 5.66 7 6 C6.01 6 5.02 6 4 6 C4 8.97 4 11.94 4 15 C3.67 15 3.34 15 3 15 C3 13.35 3 11.7 3 10 C2.01 9.67 1.02 9.34 0 9 C0 8.01 0 7.02 0 6 C0.66 6 1.32 6 2 6 C2 5.34 2 4.68 2 4 C1.01 3.67 0.02 3.34 -1 3 C-0.34 2.67 0.32 2.34 1 2 C1.66 2.33 2.32 2.66 3 3 C3 2.34 3 1.68 3 1 C2.01 0.67 1.02 0.34 0 0 Z " fill="#332122" transform="translate(161,66)"/>
<path d="M0 0 C0.99 0.66 1.98 1.32 3 2 C5.62531524 2.16713569 5.62531524 2.16713569 8 2 C8 3.65 8 5.3 8 7 C4.7 7 1.4 7 -2 7 C-2 6.01 -2 5.02 -2 4 C-1.34 3.67 -0.68 3.34 0 3 C0 2.01 0 1.02 0 0 Z " fill="#27120E" transform="translate(132,90)"/>
<path d="M0 0 C0.33 0 0.66 0 1 0 C1.66 4.29 2.32 8.58 3 13 C2.01 13 1.02 13 0 13 C-0.66 12.01 -1.32 11.02 -2 10 C-3.32 10.99 -4.64 11.98 -6 13 C-5.71382812 12.43796875 -5.42765625 11.8759375 -5.1328125 11.296875 C-3.98584069 8.97129077 -2.92160206 6.62229799 -1.875 4.25 C-1.52179688 3.45078125 -1.16859375 2.6515625 -0.8046875 1.828125 C-0.53914062 1.22484375 -0.27359375 0.6215625 0 0 Z " fill="#ECE8E6" transform="translate(145,79)"/>
<path d="M0 0 C0.625 1.8125 0.625 1.8125 1 4 C-1 7 -1 7 -3.3828125 7.51171875 C-4.28773438 7.56972656 -5.19265625 7.62773438 -6.125 7.6875 C-7.03507813 7.75324219 -7.94515625 7.81898437 -8.8828125 7.88671875 C-9.93082031 7.94279297 -9.93082031 7.94279297 -11 8 C-8.80861021 5.64270057 -6.56068027 3.97942902 -3.8125 2.3125 C-3.09707031 1.87550781 -2.38164062 1.43851562 -1.64453125 0.98828125 C-1.10183594 0.66214844 -0.55914062 0.33601563 0 0 Z " fill="#E9E5E4" transform="translate(156,114)"/>
<path d="M0 0 C0.99 0 1.98 0 3 0 C3 3 3 6 3 9 C1.0625 9.5625 1.0625 9.5625 -1 10 C-2 9 -2 9 -2.0625 5.4375 C-2.041875 4.303125 -2.02125 3.16875 -2 2 C-1.34 2 -0.68 2 0 2 C0 1.34 0 0.68 0 0 Z " fill="#BEB8B6" transform="translate(160,85)"/>
<path d="M0 0 C0 0.66 0 1.32 0 2 C1.32 2.33 2.64 2.66 4 3 C3.01 4.32 2.02 5.64 1 7 C1.99 7.33 2.98 7.66 4 8 C1 9 1 9 -1.125 8.4375 C-3 7 -3 7 -3.75 3.875 C-3.8325 2.92625 -3.915 1.9775 -4 1 C-2 0 -2 0 0 0 Z " fill="#EAE6E3" transform="translate(92,64)"/>
<path d="M0 0 C0.99 0.66 1.98 1.32 3 2 C2.67 3.65 2.34 5.3 2 7 C1.4225 6.34 0.845 5.68 0.25 5 C-1.99653977 2.55709077 -1.99653977 2.55709077 -6 3 C-6 3.66 -6 4.32 -6 5 C-7.32 4.67 -8.64 4.34 -10 4 C-9.67 3.01 -9.34 2.02 -9 1 C-5.74531799 -0.084894 -3.4103976 -0.21314985 0 0 Z " fill="#2B1F1E" transform="translate(174,42)"/>
<path d="M0 0 C1.32 0.66 2.64 1.32 4 2 C3.01 2.99 2.02 3.98 1 5 C1.33 5.66 1.66 6.32 2 7 C0.03533587 8.06775224 -1.96855359 9.06553465 -4 10 C-4.66 9.67 -5.32 9.34 -6 9 C-4.47291037 5.56404834 -2.40072955 2.88087546 0 0 Z " fill="#C3C1BC" transform="translate(116,53)"/>
<path d="M0 0 C4.29 0 8.58 0 13 0 C13 0.99 13 1.98 13 3 C7.25 4.125 7.25 4.125 5 3 C5 2.34 5 1.68 5 1 C4.34 1 3.68 1 3 1 C2.67 1.99 2.34 2.98 2 4 C1.34 3.67 0.68 3.34 0 3 C0 2.01 0 1.02 0 0 Z " fill="#FAFAF7" transform="translate(139,46)"/>
<path d="M0 0 C0 1.32 0 2.64 0 4 C-0.99 4 -1.98 4 -3 4 C-3.33 4.66 -3.66 5.32 -4 6 C-6.5 4.1875 -6.5 4.1875 -9 2 C-9 1.01 -9 0.02 -9 -1 C-5.38055101 -2.34053666 -3.42632833 -1.61798838 0 0 Z " fill="#210E10" transform="translate(177,46)"/>
<path d="M0 0 C2 2 2 2 2.125 5.125 C2.08375 6.07375 2.0425 7.0225 2 8 C2.99 5.69 3.98 3.38 5 1 C5.66 1 6.32 1 7 1 C6.46930939 4.82097239 5.50298434 7.06171403 3 10 C1.68 9.67 0.36 9.34 -1 9 C-0.67 6.03 -0.34 3.06 0 0 Z " fill="#D7CBCB" transform="translate(171,83)"/>
<path d="M0 0 C1.12051758 0.0009668 1.12051758 0.0009668 2.26367188 0.00195312 C6.50703871 0.0354828 10.50964243 0.35724214 14.6875 1.1875 C14.6875 1.8475 14.6875 2.5075 14.6875 3.1875 C12.3775 3.5175 10.0675 3.8475 7.6875 4.1875 C7.6875 3.1975 7.6875 2.2075 7.6875 1.1875 C-1.7175 1.6825 -1.7175 1.6825 -11.3125 2.1875 C-7.49674448 -0.35633701 -4.41328204 -0.07124245 0 0 Z " fill="#A9A8A8" transform="translate(144.3125,44.8125)"/>
<path d="M0 0 C0.33 0 0.66 0 1 0 C1.12375 1.2375 1.2475 2.475 1.375 3.75 C1.67967471 6.2949299 1.96890357 7.93780713 3.125 10.25 C4 12 4 12 3.625 14.25 C3.41875 14.8275 3.2125 15.405 3 16 C2.01 15.67 1.02 15.34 0 15 C-1.1875 11.9375 -1.1875 11.9375 -2 9 C-1.67 8.67 -1.34 8.34 -1 8 C-0.76924918 6.65252916 -0.58846937 5.29622435 -0.4375 3.9375 C-0.293125 2.638125 -0.14875 1.33875 0 0 Z " fill="#EAE8E4" transform="translate(106,111)"/>
<path d="M0 0 C0.99 0 1.98 0 3 0 C3 0.66 3 1.32 3 2 C3.680625 2.20625 4.36125 2.4125 5.0625 2.625 C8.97009851 4.45408866 11.83857939 7.10279034 15 10 C14.67 10.66 14.34 11.32 14 12 C13.24074219 11.44570313 12.48148438 10.89140625 11.69921875 10.3203125 C10.20841797 9.23363281 10.20841797 9.23363281 8.6875 8.125 C7.70136719 7.40570313 6.71523437 6.68640625 5.69921875 5.9453125 C3.82476885 4.5944065 1.92247007 3.28164671 0 2 C0 1.34 0 0.68 0 0 Z " fill="#D1CAC8" transform="translate(161,44)"/>
<path d="M0 0 C0.66 0 1.32 0 2 0 C1.67 3.3 1.34 6.6 1 10 C0.34 10 -0.32 10 -1 10 C-1.33 11.32 -1.66 12.64 -2 14 C-3.05128687 10.76470168 -2.91901775 8.60277903 -2.125 5.3125 C-1.94195312 4.52488281 -1.75890625 3.73726563 -1.5703125 2.92578125 C-1 1 -1 1 0 0 Z " fill="#E8E0DF" transform="translate(159,77)"/>
<path d="M0 0 C-0.268125 0.78375 -0.53625 1.5675 -0.8125 2.375 C-2.29233521 6.89239169 -3.64902274 11.44270338 -5 16 C-5.66 15.34 -6.32 14.68 -7 14 C-6.79296875 11.9765625 -6.79296875 11.9765625 -6.1875 9.625 C-5.99542969 8.85414062 -5.80335937 8.08328125 -5.60546875 7.2890625 C-5.40566406 6.53367187 -5.20585938 5.77828125 -5 5 C-4.85175781 4.26523438 -4.70351562 3.53046875 -4.55078125 2.7734375 C-4.36902344 2.18820313 -4.18726562 1.60296875 -4 1 C-2 0 -2 0 0 0 Z " fill="#C4BDBC" transform="translate(109,62)"/>
<path d="M0 0 C3.91121498 0.68936071 7.55508596 1.78250181 11.3125 3.0625 C12.38113281 3.42472656 13.44976562 3.78695312 14.55078125 4.16015625 C15.76314453 4.57587891 15.76314453 4.57587891 17 5 C17 5.33 17 5.66 17 6 C10.89686656 6.51941561 6.29460564 5.11313722 1 2 C0.67 1.34 0.34 0.68 0 0 Z " fill="#1D1312" transform="translate(123,118)"/>
<path d="M0 0 C0 2.31 0 4.62 0 7 C1.98 7 3.96 7 6 7 C6 7.33 6 7.66 6 8 C3.69 8 1.38 8 -1 8 C-1 7.34 -1 6.68 -1 6 C-4.0745356 6.7763932 -4.0745356 6.7763932 -6 9 C-5.63668534 5.73016809 -4.2451062 0 0 0 Z " fill="#5B504C" transform="translate(114,62)"/>
<path d="M0 0 C1.32 0.66 2.64 1.32 4 2 C4 3.98 4 5.96 4 8 C1.03 7.505 1.03 7.505 -2 7 C-1.125 1.125 -1.125 1.125 0 0 Z " fill="#7A6F6E" transform="translate(154,72)"/>
<path d="M0 0 C0.33 0.66 0.66 1.32 1 2 C0.22265625 3.7265625 0.22265625 3.7265625 -0.9375 5.625 C-1.618125 6.73875 -2.29875 7.8525 -3 9 C-4.32 9 -5.64 9 -7 9 C-6.3125 5.625 -6.3125 5.625 -5 2 C-2.375 0.5625 -2.375 0.5625 0 0 Z " fill="#C1BFBD" transform="translate(182,99)"/>
<path d="M0 0 C0.66 0 1.32 0 2 0 C1.67 1.98 1.34 3.96 1 6 C0.34 6 -0.32 6 -1 6 C-1 6.99 -1 7.98 -1 9 C-0.01 9 0.98 9 2 9 C2 9.66 2 10.32 2 11 C-0.4375 10.625 -0.4375 10.625 -3 10 C-3.33 9.34 -3.66 8.68 -4 8 C-3.34 8 -2.68 8 -2 8 C-1.855625 6.865625 -1.71125 5.73125 -1.5625 4.5625 C-1 1 -1 1 0 0 Z " fill="#877D7D" transform="translate(137,82)"/>
<path d="M0 0 C2.125 0.9375 2.125 0.9375 4 2 C4 3.32 4 4.64 4 6 C3.34 6 2.68 6 2 6 C2.33 7.65 2.66 9.3 3 11 C0.41539709 9.70769855 0.10055964 8.64134313 -1 6 C-1.37668344 4.34259285 -1.72057545 2.67654729 -2 1 C-1.34 0.67 -0.68 0.34 0 0 Z " fill="#2F1010" transform="translate(110,77)"/>
<path d="M0 0 C0.66 0.33 1.32 0.66 2 1 C2.33 1.99 2.66 2.98 3 4 C2.38125 4.12375 1.7625 4.2475 1.125 4.375 C-1.19120832 4.87197356 -1.19120832 4.87197356 -3 7 C-5.625 6.625 -5.625 6.625 -8 6 C-7.34 5.67 -6.68 5.34 -6 5 C-6 4.34 -6 3.68 -6 3 C-4.03533587 1.93224776 -2.03144641 0.93446535 0 0 Z " fill="#2D1F1C" transform="translate(124,56)"/>
<path d="M0 0 C0 0.66 0 1.32 0 2 C-3.00313748 3.50156874 -5.79067522 3.09281204 -9.125 3.0625 C-10.40632812 3.05347656 -11.68765625 3.04445313 -13.0078125 3.03515625 C-14.48894531 3.01775391 -14.48894531 3.01775391 -16 3 C-12.87733503 0.91822335 -11.62145446 0.66600973 -8 0.375 C-7.13375 0.30023438 -6.2675 0.22546875 -5.375 0.1484375 C-3.58614071 0.03663379 -1.79234975 0 0 0 Z " fill="#F8F7F6" transform="translate(155,122)"/>
<path d="M0 0 C0.66 0.66 1.32 1.32 2 2 C2.66 1.34 3.32 0.68 4 0 C3.67 1.65 3.34 3.3 3 5 C-2.75 7 -2.75 7 -5 7 C-5 6.01 -5 5.02 -5 4 C-4.0409375 3.8453125 -4.0409375 3.8453125 -3.0625 3.6875 C-2.381875 3.460625 -1.70125 3.23375 -1 3 C-0.67 2.01 -0.34 1.02 0 0 Z " fill="#170A07" transform="translate(193,91)"/>
<path d="M0 0 C0.66 0 1.32 0 2 0 C3.76171875 2.3359375 3.76171875 2.3359375 5.6875 5.375 C6.65236328 6.87160156 6.65236328 6.87160156 7.63671875 8.3984375 C8.31154297 9.68621094 8.31154297 9.68621094 9 11 C8.67 11.66 8.34 12.32 8 13 C4.15383526 8.91193811 1.36410449 5.59282842 0 0 Z " fill="#1A0F0C" transform="translate(107,100)"/>
<path d="M0 0 C1.1875 1.625 1.1875 1.625 2 4 C0.625 7.25 0.625 7.25 -1 10 C-5 5.375 -5 5.375 -5 2 C-3.515 2.99 -3.515 2.99 -2 4 C-1.34 2.68 -0.68 1.36 0 0 Z " fill="#5D4746" transform="translate(118,103)"/>
<path d="M0 0 C0.33 0 0.66 0 1 0 C0.67 3.3 0.34 6.6 0 10 C-0.99 10 -1.98 10 -3 10 C-3.23226952 6.59338044 -3.35720302 4.59016151 -1.5625 1.625 C-0.7890625 0.820625 -0.7890625 0.820625 0 0 Z " fill="#170E0D" transform="translate(170,82)"/>
<path d="M0 0 C0.99 0 1.98 0 3 0 C3.33 2.97 3.66 5.94 4 9 C3.67 8.34 3.34 7.68 3 7 C2.01 6.67 1.02 6.34 0 6 C-0.38218767 4.34385343 -0.71395102 2.67542976 -1 1 C-0.67 0.67 -0.34 0.34 0 0 Z " fill="#CDC7C6" transform="translate(129,81)"/>
<path d="M0 0 C0.33 0 0.66 0 1 0 C2.42857143 8.42857143 2.42857143 8.42857143 0 13 C-0.66 12.67 -1.32 12.34 -2 12 C-1.85904936 10.3745692 -1.71207913 8.74965949 -1.5625 7.125 C-1.48128906 6.22007813 -1.40007812 5.31515625 -1.31640625 4.3828125 C-1 2 -1 2 0 0 Z " fill="#888582" transform="translate(148,73)"/>
<path d="M0 0 C0 0.66 0 1.32 0 2 C-0.8971875 2.1546875 -0.8971875 2.1546875 -1.8125 2.3125 C-4.28243264 3.08876455 -5.32251235 4.07088921 -7 6 C-7.66 4.68 -8.32 3.36 -9 2 C-5.5647952 -0.29013653 -4.014669 -0.17842973 0 0 Z " fill="#271718" transform="translate(190,58)"/>
<path d="M0 0 C4.62272814 1.49558852 7.52369849 3.68171219 11 7 C11.671875 9.1640625 11.671875 9.1640625 12 11 C9.33333333 9 6.66666667 7 4 5 C3.25234375 4.48050781 2.5046875 3.96101563 1.734375 3.42578125 C0.87585938 2.72001953 0.87585938 2.72001953 0 2 C0 1.34 0 0.68 0 0 Z " fill="#160F0E" transform="translate(164,48)"/>
<path d="M0 0 C0.33 0.66 0.66 1.32 1 2 C2.65 1.67 4.3 1.34 6 1 C5.67 2.32 5.34 3.64 5 5 C3.1875 5.625 3.1875 5.625 1 6 C0.01 5.34 -0.98 4.68 -2 4 C-1 1 -1 1 0 0 Z " fill="#2B1815" transform="translate(146,66)"/>
<path d="M0 0 C0.99 0.33 1.98 0.66 3 1 C2.37755401 2.27208622 1.75193233 3.54261882 1.125 4.8125 C0.77695313 5.52019531 0.42890625 6.22789063 0.0703125 6.95703125 C-1 9 -1 9 -3 12 C-3.88336837 9.5332355 -4.1312406 8.36140628 -3.22265625 5.859375 C-2.83980469 5.16328125 -2.45695312 4.4671875 -2.0625 3.75 C-1.68222656 3.04359375 -1.30195312 2.3371875 -0.91015625 1.609375 C-0.60980469 1.07828125 -0.30945313 0.5471875 0 0 Z " fill="#1A1514" transform="translate(109,62)"/>
<path d="M0 0 C3.75376152 1.25125384 4.24073289 2.5652404 6 6 C6 6.66 6 7.32 6 8 C4.35 8 2.7 8 1 8 C0.67 5.36 0.34 2.72 0 0 Z " fill="#261C19" transform="translate(98,91)"/>
<path d="M0 0 C0.66 0.99 1.32 1.98 2 3 C1.1025444 6.06630664 0.26961192 7.73038808 -2 10 C-2.99 10 -3.98 10 -5 10 C-5 9.01 -5 8.02 -5 7 C-4.0409375 6.6596875 -4.0409375 6.6596875 -3.0625 6.3125 C-0.72806339 5.14749104 -0.72806339 5.14749104 -0.25 2.375 C-0.1675 1.59125 -0.085 0.8075 0 0 Z " fill="#231B1B" transform="translate(141,81)"/>
<path d="M0 0 C2.9719385 1.12451727 5.33440687 2.22293791 8 4 C7.01 4.66 6.02 5.32 5 6 C3.02 5.01 1.04 4.02 -1 3 C-0.67 2.01 -0.34 1.02 0 0 Z " fill="#EDE9EA" transform="translate(115,127)"/>
<path d="M0 0 C0.66 0 1.32 0 2 0 C2 0.99 2 1.98 2 3 C2.66 3 3.32 3 4 3 C4 3.66 4 4.32 4 5 C2.02 5.66 0.04 6.32 -2 7 C-1.34 4.69 -0.68 2.38 0 0 Z " fill="#F6F4F4" transform="translate(158,113)"/>
<path d="M0 0 C1.32 0.99 2.64 1.98 4 3 C3.67 4.65 3.34 6.3 3 8 C1.68 7.34 0.36 6.68 -1 6 C-0.67 4.02 -0.34 2.04 0 0 Z " fill="#1E1211" transform="translate(128,85)"/>
<path d="M0 0 C0.33 0.66 0.66 1.32 1 2 C4.02934491 2.65772428 4.02934491 2.65772428 7 3 C4.36095629 4.41377341 1.92879371 5.37240135 -1 6 C-1.33 5.01 -1.66 4.02 -2 3 C-1.34 2.01 -0.68 1.02 0 0 Z " fill="#E9E1E1" transform="translate(181,54)"/>
<path d="M0 0 C1.54571278 2.31856917 2.79618552 4.50638429 4 7 C1 7 1 7 -2 6 C-1.125 1.125 -1.125 1.125 0 0 Z " fill="#251E1C" transform="translate(104,100)"/>
<path d="M0 0 C0 1.65 0 3.3 0 5 C-0.99 4.34 -1.98 3.68 -3 3 C-3.99 3.99 -4.98 4.98 -6 6 C-6.33 4.35 -6.66 2.7 -7 1 C-4 0 -4 0 0 0 Z " fill="#E1DBD9" transform="translate(173,80)"/>
<path d="M0 0 C-0.33 0.99 -0.66 1.98 -1 3 C-1.66 3 -2.32 3 -3 3 C-3.33 3.99 -3.66 4.98 -4 6 C-4.66 5.67 -5.32 5.34 -6 5 C-6 4.34 -6 3.68 -6 3 C-6.33 2.34 -6.66 1.68 -7 1 C-3.375 -1.125 -3.375 -1.125 0 0 Z " fill="#C5C5C2" transform="translate(175,108)"/>
<path d="M0 0 C0.66 0 1.32 0 2 0 C3.32421875 1.42578125 3.32421875 1.42578125 4.6875 3.3125 C5.14511719 3.92738281 5.60273437 4.54226562 6.07421875 5.17578125 C6.53248047 6.07876953 6.53248047 6.07876953 7 7 C6.67 7.99 6.34 8.98 6 10 C4.99421411 8.71283353 3.99553202 7.42011342 3 6.125 C2.443125 5.40570313 1.88625 4.68640625 1.3125 3.9453125 C0 2 0 2 0 0 Z " fill="#D9D2CE" transform="translate(107,104)"/>
<path d="M0 0 C0.66 0.33 1.32 0.66 2 1 C0.02 3.97 0.02 3.97 -2 7 C-2.33 6.34 -2.66 5.68 -3 5 C-3.99 4.67 -4.98 4.34 -6 4 C-4.02 2.68 -2.04 1.36 0 0 Z " fill="#E8E1E1" transform="translate(176,102)"/>
<path d="M0 0 C0.99 0.33 1.98 0.66 3 1 C2.34 1 1.68 1 1 1 C1.33 1.99 1.66 2.98 2 4 C2.66 4.33 3.32 4.66 4 5 C4 5.99 4 6.98 4 8 C2.35 7.67 0.7 7.34 -1 7 C-1.04254356 5.00045254 -1.04080783 2.99958364 -1 1 C-0.67 0.67 -0.34 0.34 0 0 Z " fill="#22120B" transform="translate(115,60)"/>
<path d="M0 0 C0.66 0.66 1.32 1.32 2 2 C1.625 4.125 1.625 4.125 1 6 C-0.65 6.33 -2.3 6.66 -4 7 C-2.92598892 4.08482708 -2.22189824 2.22189824 0 0 Z " fill="#E9E8E8" transform="translate(179,109)"/>
<path d="M0 0 C3 1 3 1 5 4 C2.36 4.66 -0.28 5.32 -3 6 C-2.01 4.02 -1.02 2.04 0 0 Z " fill="#EDEEEA" transform="translate(185,99)"/>
<path d="M0 0 C0 0.99 0 1.98 0 3 C0.66 3 1.32 3 2 3 C1.67 4.32 1.34 5.64 1 7 C1 6.01 1 5.02 1 4 C-1.64 4 -4.28 4 -7 4 C-7 3.34 -7 2.68 -7 2 C-4.35261084 0.5393715 -3.10551666 0 0 0 Z " fill="#1C0B0A" transform="translate(141,77)"/>
<path d="M0 0 C1.65 1.65 3.3 3.3 5 5 C4.34 5.66 3.68 6.32 3 7 C1.68 6.34 0.36 5.68 -1 5 C-0.67 3.35 -0.34 1.7 0 0 Z " fill="#AAA7A6" transform="translate(176,55)"/>
<path d="M0 0 C1.32 0.66 2.64 1.32 4 2 C2.25 4.0625 2.25 4.0625 0 6 C-2.25 5.75 -2.25 5.75 -4 5 C-2 2 -2 2 0 0 Z " fill="#221B1C" transform="translate(132,125)"/>
<path d="M0 0 C0.66 0.33 1.32 0.66 2 1 C1.67 1.99 1.34 2.98 1 4 C-2.5625 5.1875 -2.5625 5.1875 -6 6 C-5 3 -5 3 -2.5625 1.25 C-1.716875 0.8375 -0.87125 0.425 0 0 Z " fill="#ECECEC" transform="translate(167,120)"/>
<path d="M0 0 C1.32 0 2.64 0 4 0 C3.67 1.98 3.34 3.96 3 6 C1.68 5.01 0.36 4.02 -1 3 C-0.67 2.01 -0.34 1.02 0 0 Z " fill="#210F0E" transform="translate(174,92)"/>
<path d="M0 0 C1.485 0.99 1.485 0.99 3 2 C5.62531524 2.16713569 5.62531524 2.16713569 8 2 C8 2.66 8 3.32 8 4 C5.03 4.66 2.06 5.32 -1 6 C-0.67 4.02 -0.34 2.04 0 0 Z " fill="#1D0706" transform="translate(132,90)"/>
<path d="M0 0 C0.33 0 0.66 0 1 0 C1.33 5.28 1.66 10.56 2 16 C-1.34089023 11.54547969 -1.30946125 10.95185771 -0.6875 5.75 C-0.56761719 4.67234375 -0.44773437 3.5946875 -0.32421875 2.484375 C-0.21722656 1.66453125 -0.11023438 0.8446875 0 0 Z " fill="#110605" transform="translate(100,79)"/>
<path d="M0 0 C0.66 0.33 1.32 0.66 2 1 C1.64950425 4.24208567 1.43778819 5.61527704 -1.0625 7.8125 C-1.701875 8.204375 -2.34125 8.59625 -3 9 C-2.01 6.03 -1.02 3.06 0 0 Z " fill="#E4DFDB" transform="translate(198,65)"/>
<path d="M0 0 C2.475 0.99 2.475 0.99 5 2 C1.54754176 4.30163882 0.05261287 4.34490322 -4 4 C-4.66 3.34 -5.32 2.68 -6 2 C-4.02 1.67 -2.04 1.34 0 1 C0 0.67 0 0.34 0 0 Z " fill="#EAE9E6" transform="translate(163,40)"/>
<path d="M0 0 C1.4606285 2.64738916 2 3.89448334 2 7 C0.35 7 -1.3 7 -3 7 C-2.01 4.69 -1.02 2.38 0 0 Z " fill="#29211F" transform="translate(157,90)"/>
<path d="M0 0 C0.66 0 1.32 0 2 0 C1.5206753 4.31392226 0.2542015 6.16569547 -3 9 C-2.01 6.03 -1.02 3.06 0 0 Z " fill="#D0C2BF" transform="translate(176,84)"/>
<path d="M0 0 C2.29013653 3.4352048 2.17842973 4.985331 2 9 C1.34 8.34 0.68 7.68 0 7 C0 6.34 0 5.68 0 5 C-0.66 5.66 -1.32 6.32 -2 7 C-2 5.35 -2 3.7 -2 2 C-1.34 2 -0.68 2 0 2 C0 1.34 0 0.68 0 0 Z " fill="#180708" transform="translate(180,72)"/>
<path d="M0 0 C0.66 0.33 1.32 0.66 2 1 C1.67 2.98 1.34 4.96 1 7 C-0.32 6.67 -1.64 6.34 -3 6 C-2.67 4.68 -2.34 3.36 -2 2 C-1.34 2 -0.68 2 0 2 C0 1.34 0 0.68 0 0 Z " fill="#372823" transform="translate(196,63)"/>
<path d="M0 0 C0.33 1.32 0.66 2.64 1 4 C-0.98 4.99 -0.98 4.99 -3 6 C-3.99 5.34 -4.98 4.68 -6 4 C-4.68 3.67 -3.36 3.34 -2 3 C-2 2.34 -2 1.68 -2 1 C-1.34 0.67 -0.68 0.34 0 0 Z " fill="#281E1E" transform="translate(126,125)"/>
<path d="M0 0 C0.99 0 1.98 0 3 0 C3.6875 1.75 3.6875 1.75 4 4 C2.5625 6.25 2.5625 6.25 1 8 C0.67 5.36 0.34 2.72 0 0 Z " fill="#CAC5C2" transform="translate(196,75)"/>
<path d="M0 0 C0.66 0 1.32 0 2 0 C2 0.66 2 1.32 2 2 C2.99 2.33 3.98 2.66 5 3 C4.34 3.66 3.68 4.32 3 5 C2.01 5 1.02 5 0 5 C-0.33 4.01 -0.66 3.02 -1 2 C-0.67 1.34 -0.34 0.68 0 0 Z " fill="#E5E5DF" transform="translate(142,47)"/>
</svg>
